{
copyright = "Copyright (c) 2015, Cadson Demak (info@cadsondemak.com), Copyright (c) 2014, Pablo Impallari (www.impallari.com|impallari@gmail.com)";
customParameters = (
{
name = description;
value = "Copyright (c) 2015, Cadson Demak (info@cadsondemak.com), Copyright (c) 2014, Pablo Impallari (www.impallari.com|impallari@gmail.com)";
},
{
name = license;

glyphs = (
{
glyphname = A;
lastChange = "2015-06-22 15:30:35 +0000";
layers = (
{
layerId = "647881E3-02F2-4150-93BB-7ED190F14AA3";
name = Regular;
paths = (
{
closed = 1;
nodes = (
"431 168 OFFCURVE",
"426 106 OFFCURVE",
"426 83 CURVE SMOOTH",
"426 15 OFFCURVE",
"436 -18 OFFCURVE",
"501 -18 CURVE SMOOTH",
"535 -18 OFFCURVE",
"560 16 OFFCURVE",
"564 45 CURVE",
"559 92 OFFCURVE",
"557 139 OFFCURVE",
"557 190 CURVE SMOOTH",
"557 333 OFFCURVE",
"576 477 OFFCURVE",
"592 615 CURVE",
"592 645 OFFCURVE",
"587 665 OFFCURVE",
"519 665 CURVE SMOOTH",
"476 665 OFFCURVE",
"432 640 OFFCURVE",
"406 608 CURVE SMOOTH",
"302 480 OFFCURVE",
"231 388 OFFCURVE",
"160 283 CURVE",
"127 268 OFFCURVE",
"69 240 OFFCURVE",
"69 213 CURVE SMOOTH",
"69 211 OFFCURVE",
"79 190 OFFCURVE",
"79 179 CURVE",
"11 99 OFFCURVE",
"-15 28 OFFCURVE",
"-17 28 CURVE",
"-17 11 OFFCURVE",
"15 -13 OFFCURVE",
"58 -13 CURVE SMOOTH",
"84 -13 OFFCURVE",
"100 2 OFFCURVE",
"124 26 CURVE SMOOTH",
"165 67 OFFCURVE",
"196 134 OFFCURVE",
"228 182 CURVE",
"304 200 OFFCURVE",
"364 210 OFFCURVE",
"437 222 CURVE"
);
},
{
closed = 1;
nodes = (
"368 388 OFFCURVE",
"426 474 OFFCURVE",
"463 518 CURVE",
"454 474 OFFCURVE",
"447 399 OFFCURVE",
"442 318 CURVE",
"378 307 OFFCURVE",
"333 303 OFFCURVE",
"307 297 CURVE"
);
}
);
width = 656;
}
);
leftKerningGroup = A;
rightKerningGroup = A;
unicode = 0041;
},
{
glyphname = Aacute;
lastChange = "2015-06-22 11:50:22 +0000";
layers = (
{
layerId = "647881E3-02F2-4150-93BB-7ED190F14AA3";
name = Regular;
paths = (
{
closed = 1;
nodes = (
"431 168 OFFCURVE",
"426 106 OFFCURVE",
"426 83 CURVE SMOOTH",
"426 15 OFFCURVE",
"436 -18 OFFCURVE",
"501 -18 CURVE SMOOTH",
"535 -18 OFFCURVE",
"560 16 OFFCURVE",
"564 45 CURVE",
"559 92 OFFCURVE",
"557 139 OFFCURVE",
"557 190 CURVE SMOOTH",
"557 333 OFFCURVE",
"576 477 OFFCURVE",
"592 615 CURVE",
"592 645 OFFCURVE",
"587 665 OFFCURVE",
"519 665 CURVE SMOOTH",
"476 665 OFFCURVE",
"432 640 OFFCURVE",
"406 608 CURVE SMOOTH",
"302 480 OFFCURVE",
"231 388 OFFCURVE",
"160 283 CURVE",
"127 268 OFFCURVE",
"69 240 OFFCURVE",
"69 213 CURVE SMOOTH",
"69 211 OFFCURVE",
"79 190 OFFCURVE",
"79 179 CURVE",
"11 99 OFFCURVE",
"-15 28 OFFCURVE",
"-17 28 CURVE",
"-17 11 OFFCURVE",
"15 -13 OFFCURVE",
"58 -13 CURVE SMOOTH",
"84 -13 OFFCURVE",
"100 2 OFFCURVE",
"124 26 CURVE SMOOTH",
"165 67 OFFCURVE",
"196 134 OFFCURVE",
"228 182 CURVE",
"304 200 OFFCURVE",
"364 210 OFFCURVE",
"437 222 CURVE"
);
},
{
closed = 1;
nodes = (
"368 388 OFFCURVE",
"426 474 OFFCURVE",
"463 518 CURVE",
"454 474 OFFCURVE",
"447 399 OFFCURVE",
"442 318 CURVE",
"378 307 OFFCURVE",
"333 303 OFFCURVE",
"307 297 CURVE"
);
},
{
closed = 1;
nodes = (
"498 778 OFFCURVE",
"497 774 OFFCURVE",
"497 769 CURVE SMOOTH",
"497 746 OFFCURVE",
"509 738 OFFCURVE",
"534 738 CURVE SMOOTH",
"571 738 OFFCURVE",
"609 761 OFFCURVE",
"685 814 CURVE SMOOTH",
"737 850 OFFCURVE",
"756 864 OFFCURVE",
"756 883 CURVE SMOOTH",
"756 904 OFFCURVE",
"708 937 OFFCURVE",
"681 937 CURVE SMOOTH",
"657 937 OFFCURVE",
"528 824 OFFCURVE",
"500 781 CURVE SMOOTH"
);
}
);
width = 656;
}
);
leftKerningGroup = A;
rightKerningGroup = A;
unicode = 00C1;
},
{
glyphname = Abreve;
lastChange = "2015-06-22 11:50:22 +0000";
layers = (
{
layerId = "647881E3-02F2-4150-93BB-7ED190F14AA3";
name = Regular;
paths = (
{
closed = 1;
nodes = (
"431 168 OFFCURVE",
"426 106 OFFCURVE",
"426 83 CURVE SMOOTH",
"426 15 OFFCURVE",
"436 -18 OFFCURVE",
"501 -18 CURVE SMOOTH",
"535 -18 OFFCURVE",
"560 16 OFFCURVE",
"564 45 CURVE",
"559 92 OFFCURVE",
"557 139 OFFCURVE",
"557 190 CURVE SMOOTH",
"557 333 OFFCURVE",
"576 477 OFFCURVE",
"592 615 CURVE",
"592 645 OFFCURVE",
"587 665 OFFCURVE",
"519 665 CURVE SMOOTH",
"476 665 OFFCURVE",
"432 640 OFFCURVE",
"406 608 CURVE SMOOTH",
"302 480 OFFCURVE",
"231 388 OFFCURVE",
"160 283 CURVE",
"127 268 OFFCURVE",
"69 240 OFFCURVE",
"69 213 CURVE SMOOTH",
"69 211 OFFCURVE",
"79 190 OFFCURVE",
"79 179 CURVE",
"11 99 OFFCURVE",
"-15 28 OFFCURVE",
"-17 28 CURVE",
"-17 11 OFFCURVE",
"15 -13 OFFCURVE",
"58 -13 CURVE SMOOTH",
"84 -13 OFFCURVE",
"100 2 OFFCURVE",
"124 26 CURVE SMOOTH",
"165 67 OFFCURVE",
"196 134 OFFCURVE",
"228 182 CURVE",
"304 200 OFFCURVE",
"364 210 OFFCURVE",
"437 222 CURVE"
);
},
{
closed = 1;
nodes = (
"368 388 OFFCURVE",
"426 474 OFFCURVE",
"463 518 CURVE",
"454 474 OFFCURVE",
"447 399 OFFCURVE",
"442 318 CURVE",
"378 307 OFFCURVE",
"333 303 OFFCURVE",
"307 297 CURVE"
);
},
{
closed = 1;
nodes = (
"622 715 OFFCURVE",
"708 758 OFFCURVE",
"722 857 CURVE",
"713 871 OFFCURVE",
"690 871 OFFCURVE",
"678 871 CURVE SMOOTH",
"668 871 OFFCURVE",
"653 865 OFFCURVE",
"644 857 CURVE",
"622 813 OFFCURVE",
"608 794 OFFCURVE",
"542 794 CURVE SMOOTH",
"491 794 OFFCURVE",
"487 807 OFFCURVE",
"486 830 CURVE SMOOTH",
"485 861 OFFCURVE",
"463 862 OFFCURVE",
"452 862 CURVE SMOOTH",
"406 862 OFFCURVE",
"399 831 OFFCURVE",
"399 807 CURVE SMOOTH",
"399 745 OFFCURVE",
"455 713 OFFCURVE",
"534 713 CURVE SMOOTH"
);
}
);
width = 656;
}
);
leftKerningGroup = A;
rightKerningGroup = A;
unicode = 0102;
},
{
glyphname = Abreveacute;
lastChange = "2015-06-22 11:50:22 +0000";
layers = (
{
layerId = "647881E3-02F2-4150-93BB-7ED190F14AA3";
name = Regular;
paths = (
{
closed = 1;
nodes = (
"431 168 OFFCURVE",
"426 106 OFFCURVE",
"426 83 CURVE SMOOTH",
"426 15 OFFCURVE",
"436 -18 OFFCURVE",
"501 -18 CURVE SMOOTH",
"535 -18 OFFCURVE",
"560 16 OFFCURVE",
"564 45 CURVE",
"559 92 OFFCURVE",
"557 139 OFFCURVE",
"557 190 CURVE SMOOTH",
"557 333 OFFCURVE",
"576 477 OFFCURVE",
"592 615 CURVE",
"592 645 OFFCURVE",
"587 665 OFFCURVE",
"519 665 CURVE SMOOTH",
"476 665 OFFCURVE",
"432 640 OFFCURVE",
"406 608 CURVE SMOOTH",
"302 480 OFFCURVE",
"231 388 OFFCURVE",
"160 283 CURVE",
"127 268 OFFCURVE",
"69 240 OFFCURVE",
"69 213 CURVE SMOOTH",
"69 211 OFFCURVE",
"79 190 OFFCURVE",
"79 179 CURVE",
"11 99 OFFCURVE",
"-15 28 OFFCURVE",
"-17 28 CURVE",
"-17 11 OFFCURVE",
"15 -13 OFFCURVE",
"58 -13 CURVE SMOOTH",
"84 -13 OFFCURVE",
"100 2 OFFCURVE",
"124 26 CURVE SMOOTH",
"165 67 OFFCURVE",
"196 134 OFFCURVE",
"228 182 CURVE",
"304 200 OFFCURVE",
"364 210 OFFCURVE",
"437 222 CURVE"
);
},
{
closed = 1;
nodes = (
"368 388 OFFCURVE",
"426 474 OFFCURVE",
"463 518 CURVE",
"454 474 OFFCURVE",
"447 399 OFFCURVE",
"442 318 CURVE",
"378 307 OFFCURVE",
"333 303 OFFCURVE",
"307 297 CURVE"
);
},
{
closed = 1;
nodes = (
"642 711 OFFCURVE",
"728 754 OFFCURVE",
"742 853 CURVE",
"733 867 OFFCURVE",
"710 867 OFFCURVE",
"698 867 CURVE SMOOTH",
"688 867 OFFCURVE",
"673 861 OFFCURVE",
"664 853 CURVE",
"642 809 OFFCURVE",
"626 786 OFFCURVE",
"560 786 CURVE SMOOTH",
"509 786 OFFCURVE",
"501 799 OFFCURVE",
"500 822 CURVE SMOOTH",
"499 853 OFFCURVE",
"483 858 OFFCURVE",
"472 858 CURVE SMOOTH",
"426 858 OFFCURVE",
"419 827 OFFCURVE",
"419 803 CURVE SMOOTH",
"419 741 OFFCURVE",
"475 709 OFFCURVE",
"554 709 CURVE SMOOTH"
);
},
{
closed = 1;
nodes = (
"532 868 OFFCURVE",
"531 865 OFFCURVE",
"531 862 CURVE SMOOTH",
"531 845 OFFCURVE",
"539 840 OFFCURVE",
"557 840 CURVE SMOOTH",
"583 840 OFFCURVE",
"600 859 OFFCURVE",
"653 896 CURVE SMOOTH",
"690 921 OFFCURVE",
"703 931 OFFCURVE",
"703 944 CURVE SMOOTH",
"703 959 OFFCURVE",
"647 981 OFFCURVE",
"628 981 CURVE SMOOTH",
"611 981 OFFCURVE",
"553 900 OFFCURVE",
"533 870 CURVE"
);
}
);
width = 656;
}
);
leftKerningGroup = A;
rightKerningGroup = A;
unicode = 1EAE;
},
{
glyphname = Abrevedotbelow;
lastChange = "2015-06-22 11:50:22 +0000";
layers = (
{
layerId = "647881E3-02F2-4150-93BB-7ED190F14AA3";
name = Regular;
paths = (
{
closed = 1;
nodes = (
"431 168 OFFCURVE",
"426 106 OFFCURVE",
"426 83 CURVE SMOOTH",
"426 15 OFFCURVE",
"436 -18 OFFCURVE",
"501 -18 CURVE SMOOTH",
"535 -18 OFFCURVE",
"560 16 OFFCURVE",
"564 45 CURVE",
"559 92 OFFCURVE",
"557 139 OFFCURVE",
"557 190 CURVE SMOOTH",
"557 333 OFFCURVE",
"576 477 OFFCURVE",
"592 615 CURVE",
"592 645 OFFCURVE",
"587 665 OFFCURVE",
"519 665 CURVE SMOOTH",
"476 665 OFFCURVE",
"432 640 OFFCURVE",
"406 608 CURVE SMOOTH",
"302 480 OFFCURVE",
"231 388 OFFCURVE",
"160 283 CURVE",
"127 268 OFFCURVE",
"69 240 OFFCURVE",
"69 213 CURVE SMOOTH",
"69 211 OFFCURVE",
"79 190 OFFCURVE",
"79 179 CURVE",
"11 99 OFFCURVE",
"-15 28 OFFCURVE",
"-17 28 CURVE",
"-17 11 OFFCURVE",
"15 -13 OFFCURVE",
"58 -13 CURVE SMOOTH",
"84 -13 OFFCURVE",
"100 2 OFFCURVE",
"124 26 CURVE SMOOTH",
"165 67 OFFCURVE",
"196 134 OFFCURVE",
"228 182 CURVE",
"304 200 OFFCURVE",
"364 210 OFFCURVE",
"437 222 CURVE"
);
},
{
closed = 1;
nodes = (
"368 388 OFFCURVE",
"426 474 OFFCURVE",
"463 518 CURVE",
"454 474 OFFCURVE",
"447 399 OFFCURVE",
"442 318 CURVE",
"378 307 OFFCURVE",
"333 303 OFFCURVE",
"307 297 CURVE"
);
},
{
closed = 1;
nodes = (
"642 711 OFFCURVE",
"728 754 OFFCURVE",
"742 853 CURVE",
"733 867 OFFCURVE",
"710 867 OFFCURVE",
"698 867 CURVE SMOOTH",
"688 867 OFFCURVE",
"673 861 OFFCURVE",
"664 853 CURVE",
"642 809 OFFCURVE",
"628 790 OFFCURVE",
"562 790 CURVE SMOOTH",
"511 790 OFFCURVE",
"507 803 OFFCURVE",
"506 826 CURVE SMOOTH",
"505 857 OFFCURVE",
"483 858 OFFCURVE",
"472 858 CURVE SMOOTH",
"426 858 OFFCURVE",
"419 827 OFFCURVE",
"419 803 CURVE SMOOTH",
"419 741 OFFCURVE",
"475 709 OFFCURVE",
"554 709 CURVE SMOOTH"
);
},
{
closed = 1;
nodes = (
"293 -215 OFFCURVE",
"336 -182 OFFCURVE",
"336 -139 CURVE SMOOTH",
"336 -107 OFFCURVE",
"305 -71 OFFCURVE",
"271 -71 CURVE SMOOTH",
"228 -71 OFFCURVE",
"181 -108 OFFCURVE",
"181 -155 CURVE SMOOTH",
"181 -186 OFFCURVE",
"216 -215 OFFCURVE",
"246 -215 CURVE SMOOTH"
);
}
);
width = 656;
}
);
leftKerningGroup = A;
rightKerningGroup = A;
unicode = 1EB6;
},
{
glyphname = Abrevegrave;
lastChange = "2015-06-22 11:50:22 +0000";
layers = (
{
layerId = "647881E3-02F2-4150-93BB-7ED190F14AA3";
name = Regular;
paths = (
{
closed = 1;
nodes = (
"431 168 OFFCURVE",
"426 106 OFFCURVE",
"426 83 CURVE SMOOTH",
"426 15 OFFCURVE",
"436 -18 OFFCURVE",
"501 -18 CURVE SMOOTH",
"535 -18 OFFCURVE",
"560 16 OFFCURVE",
"564 45 CURVE",
"559 92 OFFCURVE",
"557 139 OFFCURVE",
"557 190 CURVE SMOOTH",
"557 333 OFFCURVE",
"576 477 OFFCURVE",
"592 615 CURVE",
"592 645 OFFCURVE",
"587 665 OFFCURVE",
"519 665 CURVE SMOOTH",
"476 665 OFFCURVE",
"432 640 OFFCURVE",
"406 608 CURVE SMOOTH",
"302 480 OFFCURVE",
"231 388 OFFCURVE",
"160 283 CURVE",
"127 268 OFFCURVE",
"69 240 OFFCURVE",
"69 213 CURVE SMOOTH",
"69 211 OFFCURVE",
"79 190 OFFCURVE",
"79 179 CURVE",
"11 99 OFFCURVE",
"-15 28 OFFCURVE",
"-17 28 CURVE",
"-17 11 OFFCURVE",
"15 -13 OFFCURVE",
"58 -13 CURVE SMOOTH",
"84 -13 OFFCURVE",
"100 2 OFFCURVE",
"124 26 CURVE SMOOTH",
"165 67 OFFCURVE",
"196 134 OFFCURVE",
"228 182 CURVE",
"304 200 OFFCURVE",
"364 210 OFFCURVE",
"437 222 CURVE"
);
},
{
closed = 1;
nodes = (
"368 388 OFFCURVE",
"426 474 OFFCURVE",
"463 518 CURVE",
"454 474 OFFCURVE",
"447 399 OFFCURVE",
"442 318 CURVE",
"378 307 OFFCURVE",
"333 303 OFFCURVE",
"307 297 CURVE"
);
},
{
closed = 1;
nodes = (
"642 711 OFFCURVE",
"728 754 OFFCURVE",
"742 853 CURVE",
"733 867 OFFCURVE",
"710 867 OFFCURVE",
"698 867 CURVE SMOOTH",
"688 867 OFFCURVE",
"673 861 OFFCURVE",
"664 853 CURVE",
"642 809 OFFCURVE",
"626 786 OFFCURVE",
"560 786 CURVE SMOOTH",
"509 786 OFFCURVE",
"501 799 OFFCURVE",
"500 822 CURVE SMOOTH",
"499 853 OFFCURVE",
"483 858 OFFCURVE",
"472 858 CURVE SMOOTH",
"426 858 OFFCURVE",
"419 827 OFFCURVE",
"419 803 CURVE SMOOTH",
"419 741 OFFCURVE",
"475 709 OFFCURVE",
"554 709 CURVE SMOOTH"
);
},
{
closed = 1;
nodes = (
"593 900 OFFCURVE",
"535 981 OFFCURVE",
"518 981 CURVE SMOOTH",
"499 981 OFFCURVE",
"443 959 OFFCURVE",
"443 944 CURVE SMOOTH",
"443 931 OFFCURVE",
"456 921 OFFCURVE",
"493 896 CURVE SMOOTH",
"546 859 OFFCURVE",
"563 840 OFFCURVE",
"589 840 CURVE SMOOTH",
"607 840 OFFCURVE",
"615 845 OFFCURVE",
"615 862 CURVE SMOOTH",
"615 865 OFFCURVE",
"614 868 OFFCURVE",
"613 870 CURVE"
);
}
);
width = 656;
}
);
leftKerningGroup = A;
rightKerningGroup = A;
unicode = 1EB0;
},
{
glyphname = Abrevehookabove;
lastChange = "2015-06-22 11:50:22 +0000";
layers = (
{
layerId = "647881E3-02F2-4150-93BB-7ED190F14AA3";
name = Regular;
paths = (
{
closed = 1;
nodes = (
"431 168 OFFCURVE",
"426 106 OFFCURVE",
"426 83 CURVE SMOOTH",
"426 15 OFFCURVE",
"436 -18 OFFCURVE",
"501 -18 CURVE SMOOTH",
"535 -18 OFFCURVE",
"560 16 OFFCURVE",
"564 45 CURVE",
"559 92 OFFCURVE",
"557 139 OFFCURVE",
"557 190 CURVE SMOOTH",
"557 333 OFFCURVE",
"576 477 OFFCURVE",
"592 615 CURVE",
"592 645 OFFCURVE",
"587 665 OFFCURVE",
"519 665 CURVE SMOOTH",
"476 665 OFFCURVE",
"432 640 OFFCURVE",
"406 608 CURVE SMOOTH",
"302 480 OFFCURVE",
"231 388 OFFCURVE",
"160 283 CURVE",
"127 268 OFFCURVE",
"69 240 OFFCURVE",
"69 213 CURVE SMOOTH",
"69 211 OFFCURVE",
"79 190 OFFCURVE",
"79 179 CURVE",
"11 99 OFFCURVE",
"-15 28 OFFCURVE",
"-17 28 CURVE",
"-17 11 OFFCURVE",
"15 -13 OFFCURVE",
"58 -13 CURVE SMOOTH",
"84 -13 OFFCURVE",
"100 2 OFFCURVE",
"124 26 CURVE SMOOTH",
"165 67 OFFCURVE",
"196 134 OFFCURVE",
"228 182 CURVE",
"304 200 OFFCURVE",
"364 210 OFFCURVE",
"437 222 CURVE"
);
},
{
closed = 1;
nodes = (
"368 388 OFFCURVE",
"426 474 OFFCURVE",
"463 518 CURVE",
"454 474 OFFCURVE",
"447 399 OFFCURVE",
"442 318 CURVE",
"378 307 OFFCURVE",
"333 303 OFFCURVE",
"307 297 CURVE"
);
},
{
closed = 1;
nodes = (
"642 711 OFFCURVE",
"728 754 OFFCURVE",
"742 853 CURVE",
"733 867 OFFCURVE",
"710 867 OFFCURVE",
"698 867 CURVE SMOOTH",
"688 867 OFFCURVE",
"673 861 OFFCURVE",
"664 853 CURVE",
"642 809 OFFCURVE",
"626 786 OFFCURVE",
"560 786 CURVE SMOOTH",
"509 786 OFFCURVE",
"501 799 OFFCURVE",
"500 822 CURVE SMOOTH",
"499 853 OFFCURVE",
"483 858 OFFCURVE",
"472 858 CURVE SMOOTH",
"426 858 OFFCURVE",
"419 827 OFFCURVE",
"419 803 CURVE SMOOTH",
"419 741 OFFCURVE",
"475 709 OFFCURVE",
"554 709 CURVE SMOOTH"
);
},
{
closed = 1;
nodes = (
"646 877 OFFCURVE",
"694 901 OFFCURVE",
"694 946 CURVE SMOOTH",
"694 988 OFFCURVE",
"648 1006 OFFCURVE",
"607 1006 CURVE SMOOTH",
"571 1006 OFFCURVE",
"520 999 OFFCURVE",
"520 965 CURVE SMOOTH",
"520 953 OFFCURVE",
"529 940 OFFCURVE",
"540 940 CURVE SMOOTH",
"562 940 OFFCURVE",
"561 954 OFFCURVE",
"596 954 CURVE SMOOTH",
"620 954 OFFCURVE",
"625 943 OFFCURVE",
"625 937 CURVE SMOOTH",
"625 895 OFFCURVE",
"556 909 OFFCURVE",
"542 870 CURVE SMOOTH",
"533 845 LINE",
"533 831 OFFCURVE",
"559 829 OFFCURVE",
"567 829 CURVE SMOOTH",
"599 829 OFFCURVE",
"587 854 OFFCURVE",
"613 864 CURVE SMOOTH"
);
}
);
width = 656;
}
);
leftKerningGroup = A;
rightKerningGroup = A;
unicode = 1EB2;
},
{
glyphname = Abrevetilde;
lastChange = "2015-06-22 11:50:22 +0000";
layers = (
{
layerId = "647881E3-02F2-4150-93BB-7ED190F14AA3";
name = Regular;
paths = (
{
closed = 1;
nodes = (
"431 168 OFFCURVE",
"426 106 OFFCURVE",
"426 83 CURVE SMOOTH",
"426 15 OFFCURVE",
"436 -18 OFFCURVE",
"501 -18 CURVE SMOOTH",
"535 -18 OFFCURVE",
"560 16 OFFCURVE",
"564 45 CURVE",
"559 92 OFFCURVE",
"557 139 OFFCURVE",
"557 190 CURVE SMOOTH",
"557 333 OFFCURVE",
"576 477 OFFCURVE",
"592 615 CURVE",
"592 645 OFFCURVE",
"587 665 OFFCURVE",
"519 665 CURVE SMOOTH",
"476 665 OFFCURVE",
"432 640 OFFCURVE",
"406 608 CURVE SMOOTH",
"302 480 OFFCURVE",
"231 388 OFFCURVE",
"160 283 CURVE",
"127 268 OFFCURVE",
"69 240 OFFCURVE",
"69 213 CURVE SMOOTH",
"69 211 OFFCURVE",
"79 190 OFFCURVE",
"79 179 CURVE",
"11 99 OFFCURVE",
"-15 28 OFFCURVE",
"-17 28 CURVE",
"-17 11 OFFCURVE",
"15 -13 OFFCURVE",
"58 -13 CURVE SMOOTH",
"84 -13 OFFCURVE",
"100 2 OFFCURVE",
"124 26 CURVE SMOOTH",
"165 67 OFFCURVE",
"196 134 OFFCURVE",
"228 182 CURVE",
"304 200 OFFCURVE",
"364 210 OFFCURVE",
"437 222 CURVE"
);
},
{
closed = 1;
nodes = (
"368 388 OFFCURVE",
"426 474 OFFCURVE",
"463 518 CURVE",
"454 474 OFFCURVE",
"447 399 OFFCURVE",
"442 318 CURVE",
"378 307 OFFCURVE",
"333 303 OFFCURVE",
"307 297 CURVE"
);
},
{
closed = 1;
nodes = (
"642 711 OFFCURVE",
"728 754 OFFCURVE",
"742 853 CURVE",
"733 867 OFFCURVE",
"710 867 OFFCURVE",
"698 867 CURVE SMOOTH",
"688 867 OFFCURVE",
"673 861 OFFCURVE",
"664 853 CURVE",
"642 809 OFFCURVE",
"626 786 OFFCURVE",
"560 786 CURVE SMOOTH",
"509 786 OFFCURVE",
"501 799 OFFCURVE",
"500 822 CURVE SMOOTH",
"499 853 OFFCURVE",
"483 858 OFFCURVE",
"472 858 CURVE SMOOTH",
"426 858 OFFCURVE",
"419 827 OFFCURVE",
"419 803 CURVE SMOOTH",
"419 741 OFFCURVE",
"475 709 OFFCURVE",
"554 709 CURVE SMOOTH"
);
},
{
closed = 1;
nodes = (
"550 939 OFFCURVE",
"564 935 OFFCURVE",
"588 918 CURVE",
"616 902 OFFCURVE",
"633 892 OFFCURVE",
"663 892 CURVE SMOOTH",
"688 892 OFFCURVE",
"756 929 OFFCURVE",
"756 979 CURVE SMOOTH",
"756 984 OFFCURVE",
"755 986 OFFCURVE",
"754 986 CURVE SMOOTH",
"751 986 OFFCURVE",
"749 994 OFFCURVE",
"742 994 CURVE SMOOTH",
"741 994 OFFCURVE",
"737 993 OFFCURVE",
"734 991 CURVE",
"718 978 OFFCURVE",
"704 961 OFFCURVE",
"683 961 CURVE SMOOTH",
"663 961 OFFCURVE",
"649 967 OFFCURVE",
"626 983 CURVE SMOOTH",
"599 1002 OFFCURVE",
"573 1011 OFFCURVE",
"547 1011 CURVE SMOOTH",
"503 1011 OFFCURVE",
"437 973 OFFCURVE",
"437 939 CURVE SMOOTH",
"437 908 OFFCURVE",
"442 899 OFFCURVE",
"455 892 CURVE",
"484 920 OFFCURVE",
"511 939 OFFCURVE",
"532 939 CURVE SMOOTH"
);
}
);
width = 656;
}
);
leftKerningGroup = A;
rightKerningGroup = A;
unicode = 1EB4;
},
{
glyphname = Acaron;
lastChange = "2015-06-22 11:50:22 +0000";
layers = (
{
layerId = "647881E3-02F2-4150-93BB-7ED190F14AA3";
name = Regular;
paths = (
{
closed = 1;
nodes = (
"431 168 OFFCURVE",
"426 106 OFFCURVE",
"426 83 CURVE SMOOTH",
"426 15 OFFCURVE",
"436 -18 OFFCURVE",
"501 -18 CURVE SMOOTH",
"535 -18 OFFCURVE",
"560 16 OFFCURVE",
"564 45 CURVE",
"559 92 OFFCURVE",
"557 139 OFFCURVE",
"557 190 CURVE SMOOTH",
"557 333 OFFCURVE",
"576 477 OFFCURVE",
"592 615 CURVE",
"592 645 OFFCURVE",
"587 665 OFFCURVE",
"519 665 CURVE SMOOTH",
"476 665 OFFCURVE",
"432 640 OFFCURVE",
"406 608 CURVE SMOOTH",
"302 480 OFFCURVE",
"231 388 OFFCURVE",
"160 283 CURVE",
"127 268 OFFCURVE",
"69 240 OFFCURVE",
"69 213 CURVE SMOOTH",
"69 211 OFFCURVE",
"79 190 OFFCURVE",
"79 179 CURVE",
"11 99 OFFCURVE",
"-15 28 OFFCURVE",
"-17 28 CURVE",
"-17 11 OFFCURVE",
"15 -13 OFFCURVE",
"58 -13 CURVE SMOOTH",
"84 -13 OFFCURVE",
"100 2 OFFCURVE",
"124 26 CURVE SMOOTH",
"165 67 OFFCURVE",
"196 134 OFFCURVE",
"228 182 CURVE",
"304 200 OFFCURVE",
"364 210 OFFCURVE",
"437 222 CURVE"
);
},
{
closed = 1;
nodes = (
"368 388 OFFCURVE",
"426 474 OFFCURVE",
"463 518 CURVE",
"454 474 OFFCURVE",
"447 399 OFFCURVE",
"442 318 CURVE",
"378 307 OFFCURVE",
"333 303 OFFCURVE",
"307 297 CURVE"
);
},
{
closed = 1;
nodes = (
"571 713 OFFCURVE",
"583 718 OFFCURVE",
"592 725 CURVE SMOOTH",
"641 763 OFFCURVE",
"690 804 OFFCURVE",
"717 826 CURVE SMOOTH",
"737 843 OFFCURVE",
"738 854 OFFCURVE",
"738 866 CURVE SMOOTH",
"738 887 OFFCURVE",
"711 899 OFFCURVE",
"687 899 CURVE SMOOTH",
"668 899 OFFCURVE",
"628 866 OFFCURVE",
"557 805 CURVE",
"502 871 LINE SMOOTH",
"491 884 OFFCURVE",
"477 892 OFFCURVE",
"464 892 CURVE SMOOTH",
"437 892 OFFCURVE",
"412 875 OFFCURVE",
"412 853 CURVE SMOOTH",
"412 845 OFFCURVE",
"415 837 OFFCURVE",
"422 828 CURVE SMOOTH",
"473 762 LINE SMOOTH",
"506 719 OFFCURVE",
"522 713 OFFCURVE",
"547 713 CURVE SMOOTH"
);
}
);
width = 656;
}
);
leftKerningGroup = A;
rightKerningGroup = A;
unicode = 01CD;
},
{
glyphname = Acircumflex;
lastChange = "2015-06-22 11:50:22 +0000";
layers = (
{
layerId = "647881E3-02F2-4150-93BB-7ED190F14AA3";
name = Regular;
paths = (
{
closed = 1;
nodes = (
"431 168 OFFCURVE",
"426 106 OFFCURVE",
"426 83 CURVE SMOOTH",
"426 15 OFFCURVE",
"436 -18 OFFCURVE",
"501 -18 CURVE SMOOTH",
"535 -18 OFFCURVE",
"560 16 OFFCURVE",
"564 45 CURVE",
"559 92 OFFCURVE",
"557 139 OFFCURVE",
"557 190 CURVE SMOOTH",
"557 333 OFFCURVE",
"576 477 OFFCURVE",
"592 615 CURVE",
"592 645 OFFCURVE",
"587 665 OFFCURVE",
"519 665 CURVE SMOOTH",
"476 665 OFFCURVE",
"432 640 OFFCURVE",
"406 608 CURVE SMOOTH",
"302 480 OFFCURVE",
"231 388 OFFCURVE",
"160 283 CURVE",
"127 268 OFFCURVE",
"69 240 OFFCURVE",
"69 213 CURVE SMOOTH",
"69 211 OFFCURVE",
"79 190 OFFCURVE",
"79 179 CURVE",
"11 99 OFFCURVE",
"-15 28 OFFCURVE",
"-17 28 CURVE",
"-17 11 OFFCURVE",
"15 -13 OFFCURVE",
"58 -13 CURVE SMOOTH",
"84 -13 OFFCURVE",
"100 2 OFFCURVE",
"124 26 CURVE SMOOTH",
"165 67 OFFCURVE",
"196 134 OFFCURVE",
"228 182 CURVE",
"304 200 OFFCURVE",
"364 210 OFFCURVE",
"437 222 CURVE"
);
},
{
closed = 1;
nodes = (
"368 388 OFFCURVE",
"426 474 OFFCURVE",
"463 518 CURVE",
"454 474 OFFCURVE",
"447 399 OFFCURVE",
"442 318 CURVE",
"378 307 OFFCURVE",
"333 303 OFFCURVE",
"307 297 CURVE"
);
},
{
closed = 1;
nodes = (
"565 923 OFFCURVE",
"553 918 OFFCURVE",
"544 911 CURVE SMOOTH",
"495 873 OFFCURVE",
"446 832 OFFCURVE",
"419 810 CURVE SMOOTH",
"399 793 OFFCURVE",
"398 782 OFFCURVE",
"398 770 CURVE SMOOTH",
"398 749 OFFCURVE",
"425 737 OFFCURVE",
"449 737 CURVE SMOOTH",
"468 737 OFFCURVE",
"508 770 OFFCURVE",
"579 831 CURVE",
"634 765 LINE SMOOTH",
"645 752 OFFCURVE",
"659 744 OFFCURVE",
"672 744 CURVE SMOOTH",
"699 744 OFFCURVE",
"724 761 OFFCURVE",
"724 783 CURVE SMOOTH",
"724 791 OFFCURVE",
"721 799 OFFCURVE",
"714 808 CURVE SMOOTH",
"663 874 LINE SMOOTH",
"630 917 OFFCURVE",
"614 923 OFFCURVE",
"589 923 CURVE SMOOTH"
);
}
);
width = 656;
}
);
leftKerningGroup = A;
rightKerningGroup = A;
unicode = 00C2;
},
{
glyphname = Acircumflexacute;
lastChange = "2015-06-22 11:50:22 +0000";
layers = (
{
layerId = "647881E3-02F2-4150-93BB-7ED190F14AA3";
name = Regular;
paths = (
{
closed = 1;
nodes = (
"431 168 OFFCURVE",
"426 106 OFFCURVE",
"426 83 CURVE SMOOTH",
"426 15 OFFCURVE",
"436 -18 OFFCURVE",
"501 -18 CURVE SMOOTH",
"535 -18 OFFCURVE",
"560 16 OFFCURVE",
"564 45 CURVE",
"559 92 OFFCURVE",
"557 139 OFFCURVE",
"557 190 CURVE SMOOTH",
"557 333 OFFCURVE",
"576 477 OFFCURVE",
"592 615 CURVE",
"592 645 OFFCURVE",
"587 665 OFFCURVE",
"519 665 CURVE SMOOTH",
"476 665 OFFCURVE",
"432 640 OFFCURVE",
"406 608 CURVE SMOOTH",
"302 480 OFFCURVE",
"231 388 OFFCURVE",
"160 283 CURVE",
"127 268 OFFCURVE",
"69 240 OFFCURVE",
"69 213 CURVE SMOOTH",
"69 211 OFFCURVE",
"79 190 OFFCURVE",
"79 179 CURVE",
"11 99 OFFCURVE",
"-15 28 OFFCURVE",
"-17 28 CURVE",
"-17 11 OFFCURVE",
"15 -13 OFFCURVE",
"58 -13 CURVE SMOOTH",
"84 -13 OFFCURVE",
"100 2 OFFCURVE",
"124 26 CURVE SMOOTH",
"165 67 OFFCURVE",
"196 134 OFFCURVE",
"228 182 CURVE",
"304 200 OFFCURVE",
"364 210 OFFCURVE",
"437 222 CURVE"
);
},
{
closed = 1;
nodes = (
"368 388 OFFCURVE",
"426 474 OFFCURVE",
"463 518 CURVE",
"454 474 OFFCURVE",
"447 399 OFFCURVE",
"442 318 CURVE",
"378 307 OFFCURVE",
"333 303 OFFCURVE",
"307 297 CURVE"
);
},
{
closed = 1;
nodes = (
"556 888 OFFCURVE",
"544 883 OFFCURVE",
"535 876 CURVE SMOOTH",
"486 838 OFFCURVE",
"437 797 OFFCURVE",
"410 775 CURVE SMOOTH",
"390 758 OFFCURVE",
"389 747 OFFCURVE",
"389 735 CURVE SMOOTH",
"389 714 OFFCURVE",
"416 702 OFFCURVE",
"440 702 CURVE SMOOTH",
"459 702 OFFCURVE",
"499 735 OFFCURVE",
"570 796 CURVE",
"625 730 LINE SMOOTH",
"636 717 OFFCURVE",
"650 709 OFFCURVE",
"663 709 CURVE SMOOTH",
"690 709 OFFCURVE",
"715 726 OFFCURVE",
"715 748 CURVE SMOOTH",
"715 756 OFFCURVE",
"712 764 OFFCURVE",
"705 773 CURVE SMOOTH",
"654 839 LINE SMOOTH",
"621 882 OFFCURVE",
"605 888 OFFCURVE",
"580 888 CURVE SMOOTH"
);
},
{
closed = 1;
nodes = (
"684 859 OFFCURVE",
"683 856 OFFCURVE",
"683 853 CURVE SMOOTH",
"683 836 OFFCURVE",
"691 831 OFFCURVE",
"709 831 CURVE SMOOTH",
"735 831 OFFCURVE",
"752 850 OFFCURVE",
"805 887 CURVE SMOOTH",
"842 912 OFFCURVE",
"855 922 OFFCURVE",
"855 935 CURVE SMOOTH",
"855 950 OFFCURVE",
"799 972 OFFCURVE",
"780 972 CURVE SMOOTH",
"763 972 OFFCURVE",
"705 891 OFFCURVE",
"685 861 CURVE"
);
}
);
width = 656;
}
);
leftKerningGroup = A;
rightKerningGroup = A;
unicode = 1EA4;
},
{
glyphname = Acircumflexdotbelow;
lastChange = "2015-06-22 11:50:22 +0000";
layers = (
{
layerId = "647881E3-02F2-4150-93BB-7ED190F14AA3";
name = Regular;
paths = (
{
closed = 1;
nodes = (
"431 168 OFFCURVE",
"426 106 OFFCURVE",
"426 83 CURVE SMOOTH",
"426 15 OFFCURVE",
"436 -18 OFFCURVE",
"501 -18 CURVE SMOOTH",
"535 -18 OFFCURVE",
"560 16 OFFCURVE",
"564 45 CURVE",
"559 92 OFFCURVE",
"557 139 OFFCURVE",
"557 190 CURVE SMOOTH",
"557 333 OFFCURVE",
"576 477 OFFCURVE",
"592 615 CURVE",
"592 645 OFFCURVE",
"587 665 OFFCURVE",
"519 665 CURVE SMOOTH",
"476 665 OFFCURVE",
"432 640 OFFCURVE",
"406 608 CURVE SMOOTH",
"302 480 OFFCURVE",
"231 388 OFFCURVE",
"160 283 CURVE",
"127 268 OFFCURVE",
"69 240 OFFCURVE",
"69 213 CURVE SMOOTH",
"69 211 OFFCURVE",
"79 190 OFFCURVE",
"79 179 CURVE",
"11 99 OFFCURVE",
"-15 28 OFFCURVE",
"-17 28 CURVE",
"-17 11 OFFCURVE",
"15 -13 OFFCURVE",
"58 -13 CURVE SMOOTH",
"84 -13 OFFCURVE",
"100 2 OFFCURVE",
"124 26 CURVE SMOOTH",
"165 67 OFFCURVE",
"196 134 OFFCURVE",
"228 182 CURVE",
"304 200 OFFCURVE",
"364 210 OFFCURVE",
"437 222 CURVE"
);
},
{
closed = 1;
nodes = (
"368 388 OFFCURVE",
"426 474 OFFCURVE",
"463 518 CURVE",
"454 474 OFFCURVE",
"447 399 OFFCURVE",
"442 318 CURVE",
"378 307 OFFCURVE",
"333 303 OFFCURVE",
"307 297 CURVE"
);
},
{
closed = 1;
nodes = (
"556 888 OFFCURVE",
"544 883 OFFCURVE",
"535 876 CURVE SMOOTH",
"486 838 OFFCURVE",
"437 797 OFFCURVE",
"410 775 CURVE SMOOTH",
"390 758 OFFCURVE",
"389 747 OFFCURVE",
"389 735 CURVE SMOOTH",
"389 714 OFFCURVE",
"416 702 OFFCURVE",
"440 702 CURVE SMOOTH",
"459 702 OFFCURVE",
"499 735 OFFCURVE",
"570 796 CURVE",
"625 730 LINE SMOOTH",
"636 717 OFFCURVE",
"650 709 OFFCURVE",
"663 709 CURVE SMOOTH",
"690 709 OFFCURVE",
"715 726 OFFCURVE",
"715 748 CURVE SMOOTH",
"715 756 OFFCURVE",
"712 764 OFFCURVE",
"705 773 CURVE SMOOTH",
"654 839 LINE SMOOTH",
"621 882 OFFCURVE",
"605 888 OFFCURVE",
"580 888 CURVE SMOOTH"
);
},
{
closed = 1;
nodes = (
"293 -215 OFFCURVE",
"336 -182 OFFCURVE",
"336 -139 CURVE SMOOTH",
"336 -107 OFFCURVE",
"305 -71 OFFCURVE",
"271 -71 CURVE SMOOTH",
"228 -71 OFFCURVE",
"181 -108 OFFCURVE",
"181 -155 CURVE SMOOTH",
"181 -186 OFFCURVE",
"216 -215 OFFCURVE",
"246 -215 CURVE SMOOTH"
);
}
);
width = 656;
}
);
leftKerningGroup = A;
rightKerningGroup = A;
unicode = 1EAC;
},
{
glyphname = Acircumflexgrave;
lastChange = "2015-06-22 11:50:22 +0000";
layers = (
{
layerId = "647881E3-02F2-4150-93BB-7ED190F14AA3";
name = Regular;
paths = (
{
closed = 1;
nodes = (
"431 168 OFFCURVE",
"426 106 OFFCURVE",
"426 83 CURVE SMOOTH",
"426 15 OFFCURVE",
"436 -18 OFFCURVE",
"501 -18 CURVE SMOOTH",
"535 -18 OFFCURVE",
"560 16 OFFCURVE",
"564 45 CURVE",
"559 92 OFFCURVE",
"557 139 OFFCURVE",
"557 190 CURVE SMOOTH",
"557 333 OFFCURVE",
"576 477 OFFCURVE",
"592 615 CURVE",
"592 645 OFFCURVE",
"587 665 OFFCURVE",
"519 665 CURVE SMOOTH",
"476 665 OFFCURVE",
"432 640 OFFCURVE",
"406 608 CURVE SMOOTH",
"302 480 OFFCURVE",
"231 388 OFFCURVE",
"160 283 CURVE",
"127 268 OFFCURVE",
"69 240 OFFCURVE",
"69 213 CURVE SMOOTH",
"69 211 OFFCURVE",
"79 190 OFFCURVE",
"79 179 CURVE",
"11 99 OFFCURVE",
"-15 28 OFFCURVE",
"-17 28 CURVE",
"-17 11 OFFCURVE",
"15 -13 OFFCURVE",
"58 -13 CURVE SMOOTH",
"84 -13 OFFCURVE",
"100 2 OFFCURVE",
"124 26 CURVE SMOOTH",
"165 67 OFFCURVE",
"196 134 OFFCURVE",
"228 182 CURVE",
"304 200 OFFCURVE",
"364 210 OFFCURVE",
"437 222 CURVE"
);
},
{
closed = 1;
nodes = (
"368 388 OFFCURVE",
"426 474 OFFCURVE",
"463 518 CURVE",
"454 474 OFFCURVE",
"447 399 OFFCURVE",
"442 318 CURVE",
"378 307 OFFCURVE",
"333 303 OFFCURVE",
"307 297 CURVE"
);
},
{
closed = 1;
nodes = (
"556 888 OFFCURVE",
"544 883 OFFCURVE",
"535 876 CURVE SMOOTH",
"486 838 OFFCURVE",
"437 797 OFFCURVE",
"410 775 CURVE SMOOTH",
"390 758 OFFCURVE",
"389 747 OFFCURVE",
"389 735 CURVE SMOOTH",
"389 714 OFFCURVE",
"416 702 OFFCURVE",
"440 702 CURVE SMOOTH",
"459 702 OFFCURVE",
"499 735 OFFCURVE",
"570 796 CURVE",
"625 730 LINE SMOOTH",
"636 717 OFFCURVE",
"650 709 OFFCURVE",
"663 709 CURVE SMOOTH",
"690 709 OFFCURVE",
"715 726 OFFCURVE",
"715 748 CURVE SMOOTH",
"715 756 OFFCURVE",
"712 764 OFFCURVE",
"705 773 CURVE SMOOTH",
"654 839 LINE SMOOTH",
"621 882 OFFCURVE",
"605 888 OFFCURVE",
"580 888 CURVE SMOOTH"
);
},
{
closed = 1;
nodes = (
"410 891 OFFCURVE",
"352 972 OFFCURVE",
"335 972 CURVE SMOOTH",
"316 972 OFFCURVE",
"260 950 OFFCURVE",
"260 935 CURVE SMOOTH",
"260 922 OFFCURVE",
"273 912 OFFCURVE",
"310 887 CURVE SMOOTH",
"363 850 OFFCURVE",
"380 831 OFFCURVE",
"406 831 CURVE SMOOTH",
"424 831 OFFCURVE",
"432 836 OFFCURVE",
"432 853 CURVE SMOOTH",
"432 856 OFFCURVE",
"431 859 OFFCURVE",
"430 861 CURVE"
);
}
);
width = 656;
}
);
leftKerningGroup = A;
rightKerningGroup = A;
unicode = 1EA6;
},
{
glyphname = Acircumflexhookabove;
lastChange = "2015-06-22 11:50:22 +0000";
layers = (
{
layerId = "647881E3-02F2-4150-93BB-7ED190F14AA3";
name = Regular;
paths = (
{
closed = 1;
nodes = (
"431 168 OFFCURVE",
"426 106 OFFCURVE",
"426 83 CURVE SMOOTH",
"426 15 OFFCURVE",
"436 -18 OFFCURVE",
"501 -18 CURVE SMOOTH",
"535 -18 OFFCURVE",
"560 16 OFFCURVE",
"564 45 CURVE",
"559 92 OFFCURVE",
"557 139 OFFCURVE",
"557 190 CURVE SMOOTH",
"557 333 OFFCURVE",
"576 477 OFFCURVE",
"592 615 CURVE",
"592 645 OFFCURVE",
"587 665 OFFCURVE",
"519 665 CURVE SMOOTH",
"476 665 OFFCURVE",
"432 640 OFFCURVE",
"406 608 CURVE SMOOTH",
"302 480 OFFCURVE",
"231 388 OFFCURVE",
"160 283 CURVE",
"127 268 OFFCURVE",
"69 240 OFFCURVE",
"69 213 CURVE SMOOTH",
"69 211 OFFCURVE",
"79 190 OFFCURVE",
"79 179 CURVE",
"11 99 OFFCURVE",
"-15 28 OFFCURVE",
"-17 28 CURVE",
"-17 11 OFFCURVE",
"15 -13 OFFCURVE",
"58 -13 CURVE SMOOTH",
"84 -13 OFFCURVE",
"100 2 OFFCURVE",
"124 26 CURVE SMOOTH",
"165 67 OFFCURVE",
"196 134 OFFCURVE",
"228 182 CURVE",
"304 200 OFFCURVE",
"364 210 OFFCURVE",
"437 222 CURVE"
);
},
{
closed = 1;
nodes = (
"368 388 OFFCURVE",
"426 474 OFFCURVE",
"463 518 CURVE",
"454 474 OFFCURVE",
"447 399 OFFCURVE",
"442 318 CURVE",
"378 307 OFFCURVE",
"333 303 OFFCURVE",
"307 297 CURVE"
);
},
{
closed = 1;
nodes = (
"556 888 OFFCURVE",
"544 883 OFFCURVE",
"535 876 CURVE SMOOTH",
"486 838 OFFCURVE",
"437 797 OFFCURVE",
"410 775 CURVE SMOOTH",
"390 758 OFFCURVE",
"389 747 OFFCURVE",
"389 735 CURVE SMOOTH",
"389 714 OFFCURVE",
"416 702 OFFCURVE",
"440 702 CURVE SMOOTH",
"459 702 OFFCURVE",
"499 735 OFFCURVE",
"570 796 CURVE",
"625 730 LINE SMOOTH",
"636 717 OFFCURVE",
"650 709 OFFCURVE",
"663 709 CURVE SMOOTH",
"690 709 OFFCURVE",
"715 726 OFFCURVE",
"715 748 CURVE SMOOTH",
"715 756 OFFCURVE",
"712 764 OFFCURVE",
"705 773 CURVE SMOOTH",
"654 839 LINE SMOOTH",
"621 882 OFFCURVE",
"605 888 OFFCURVE",
"580 888 CURVE SMOOTH"
);
},
{
closed = 1;
nodes = (
"771 862 OFFCURVE",
"767 881 OFFCURVE",
"796 892 CURVE SMOOTH",
"829 905 OFFCURVE",
"866 927 OFFCURVE",
"866 972 CURVE SMOOTH",
"866 1014 OFFCURVE",
"820 1032 OFFCURVE",
"779 1032 CURVE SMOOTH",
"743 1032 OFFCURVE",
"692 1025 OFFCURVE",
"692 991 CURVE SMOOTH",
"692 979 OFFCURVE",
"701 966 OFFCURVE",
"712 966 CURVE SMOOTH",
"734 966 OFFCURVE",
"733 980 OFFCURVE",
"768 980 CURVE SMOOTH",
"792 980 OFFCURVE",
"797 969 OFFCURVE",
"797 963 CURVE SMOOTH",
"797 921 OFFCURVE",
"725 936 OFFCURVE",
"714 896 CURVE SMOOTH",
"702 852 OFFCURVE",
"701 845 OFFCURVE",
"701 844 CURVE SMOOTH",
"701 834 OFFCURVE",
"712 828 OFFCURVE",
"729 828 CURVE SMOOTH",
"749 828 OFFCURVE",
"760 840 OFFCURVE",
"765 850 CURVE SMOOTH"
);
}
);
width = 656;
}
);
leftKerningGroup = A;
rightKerningGroup = A;
unicode = 1EA8;
},
{
glyphname = Acircumflextilde;
lastChange = "2015-06-22 11:50:22 +0000";
layers = (
{
layerId = "647881E3-02F2-4150-93BB-7ED190F14AA3";
name = Regular;
paths = (
{
closed = 1;
nodes = (
"431 168 OFFCURVE",
"426 106 OFFCURVE",
"426 83 CURVE SMOOTH",
"426 15 OFFCURVE",
"436 -18 OFFCURVE",
"501 -18 CURVE SMOOTH",
"535 -18 OFFCURVE",
"560 16 OFFCURVE",
"564 45 CURVE",
"559 92 OFFCURVE",
"557 139 OFFCURVE",
"557 190 CURVE SMOOTH",
"557 333 OFFCURVE",
"576 477 OFFCURVE",
"592 615 CURVE",
"592 645 OFFCURVE",
"587 665 OFFCURVE",
"519 665 CURVE SMOOTH",
"476 665 OFFCURVE",
"432 640 OFFCURVE",
"406 608 CURVE SMOOTH",
"302 480 OFFCURVE",
"231 388 OFFCURVE",
"160 283 CURVE",
"127 268 OFFCURVE",
"69 240 OFFCURVE",
"69 213 CURVE SMOOTH",
"69 211 OFFCURVE",
"79 190 OFFCURVE",
"79 179 CURVE",
"11 99 OFFCURVE",
"-15 28 OFFCURVE",
"-17 28 CURVE",
"-17 11 OFFCURVE",
"15 -13 OFFCURVE",
"58 -13 CURVE SMOOTH",
"84 -13 OFFCURVE",
"100 2 OFFCURVE",
"124 26 CURVE SMOOTH",
"165 67 OFFCURVE",
"196 134 OFFCURVE",
"228 182 CURVE",
"304 200 OFFCURVE",
"364 210 OFFCURVE",
"437 222 CURVE"
);
},
{
closed = 1;
nodes = (
"368 388 OFFCURVE",
"426 474 OFFCURVE",
"463 518 CURVE",
"454 474 OFFCURVE",
"447 399 OFFCURVE",
"442 318 CURVE",
"378 307 OFFCURVE",
"333 303 OFFCURVE",
"307 297 CURVE"
);
},
{
closed = 1;
nodes = (
"556 888 OFFCURVE",
"544 883 OFFCURVE",
"535 876 CURVE SMOOTH",
"486 838 OFFCURVE",
"437 797 OFFCURVE",
"410 775 CURVE SMOOTH",
"390 758 OFFCURVE",
"389 747 OFFCURVE",
"389 735 CURVE SMOOTH",
"389 714 OFFCURVE",
"416 702 OFFCURVE",
"440 702 CURVE SMOOTH",
"459 702 OFFCURVE",
"499 735 OFFCURVE",
"570 796 CURVE",
"625 730 LINE SMOOTH",
"636 717 OFFCURVE",
"650 709 OFFCURVE",
"663 709 CURVE SMOOTH",
"690 709 OFFCURVE",
"715 726 OFFCURVE",
"715 748 CURVE SMOOTH",
"715 756 OFFCURVE",
"712 764 OFFCURVE",
"705 773 CURVE SMOOTH",
"654 839 LINE SMOOTH",
"621 882 OFFCURVE",
"605 888 OFFCURVE",
"580 888 CURVE SMOOTH"
);
},
{
closed = 1;
nodes = (
"567 962 OFFCURVE",
"581 958 OFFCURVE",
"605 941 CURVE",
"633 925 OFFCURVE",
"650 915 OFFCURVE",
"680 915 CURVE SMOOTH",
"705 915 OFFCURVE",
"773 952 OFFCURVE",
"773 1002 CURVE SMOOTH",
"773 1007 OFFCURVE",
"772 1009 OFFCURVE",
"771 1009 CURVE SMOOTH",
"768 1009 OFFCURVE",
"766 1017 OFFCURVE",
"759 1017 CURVE SMOOTH",
"758 1017 OFFCURVE",
"754 1016 OFFCURVE",
"751 1014 CURVE",
"735 1001 OFFCURVE",
"721 984 OFFCURVE",
"700 984 CURVE SMOOTH",
"680 984 OFFCURVE",
"666 990 OFFCURVE",
"643 1006 CURVE SMOOTH",
"616 1025 OFFCURVE",
"590 1034 OFFCURVE",
"564 1034 CURVE SMOOTH",
"520 1034 OFFCURVE",
"454 996 OFFCURVE",
"454 962 CURVE SMOOTH",
"454 931 OFFCURVE",
"459 922 OFFCURVE",
"472 915 CURVE",
"501 943 OFFCURVE",
"528 962 OFFCURVE",
"549 962 CURVE SMOOTH"
);
}
);
width = 656;
}
);
leftKerningGroup = A;
rightKerningGroup = A;
unicode = 1EAA;
},
{
glyphname = Adblgrave;
lastChange = "2015-06-22 11:50:22 +0000";
layers = (
{
layerId = "647881E3-02F2-4150-93BB-7ED190F14AA3";
name = Regular;
paths = (
{
closed = 1;
nodes = (
"431 168 OFFCURVE",
"426 106 OFFCURVE",
"426 83 CURVE SMOOTH",
"426 15 OFFCURVE",
"436 -18 OFFCURVE",
"501 -18 CURVE SMOOTH",
"535 -18 OFFCURVE",
"560 16 OFFCURVE",
"564 45 CURVE",
"559 92 OFFCURVE",
"557 139 OFFCURVE",
"557 190 CURVE SMOOTH",
"557 333 OFFCURVE",
"576 477 OFFCURVE",
"592 615 CURVE",
"592 645 OFFCURVE",
"587 665 OFFCURVE",
"519 665 CURVE SMOOTH",
"476 665 OFFCURVE",
"432 640 OFFCURVE",
"406 608 CURVE SMOOTH",
"302 480 OFFCURVE",
"231 388 OFFCURVE",
"160 283 CURVE",
"127 268 OFFCURVE",
"69 240 OFFCURVE",
"69 213 CURVE SMOOTH",
"69 211 OFFCURVE",
"79 190 OFFCURVE",
"79 179 CURVE",
"11 99 OFFCURVE",
"-15 28 OFFCURVE",
"-17 28 CURVE",
"-17 11 OFFCURVE",
"15 -13 OFFCURVE",
"58 -13 CURVE SMOOTH",
"84 -13 OFFCURVE",
"100 2 OFFCURVE",
"124 26 CURVE SMOOTH",
"165 67 OFFCURVE",
"196 134 OFFCURVE",
"228 182 CURVE",
"304 200 OFFCURVE",
"364 210 OFFCURVE",
"437 222 CURVE"
);
},
{
closed = 1;
nodes = (
"368 388 OFFCURVE",
"426 474 OFFCURVE",
"463 518 CURVE",
"454 474 OFFCURVE",
"447 399 OFFCURVE",
"442 318 CURVE",
"378 307 OFFCURVE",
"333 303 OFFCURVE",
"307 297 CURVE"
);
},
{
closed = 1;
nodes = (
"518 757 OFFCURVE",
"516 765 OFFCURVE",
"512 774 CURVE SMOOTH",
"494 815 OFFCURVE",
"451 906 OFFCURVE",
"401 906 CURVE SMOOTH",
"370 906 OFFCURVE",
"355 864 OFFCURVE",
"355 839 CURVE SMOOTH",
"355 820 OFFCURVE",
"367 815 OFFCURVE",
"378 811 CURVE SMOOTH",
"427 795 OFFCURVE",
"461 719 OFFCURVE",
"494 708 CURVE",
"495 708 OFFCURVE",
"497 707 OFFCURVE",
"498 707 CURVE SMOOTH",
"513 707 OFFCURVE",
"518 738 OFFCURVE",
"518 748 CURVE SMOOTH"
);
},
{
closed = 1;
nodes = (
"693 757 OFFCURVE",
"691 765 OFFCURVE",
"687 774 CURVE SMOOTH",
"669 815 OFFCURVE",
"626 906 OFFCURVE",
"576 906 CURVE SMOOTH",
"545 906 OFFCURVE",
"530 864 OFFCURVE",
"530 839 CURVE SMOOTH",
"530 820 OFFCURVE",
"542 815 OFFCURVE",
"553 811 CURVE SMOOTH",
"602 795 OFFCURVE",
"636 719 OFFCURVE",
"669 708 CURVE",
"670 708 OFFCURVE",
"672 707 OFFCURVE",
"673 707 CURVE SMOOTH",
"688 707 OFFCURVE",
"693 738 OFFCURVE",
"693 748 CURVE SMOOTH"
);
}
);
width = 656;
}
);
leftKerningGroup = A;
rightKerningGroup = A;
unicode = 0200;
},
{
glyphname = Adieresis;
lastChange = "2015-06-22 11:50:22 +0000";
layers = (
{
layerId = "647881E3-02F2-4150-93BB-7ED190F14AA3";
name = Regular;
paths = (
{
closed = 1;
nodes = (
"431 168 OFFCURVE",
"426 106 OFFCURVE",
"426 83 CURVE SMOOTH",
"426 15 OFFCURVE",
"436 -18 OFFCURVE",
"501 -18 CURVE SMOOTH",
"535 -18 OFFCURVE",
"560 16 OFFCURVE",
"564 45 CURVE",
"559 92 OFFCURVE",
"557 139 OFFCURVE",
"557 190 CURVE SMOOTH",
"557 333 OFFCURVE",
"576 477 OFFCURVE",
"592 615 CURVE",
"592 645 OFFCURVE",
"587 665 OFFCURVE",
"519 665 CURVE SMOOTH",
"476 665 OFFCURVE",
"432 640 OFFCURVE",
"406 608 CURVE SMOOTH",
"302 480 OFFCURVE",
"231 388 OFFCURVE",
"160 283 CURVE",
"127 268 OFFCURVE",
"69 240 OFFCURVE",
"69 213 CURVE SMOOTH",
"69 211 OFFCURVE",
"79 190 OFFCURVE",
"79 179 CURVE",
"11 99 OFFCURVE",
"-15 28 OFFCURVE",
"-17 28 CURVE",
"-17 11 OFFCURVE",
"15 -13 OFFCURVE",
"58 -13 CURVE SMOOTH",
"84 -13 OFFCURVE",
"100 2 OFFCURVE",
"124 26 CURVE SMOOTH",
"165 67 OFFCURVE",
"196 134 OFFCURVE",
"228 182 CURVE",
"304 200 OFFCURVE",
"364 210 OFFCURVE",
"437 222 CURVE"
);
},
{
closed = 1;
nodes = (
"368 388 OFFCURVE",
"426 474 OFFCURVE",
"463 518 CURVE",
"454 474 OFFCURVE",
"447 399 OFFCURVE",
"442 318 CURVE",
"378 307 OFFCURVE",
"333 303 OFFCURVE",
"307 297 CURVE"
);
},
{
closed = 1;
nodes = (
"473 714 OFFCURVE",
"516 747 OFFCURVE",
"516 790 CURVE SMOOTH",
"516 822 OFFCURVE",
"485 858 OFFCURVE",
"451 858 CURVE SMOOTH",
"408 858 OFFCURVE",
"361 821 OFFCURVE",
"361 774 CURVE SMOOTH",
"361 743 OFFCURVE",
"396 714 OFFCURVE",
"426 714 CURVE SMOOTH"
);
},
{
closed = 1;
nodes = (
"701 718 OFFCURVE",
"743 753 OFFCURVE",
"743 796 CURVE SMOOTH",
"743 828 OFFCURVE",
"705 860 OFFCURVE",
"671 860 CURVE SMOOTH",
"628 860 OFFCURVE",
"585 828 OFFCURVE",
"585 780 CURVE SMOOTH",
"585 750 OFFCURVE",
"624 718 OFFCURVE",
"654 718 CURVE SMOOTH"
);
}
);
width = 656;
}
);
leftKerningGroup = A;
rightKerningGroup = A;
unicode = 00C4;
},
{
glyphname = Adotbelow;
lastChange = "2015-06-22 11:50:22 +0000";
layers = (
{
layerId = "647881E3-02F2-4150-93BB-7ED190F14AA3";
name = Regular;
paths = (
{
closed = 1;
nodes = (
"431 168 OFFCURVE",
"426 106 OFFCURVE",
"426 83 CURVE SMOOTH",
"426 15 OFFCURVE",
"436 -18 OFFCURVE",
"501 -18 CURVE SMOOTH",
"535 -18 OFFCURVE",
"560 16 OFFCURVE",
"564 45 CURVE",
"559 92 OFFCURVE",
"557 139 OFFCURVE",
"557 190 CURVE SMOOTH",
"557 333 OFFCURVE",
"576 477 OFFCURVE",
"592 615 CURVE",
"592 645 OFFCURVE",
"587 665 OFFCURVE",
"519 665 CURVE SMOOTH",
"476 665 OFFCURVE",
"432 640 OFFCURVE",
"406 608 CURVE SMOOTH",
"302 480 OFFCURVE",
"231 388 OFFCURVE",
"160 283 CURVE",
"127 268 OFFCURVE",
"69 240 OFFCURVE",
"69 213 CURVE SMOOTH",
"69 211 OFFCURVE",
"79 190 OFFCURVE",
"79 179 CURVE",
"11 99 OFFCURVE",
"-15 28 OFFCURVE",
"-17 28 CURVE",
"-17 11 OFFCURVE",
"15 -13 OFFCURVE",
"58 -13 CURVE SMOOTH",
"84 -13 OFFCURVE",
"100 2 OFFCURVE",
"124 26 CURVE SMOOTH",
"165 67 OFFCURVE",
"196 134 OFFCURVE",
"228 182 CURVE",
"304 200 OFFCURVE",
"364 210 OFFCURVE",
"437 222 CURVE"
);
},
{
closed = 1;
nodes = (
"368 388 OFFCURVE",
"426 474 OFFCURVE",
"463 518 CURVE",
"454 474 OFFCURVE",
"447 399 OFFCURVE",
"442 318 CURVE",
"378 307 OFFCURVE",
"333 303 OFFCURVE",
"307 297 CURVE"
);
},
{
closed = 1;
nodes = (
"293 -215 OFFCURVE",
"336 -182 OFFCURVE",
"336 -139 CURVE SMOOTH",
"336 -107 OFFCURVE",
"305 -71 OFFCURVE",
"271 -71 CURVE SMOOTH",
"228 -71 OFFCURVE",
"181 -108 OFFCURVE",
"181 -155 CURVE SMOOTH",
"181 -186 OFFCURVE",
"216 -215 OFFCURVE",
"246 -215 CURVE SMOOTH"
);
}
);
width = 656;
}
);
leftKerningGroup = A;
rightKerningGroup = A;
unicode = 1EA0;
},
{
glyphname = Agrave;
lastChange = "2015-06-22 11:50:22 +0000";
layers = (
{
layerId = "647881E3-02F2-4150-93BB-7ED190F14AA3";
name = Regular;
paths = (
{
closed = 1;
nodes = (
"431 168 OFFCURVE",
"426 106 OFFCURVE",
"426 83 CURVE SMOOTH",
"426 15 OFFCURVE",
"436 -18 OFFCURVE",
"501 -18 CURVE SMOOTH",
"535 -18 OFFCURVE",
"560 16 OFFCURVE",
"564 45 CURVE",
"559 92 OFFCURVE",
"557 139 OFFCURVE",
"557 190 CURVE SMOOTH",
"557 333 OFFCURVE",
"576 477 OFFCURVE",
"592 615 CURVE",
"592 645 OFFCURVE",
"587 665 OFFCURVE",
"519 665 CURVE SMOOTH",
"476 665 OFFCURVE",
"432 640 OFFCURVE",
"406 608 CURVE SMOOTH",
"302 480 OFFCURVE",
"231 388 OFFCURVE",
"160 283 CURVE",
"127 268 OFFCURVE",
"69 240 OFFCURVE",
"69 213 CURVE SMOOTH",
"69 211 OFFCURVE",
"79 190 OFFCURVE",
"79 179 CURVE",
"11 99 OFFCURVE",
"-15 28 OFFCURVE",
"-17 28 CURVE",
"-17 11 OFFCURVE",
"15 -13 OFFCURVE",
"58 -13 CURVE SMOOTH",
"84 -13 OFFCURVE",
"100 2 OFFCURVE",
"124 26 CURVE SMOOTH",
"165 67 OFFCURVE",
"196 134 OFFCURVE",
"228 182 CURVE",
"304 200 OFFCURVE",
"364 210 OFFCURVE",
"437 222 CURVE"
);
},
{
closed = 1;
nodes = (
"368 388 OFFCURVE",
"426 474 OFFCURVE",
"463 518 CURVE",
"454 474 OFFCURVE",
"447 399 OFFCURVE",
"442 318 CURVE",
"378 307 OFFCURVE",
"333 303 OFFCURVE",
"307 297 CURVE"
);
},
{
closed = 1;
nodes = (
"586 799 OFFCURVE",
"457 912 OFFCURVE",
"433 912 CURVE SMOOTH",
"406 912 OFFCURVE",
"358 879 OFFCURVE",
"358 858 CURVE SMOOTH",
"358 839 OFFCURVE",
"377 825 OFFCURVE",
"429 789 CURVE SMOOTH",
"505 736 OFFCURVE",
"543 713 OFFCURVE",
"580 713 CURVE SMOOTH",
"605 713 OFFCURVE",
"617 721 OFFCURVE",
"617 744 CURVE SMOOTH",
"617 749 OFFCURVE",
"616 753 OFFCURVE",
"614 756 CURVE SMOOTH"
);
}
);
width = 656;
}
);
leftKerningGroup = A;
rightKerningGroup = A;
unicode = 00C0;
},
{
glyphname = Ahookabove;
lastChange = "2015-06-22 11:50:22 +0000";
layers = (
{
layerId = "647881E3-02F2-4150-93BB-7ED190F14AA3";
name = Regular;
paths = (
{
closed = 1;
nodes = (
"431 168 OFFCURVE",
"426 106 OFFCURVE",
"426 83 CURVE SMOOTH",
"426 15 OFFCURVE",
"436 -18 OFFCURVE",
"501 -18 CURVE SMOOTH",
"535 -18 OFFCURVE",
"560 16 OFFCURVE",
"564 45 CURVE",
"559 92 OFFCURVE",
"557 139 OFFCURVE",
"557 190 CURVE SMOOTH",
"557 333 OFFCURVE",
"576 477 OFFCURVE",
"592 615 CURVE",
"592 645 OFFCURVE",
"587 665 OFFCURVE",
"519 665 CURVE SMOOTH",
"476 665 OFFCURVE",
"432 640 OFFCURVE",
"406 608 CURVE SMOOTH",
"302 480 OFFCURVE",
"231 388 OFFCURVE",
"160 283 CURVE",
"127 268 OFFCURVE",
"69 240 OFFCURVE",
"69 213 CURVE SMOOTH",
"69 211 OFFCURVE",
"79 190 OFFCURVE",
"79 179 CURVE",
"11 99 OFFCURVE",
"-15 28 OFFCURVE",
"-17 28 CURVE",
"-17 11 OFFCURVE",
"15 -13 OFFCURVE",
"58 -13 CURVE SMOOTH",
"84 -13 OFFCURVE",
"100 2 OFFCURVE",
"124 26 CURVE SMOOTH",
"165 67 OFFCURVE",
"196 134 OFFCURVE",
"228 182 CURVE",
"304 200 OFFCURVE",
"364 210 OFFCURVE",
"437 222 CURVE"
);
},
{
closed = 1;
nodes = (
"368 388 OFFCURVE",
"426 474 OFFCURVE",
"463 518 CURVE",
"454 474 OFFCURVE",
"447 399 OFFCURVE",
"442 318 CURVE",
"378 307 OFFCURVE",
"333 303 OFFCURVE",
"307 297 CURVE"
);
},
{
closed = 1;
nodes = (
"595 745 OFFCURVE",
"592 770 OFFCURVE",
"628 784 CURVE SMOOTH",
"669 800 OFFCURVE",
"714 826 OFFCURVE",
"714 882 CURVE SMOOTH",
"714 935 OFFCURVE",
"656 957 OFFCURVE",
"605 957 CURVE SMOOTH",
"560 957 OFFCURVE",
"496 949 OFFCURVE",
"496 906 CURVE SMOOTH",
"496 891 OFFCURVE",
"508 875 OFFCURVE",
"521 875 CURVE SMOOTH",
"549 875 OFFCURVE",
"548 893 OFFCURVE",
"591 893 CURVE SMOOTH",
"621 893 OFFCURVE",
"628 879 OFFCURVE",
"628 871 CURVE SMOOTH",
"628 819 OFFCURVE",
"537 838 OFFCURVE",
"524 788 CURVE SMOOTH",
"509 733 OFFCURVE",
"508 724 OFFCURVE",
"508 722 CURVE SMOOTH",
"508 710 OFFCURVE",
"521 703 OFFCURVE",
"542 703 CURVE SMOOTH",
"568 703 OFFCURVE",
"581 717 OFFCURVE",
"588 730 CURVE"
);
}
);
width = 656;
}
);
leftKerningGroup = A;
rightKerningGroup = A;
unicode = 1EA2;
},
{
glyphname = Ainvertedbreve;
lastChange = "2015-06-22 11:50:22 +0000";
layers = (
{
layerId = "647881E3-02F2-4150-93BB-7ED190F14AA3";
name = Regular;
paths = (
{
closed = 1;
nodes = (
"431 168 OFFCURVE",
"426 106 OFFCURVE",
"426 83 CURVE SMOOTH",
"426 15 OFFCURVE",
"436 -18 OFFCURVE",
"501 -18 CURVE SMOOTH",
"535 -18 OFFCURVE",
"560 16 OFFCURVE",
"564 45 CURVE",
"559 92 OFFCURVE",
"557 139 OFFCURVE",
"557 190 CURVE SMOOTH",
"557 333 OFFCURVE",
"576 477 OFFCURVE",
"592 615 CURVE",
"592 645 OFFCURVE",
"587 665 OFFCURVE",
"519 665 CURVE SMOOTH",
"476 665 OFFCURVE",
"432 640 OFFCURVE",
"406 608 CURVE SMOOTH",
"302 480 OFFCURVE",
"231 388 OFFCURVE",
"160 283 CURVE",
"127 268 OFFCURVE",
"69 240 OFFCURVE",
"69 213 CURVE SMOOTH",
"69 211 OFFCURVE",
"79 190 OFFCURVE",
"79 179 CURVE",
"11 99 OFFCURVE",
"-15 28 OFFCURVE",
"-17 28 CURVE",
"-17 11 OFFCURVE",
"15 -13 OFFCURVE",
"58 -13 CURVE SMOOTH",
"84 -13 OFFCURVE",
"100 2 OFFCURVE",
"124 26 CURVE SMOOTH",
"165 67 OFFCURVE",
"196 134 OFFCURVE",
"228 182 CURVE",
"304 200 OFFCURVE",
"364 210 OFFCURVE",
"437 222 CURVE"
);
},
{
closed = 1;
nodes = (
"368 388 OFFCURVE",
"426 474 OFFCURVE",
"463 518 CURVE",
"454 474 OFFCURVE",
"447 399 OFFCURVE",
"442 318 CURVE",
"378 307 OFFCURVE",
"333 303 OFFCURVE",
"307 297 CURVE"
);
},
{
closed = 1;
nodes = (
"461 851 OFFCURVE",
"368 821 OFFCURVE",
"368 724 CURVE SMOOTH",
"368 703 OFFCURVE",
"391 700 OFFCURVE",
"419 700 CURVE SMOOTH",
"429 700 OFFCURVE",
"452 707 OFFCURVE",
"455 719 CURVE",
"469 766 OFFCURVE",
"519 775 OFFCURVE",
"559 775 CURVE SMOOTH",
"586 775 OFFCURVE",
"613 769 OFFCURVE",
"615 741 CURVE SMOOTH",
"617 717 OFFCURVE",
"639 713 OFFCURVE",
"658 713 CURVE SMOOTH",
"694 713 OFFCURVE",
"707 737 OFFCURVE",
"707 769 CURVE SMOOTH",
"707 831 OFFCURVE",
"636 856 OFFCURVE",
"565 856 CURVE"
);
}
);
width = 650;
}
);
leftKerningGroup = A;
rightKerningGroup = A;
unicode = 0202;
},
{
glyphname = Amacron;
lastChange = "2015-06-22 11:50:22 +0000";
layers = (
{
layerId = "647881E3-02F2-4150-93BB-7ED190F14AA3";
name = Regular;
paths = (
{
closed = 1;
nodes = (
"431 168 OFFCURVE",
"426 106 OFFCURVE",
"426 83 CURVE SMOOTH",
"426 15 OFFCURVE",
"436 -18 OFFCURVE",
"501 -18 CURVE SMOOTH",
"535 -18 OFFCURVE",
"560 16 OFFCURVE",
"564 45 CURVE",
"559 92 OFFCURVE",
"557 139 OFFCURVE",
"557 190 CURVE SMOOTH",
"557 333 OFFCURVE",
"576 477 OFFCURVE",
"592 615 CURVE",
"592 645 OFFCURVE",
"587 665 OFFCURVE",
"519 665 CURVE SMOOTH",
"476 665 OFFCURVE",
"432 640 OFFCURVE",
"406 608 CURVE SMOOTH",
"302 480 OFFCURVE",
"231 388 OFFCURVE",
"160 283 CURVE",
"127 268 OFFCURVE",
"69 240 OFFCURVE",
"69 213 CURVE SMOOTH",
"69 211 OFFCURVE",
"79 190 OFFCURVE",
"79 179 CURVE",
"11 99 OFFCURVE",
"-15 28 OFFCURVE",
"-17 28 CURVE",
"-17 11 OFFCURVE",
"15 -13 OFFCURVE",
"58 -13 CURVE SMOOTH",
"84 -13 OFFCURVE",
"100 2 OFFCURVE",
"124 26 CURVE SMOOTH",
"165 67 OFFCURVE",
"196 134 OFFCURVE",
"228 182 CURVE",
"304 200 OFFCURVE",
"364 210 OFFCURVE",
"437 222 CURVE"
);
},
{
closed = 1;
nodes = (
"368 388 OFFCURVE",
"426 474 OFFCURVE",
"463 518 CURVE",
"454 474 OFFCURVE",
"447 399 OFFCURVE",
"442 318 CURVE",
"378 307 OFFCURVE",
"333 303 OFFCURVE",
"307 297 CURVE"
);
},
{
closed = 1;
nodes = (
"707 784 LINE",
"706 809 OFFCURVE",
"690 822 OFFCURVE",
"659 824 CURVE",
"470 816 LINE SMOOTH",
"374 812 OFFCURVE",
"342 800 OFFCURVE",
"339 757 CURVE",
"339 749 LINE",
"341 727 OFFCURVE",
"355 711 OFFCURVE",
"386 709 CURVE",
"401 709 OFFCURVE",
"415 711 OFFCURVE",
"429 713 CURVE",
"638 724 LINE SMOOTH",
"675 726 OFFCURVE",
"705 742 OFFCURVE",
"707 777 CURVE"
);
}
);
width = 656;
}
);
leftKerningGroup = A;
rightKerningGroup = A;
unicode = 0100;
},
{
glyphname = Aogonek;
lastChange = "2015-06-22 11:50:22 +0000";
layers = (
{
layerId = "647881E3-02F2-4150-93BB-7ED190F14AA3";
name = Regular;
paths = (
{
closed = 1;
nodes = (
"431 168 OFFCURVE",
"426 106 OFFCURVE",
"426 83 CURVE SMOOTH",
"426 15 OFFCURVE",
"436 -18 OFFCURVE",
"501 -18 CURVE SMOOTH",
"535 -18 OFFCURVE",
"560 16 OFFCURVE",
"564 45 CURVE",
"559 92 OFFCURVE",
"557 139 OFFCURVE",
"557 190 CURVE SMOOTH",
"557 333 OFFCURVE",
"576 477 OFFCURVE",
"592 615 CURVE",
"592 645 OFFCURVE",
"587 665 OFFCURVE",
"519 665 CURVE SMOOTH",
"476 665 OFFCURVE",
"432 640 OFFCURVE",
"406 608 CURVE SMOOTH",
"302 480 OFFCURVE",
"231 388 OFFCURVE",
"160 283 CURVE",
"127 268 OFFCURVE",
"69 240 OFFCURVE",
"69 213 CURVE SMOOTH",
"69 211 OFFCURVE",
"79 190 OFFCURVE",
"79 179 CURVE",
"11 99 OFFCURVE",
"-15 28 OFFCURVE",
"-17 28 CURVE",
"-17 11 OFFCURVE",
"15 -13 OFFCURVE",
"58 -13 CURVE SMOOTH",
"84 -13 OFFCURVE",
"100 2 OFFCURVE",
"124 26 CURVE SMOOTH",
"165 67 OFFCURVE",
"196 134 OFFCURVE",
"228 182 CURVE",
"304 200 OFFCURVE",
"364 210 OFFCURVE",
"437 222 CURVE"
);
},
{
closed = 1;
nodes = (
"368 388 OFFCURVE",
"426 474 OFFCURVE",
"463 518 CURVE",
"454 474 OFFCURVE",
"447 399 OFFCURVE",
"442 318 CURVE",
"378 307 OFFCURVE",
"333 303 OFFCURVE",
"307 297 CURVE"
);
},
{
closed = 1;
nodes = (
"472 -75 OFFCURVE",
"496 -43 OFFCURVE",
"543 0 CURVE",
"477 0 LINE",
"408 -29 OFFCURVE",
"364 -78 OFFCURVE",
"364 -116 CURVE SMOOTH",
"364 -194 OFFCURVE",
"423 -220 OFFCURVE",
"479 -220 CURVE SMOOTH",
"509 -220 OFFCURVE",
"579 -213 OFFCURVE",
"579 -175 CURVE SMOOTH",
"579 -168 OFFCURVE",
"575 -162 OFFCURVE",
"565 -155 CURVE",
"548 -159 OFFCURVE",
"532 -161 OFFCURVE",
"517 -161 CURVE SMOOTH",
"489 -161 OFFCURVE",
"472 -147 OFFCURVE",
"472 -116 CURVE SMOOTH"
);
}
);
width = 639;
}
);
leftKerningGroup = A;
rightKerningGroup = A;
unicode = 0104;
},
{
glyphname = Aring;
lastChange = "2015-06-22 11:50:22 +0000";
layers = (
{
layerId = "647881E3-02F2-4150-93BB-7ED190F14AA3";
name = Regular;
paths = (
{
closed = 1;
nodes = (
"431 168 OFFCURVE",
"426 106 OFFCURVE",
"426 83 CURVE SMOOTH",
"426 15 OFFCURVE",
"436 -18 OFFCURVE",
"501 -18 CURVE SMOOTH",
"535 -18 OFFCURVE",
"560 16 OFFCURVE",
"564 45 CURVE",
"559 92 OFFCURVE",
"557 139 OFFCURVE",
"557 190 CURVE SMOOTH",
"557 333 OFFCURVE",
"576 477 OFFCURVE",
"592 615 CURVE",
"592 645 OFFCURVE",
"587 665 OFFCURVE",
"519 665 CURVE SMOOTH",
"476 665 OFFCURVE",
"432 640 OFFCURVE",
"406 608 CURVE SMOOTH",
"302 480 OFFCURVE",
"231 388 OFFCURVE",
"160 283 CURVE",
"127 268 OFFCURVE",
"69 240 OFFCURVE",
"69 213 CURVE SMOOTH",
"69 211 OFFCURVE",
"79 190 OFFCURVE",
"79 179 CURVE",
"11 99 OFFCURVE",
"-15 28 OFFCURVE",
"-17 28 CURVE",
"-17 11 OFFCURVE",
"15 -13 OFFCURVE",
"58 -13 CURVE SMOOTH",
"84 -13 OFFCURVE",
"100 2 OFFCURVE",
"124 26 CURVE SMOOTH",
"165 67 OFFCURVE",
"196 134 OFFCURVE",
"228 182 CURVE",
"304 200 OFFCURVE",
"364 210 OFFCURVE",
"437 222 CURVE"
);
},
{
closed = 1;
nodes = (
"368 388 OFFCURVE",
"426 474 OFFCURVE",
"463 518 CURVE",
"454 474 OFFCURVE",
"447 399 OFFCURVE",
"442 318 CURVE",
"378 307 OFFCURVE",
"333 303 OFFCURVE",
"307 297 CURVE"
);
},
{
closed = 1;
nodes = (
"619 688 OFFCURVE",
"686 737 OFFCURVE",
"686 799 CURVE SMOOTH",
"686 860 OFFCURVE",
"639 901 OFFCURVE",
"592 901 CURVE SMOOTH",
"511 901 OFFCURVE",
"451 855 OFFCURVE",
"451 784 CURVE SMOOTH",
"451 732 OFFCURVE",
"486 688 OFFCURVE",
"545 688 CURVE SMOOTH"
);
},
{
closed = 1;
nodes = (
"539 740 OFFCURVE",
"516 754 OFFCURVE",
"516 780 CURVE SMOOTH",
"516 824 OFFCURVE",
"540 843 OFFCURVE",
"580 843 CURVE SMOOTH",
"601 843 OFFCURVE",
"617 828 OFFCURVE",
"617 804 CURVE SMOOTH",
"617 760 OFFCURVE",
"586 740 OFFCURVE",
"557 740 CURVE SMOOTH"
);
}
);
width = 656;
}
);
leftKerningGroup = A;
rightKerningGroup = A;
unicode = 00C5;
},
{
glyphname = Aringacute;
lastChange = "2015-06-22 11:50:22 +0000";
layers = (
{
layerId = "647881E3-02F2-4150-93BB-7ED190F14AA3";
name = Regular;
paths = (
{
closed = 1;
nodes = (
"431 168 OFFCURVE",
"426 106 OFFCURVE",
"426 83 CURVE SMOOTH",
"426 15 OFFCURVE",
"436 -18 OFFCURVE",
"501 -18 CURVE SMOOTH",
"535 -18 OFFCURVE",
"560 16 OFFCURVE",
"564 45 CURVE",
"559 92 OFFCURVE",
"557 139 OFFCURVE",
"557 190 CURVE SMOOTH",
"557 333 OFFCURVE",
"576 477 OFFCURVE",
"592 615 CURVE",
"592 645 OFFCURVE",
"587 665 OFFCURVE",
"519 665 CURVE SMOOTH",
"476 665 OFFCURVE",
"432 640 OFFCURVE",
"406 608 CURVE SMOOTH",
"302 480 OFFCURVE",
"231 388 OFFCURVE",
"160 283 CURVE",
"127 268 OFFCURVE",
"69 240 OFFCURVE",
"69 213 CURVE SMOOTH",
"69 211 OFFCURVE",
"79 190 OFFCURVE",
"79 179 CURVE",
"11 99 OFFCURVE",
"-15 28 OFFCURVE",
"-17 28 CURVE",
"-17 11 OFFCURVE",
"15 -13 OFFCURVE",
"58 -13 CURVE SMOOTH",
"84 -13 OFFCURVE",
"100 2 OFFCURVE",
"124 26 CURVE SMOOTH",
"165 67 OFFCURVE",
"196 134 OFFCURVE",
"228 182 CURVE",
"304 200 OFFCURVE",
"364 210 OFFCURVE",
"437 222 CURVE"
);
},
{
closed = 1;
nodes = (
"368 388 OFFCURVE",
"426 474 OFFCURVE",
"463 518 CURVE",
"454 474 OFFCURVE",
"447 399 OFFCURVE",
"442 318 CURVE",
"378 307 OFFCURVE",
"333 303 OFFCURVE",
"307 297 CURVE"
);
},
{
closed = 1;
nodes = (
"606 637 OFFCURVE",
"673 686 OFFCURVE",
"673 748 CURVE SMOOTH",
"673 809 OFFCURVE",
"626 850 OFFCURVE",
"579 850 CURVE SMOOTH",
"498 850 OFFCURVE",
"438 804 OFFCURVE",
"438 733 CURVE SMOOTH",
"438 681 OFFCURVE",
"473 637 OFFCURVE",
"532 637 CURVE SMOOTH"
);
},
{
closed = 1;
nodes = (
"526 689 OFFCURVE",
"503 703 OFFCURVE",
"503 729 CURVE SMOOTH",
"503 773 OFFCURVE",
"527 792 OFFCURVE",
"567 792 CURVE SMOOTH",
"588 792 OFFCURVE",
"604 777 OFFCURVE",
"604 753 CURVE SMOOTH",
"604 709 OFFCURVE",
"573 689 OFFCURVE",
"544 689 CURVE SMOOTH"
);
},
{
closed = 1;
nodes = (
"547 910 OFFCURVE",
"546 907 OFFCURVE",
"546 902 CURVE SMOOTH",
"546 882 OFFCURVE",
"558 875 OFFCURVE",
"584 875 CURVE SMOOTH",
"621 875 OFFCURVE",
"660 895 OFFCURVE",
"736 942 CURVE SMOOTH",
"789 974 OFFCURVE",
"808 987 OFFCURVE",
"808 1004 CURVE SMOOTH",
"808 1022 OFFCURVE",
"760 1052 OFFCURVE",
"732 1052 CURVE SMOOTH",
"708 1052 OFFCURVE",
"578 951 OFFCURVE",
"549 913 CURVE"
);
}
);
width = 656;
}
);
leftKerningGroup = A;
rightKerningGroup = A;
unicode = 01FA;
},
{
glyphname = Atilde;
lastChange = "2015-06-22 11:50:22 +0000";
layers = (
{
layerId = "647881E3-02F2-4150-93BB-7ED190F14AA3";
name = Regular;
paths = (
{
closed = 1;
nodes = (
"431 168 OFFCURVE",
"426 106 OFFCURVE",
"426 83 CURVE SMOOTH",
"426 15 OFFCURVE",
"436 -18 OFFCURVE",
"501 -18 CURVE SMOOTH",
"535 -18 OFFCURVE",
"560 16 OFFCURVE",
"564 45 CURVE",
"559 92 OFFCURVE",
"557 139 OFFCURVE",
"557 190 CURVE SMOOTH",
"557 333 OFFCURVE",
"576 477 OFFCURVE",
"592 615 CURVE",
"592 645 OFFCURVE",
"587 665 OFFCURVE",
"519 665 CURVE SMOOTH",
"476 665 OFFCURVE",
"432 640 OFFCURVE",
"406 608 CURVE SMOOTH",
"302 480 OFFCURVE",
"231 388 OFFCURVE",
"160 283 CURVE",
"127 268 OFFCURVE",
"69 240 OFFCURVE",
"69 213 CURVE SMOOTH",
"69 211 OFFCURVE",
"79 190 OFFCURVE",
"79 179 CURVE",
"11 99 OFFCURVE",
"-15 28 OFFCURVE",
"-17 28 CURVE",
"-17 11 OFFCURVE",
"15 -13 OFFCURVE",
"58 -13 CURVE SMOOTH",
"84 -13 OFFCURVE",
"100 2 OFFCURVE",
"124 26 CURVE SMOOTH",
"165 67 OFFCURVE",
"196 134 OFFCURVE",
"228 182 CURVE",
"304 200 OFFCURVE",
"364 210 OFFCURVE",
"437 222 CURVE"
);
},
{
closed = 1;
nodes = (
"368 388 OFFCURVE",
"426 474 OFFCURVE",
"463 518 CURVE",
"454 474 OFFCURVE",
"447 399 OFFCURVE",
"442 318 CURVE",
"378 307 OFFCURVE",
"333 303 OFFCURVE",
"307 297 CURVE"
);
},
{
closed = 1;
nodes = (
"504 781 OFFCURVE",
"522 775 OFFCURVE",
"548 754 CURVE",
"579 734 OFFCURVE",
"601 722 OFFCURVE",
"634 722 CURVE SMOOTH",
"662 722 OFFCURVE",
"737 768 OFFCURVE",
"737 829 CURVE SMOOTH",
"737 836 OFFCURVE",
"736 838 OFFCURVE",
"735 838 CURVE SMOOTH",
"732 838 OFFCURVE",
"729 848 OFFCURVE",
"722 848 CURVE SMOOTH",
"720 848 OFFCURVE",
"716 847 OFFCURVE",
"713 844 CURVE",
"695 828 OFFCURVE",
"679 807 OFFCURVE",
"656 807 CURVE SMOOTH",
"634 807 OFFCURVE",
"616 814 OFFCURVE",
"590 834 CURVE SMOOTH",
"560 857 OFFCURVE",
"529 869 OFFCURVE",
"500 869 CURVE SMOOTH",
"452 869 OFFCURVE",
"375 818 OFFCURVE",
"375 776 CURVE SMOOTH",
"375 738 OFFCURVE",
"383 730 OFFCURVE",
"397 722 CURVE",
"429 757 OFFCURVE",
"460 781 OFFCURVE",
"484 781 CURVE SMOOTH"
);
}
);
width = 656;
}
);
leftKerningGroup = A;
rightKerningGroup = A;
unicode = 00C3;
},
{
glyphname = AE;
lastChange = "2015-06-22 06:38:27 +0000";
layers = (
{
layerId = "647881E3-02F2-4150-93BB-7ED190F14AA3";
name = Regular;
paths = (
{
closed = 1;
nodes = (
"771 306 OFFCURVE",
"802 331 OFFCURVE",
"802 356 CURVE SMOOTH",
"802 378 OFFCURVE",
"784 393 OFFCURVE",
"763 402 CURVE",
"693 396 OFFCURVE",
"663 392 OFFCURVE",
"563 376 CURVE",
"580 451 OFFCURVE",
"594 510 OFFCURVE",
"605 554 CURVE",
"702 563 OFFCURVE",
"814 570 OFFCURVE",
"856 573 CURVE",
"885 580 OFFCURVE",
"919 603 OFFCURVE",
"919 628 CURVE SMOOTH",
"919 651 OFFCURVE",
"902 666 OFFCURVE",
"883 676 CURVE",
"820 675 OFFCURVE",
"637 651 OFFCURVE",
"521 651 CURVE SMOOTH",
"478 651 OFFCURVE",
"432 639 OFFCURVE",
"406 608 CURVE SMOOTH",
"302 480 OFFCURVE",
"231 388 OFFCURVE",
"160 283 CURVE",
"127 268 OFFCURVE",
"69 240 OFFCURVE",
"69 213 CURVE SMOOTH",
"69 211 OFFCURVE",
"79 190 OFFCURVE",
"79 179 CURVE",
"11 99 OFFCURVE",
"-15 28 OFFCURVE",
"-17 28 CURVE",
"-17 11 OFFCURVE",
"15 -13 OFFCURVE",
"58 -13 CURVE SMOOTH",
"84 -13 OFFCURVE",
"101 2 OFFCURVE",
"125 26 CURVE SMOOTH",
"166 67 OFFCURVE",
"197 134 OFFCURVE",
"229 182 CURVE",
"288 196 OFFCURVE",
"343 205 OFFCURVE",
"394 214 CURVE",
"363 89 LINE",
"361 82 OFFCURVE",
"360 75 OFFCURVE",
"360 68 CURVE SMOOTH",
"360 33 OFFCURVE",
"389 -12 OFFCURVE",
"428 -12 CURVE SMOOTH",
"450 -12 OFFCURVE",
"462 -10 OFFCURVE",
"469 -5 CURVE",
"553 10 OFFCURVE",
"675 23 OFFCURVE",
"735 31 CURVE",
"763 40 OFFCURVE",
"794 65 OFFCURVE",
"794 90 CURVE SMOOTH",
"794 112 OFFCURVE",
"776 127 OFFCURVE",
"755 136 CURVE",
"692 130 OFFCURVE",
"595 119 OFFCURVE",
"501 101 CURVE",
"514 152 OFFCURVE",
"532 220 OFFCURVE",
"544 271 CURVE",
"625 285 OFFCURVE",
"678 289 OFFCURVE",
"743 297 CURVE"
);
},
{
closed = 1;
nodes = (
"359 378 OFFCURVE",
"436 483 OFFCURVE",
"475 532 CURVE",
"419 313 LINE",
"370 305 OFFCURVE",
"327 302 OFFCURVE",
"305 297 CURVE"
);
}
);
width = 856;
}
);
leftKerningGroup = A;
unicode = 00C6;
},
{
glyphname = AEacute;
lastChange = "2015-06-22 06:38:27 +0000";
layers = (
{
layerId = "647881E3-02F2-4150-93BB-7ED190F14AA3";
name = Regular;
paths = (
{
closed = 1;
nodes = (
"771 306 OFFCURVE",
"802 331 OFFCURVE",
"802 356 CURVE SMOOTH",
"802 378 OFFCURVE",
"784 393 OFFCURVE",
"763 402 CURVE",
"693 396 OFFCURVE",
"663 392 OFFCURVE",
"563 376 CURVE",
"580 451 OFFCURVE",
"594 510 OFFCURVE",
"605 554 CURVE",
"702 563 OFFCURVE",
"814 570 OFFCURVE",
"856 573 CURVE",
"885 580 OFFCURVE",
"919 603 OFFCURVE",
"919 628 CURVE SMOOTH",
"919 651 OFFCURVE",
"902 666 OFFCURVE",
"883 676 CURVE",
"820 675 OFFCURVE",
"637 651 OFFCURVE",
"521 651 CURVE SMOOTH",
"478 651 OFFCURVE",
"432 639 OFFCURVE",
"406 608 CURVE SMOOTH",
"302 480 OFFCURVE",
"231 388 OFFCURVE",
"160 283 CURVE",
"127 268 OFFCURVE",
"69 240 OFFCURVE",
"69 213 CURVE SMOOTH",
"69 211 OFFCURVE",
"79 190 OFFCURVE",
"79 179 CURVE",
"11 99 OFFCURVE",
"-15 28 OFFCURVE",
"-17 28 CURVE",
"-17 11 OFFCURVE",
"15 -13 OFFCURVE",
"58 -13 CURVE SMOOTH",
"84 -13 OFFCURVE",
"101 2 OFFCURVE",
"125 26 CURVE SMOOTH",
"166 67 OFFCURVE",
"197 134 OFFCURVE",
"229 182 CURVE",
"288 196 OFFCURVE",
"343 205 OFFCURVE",
"394 214 CURVE",
"363 89 LINE",
"361 82 OFFCURVE",
"360 75 OFFCURVE",
"360 68 CURVE SMOOTH",
"360 33 OFFCURVE",
"389 -12 OFFCURVE",
"428 -12 CURVE SMOOTH",
"450 -12 OFFCURVE",
"462 -10 OFFCURVE",
"469 -5 CURVE",
"553 10 OFFCURVE",
"675 23 OFFCURVE",
"735 31 CURVE",
"763 40 OFFCURVE",
"794 65 OFFCURVE",
"794 90 CURVE SMOOTH",
"794 112 OFFCURVE",
"776 127 OFFCURVE",
"755 136 CURVE",
"692 130 OFFCURVE",
"595 119 OFFCURVE",
"501 101 CURVE",
"514 152 OFFCURVE",
"532 220 OFFCURVE",
"544 271 CURVE",
"625 285 OFFCURVE",
"678 289 OFFCURVE",
"743 297 CURVE"
);
},
{
closed = 1;
nodes = (
"359 378 OFFCURVE",
"436 483 OFFCURVE",
"475 532 CURVE",
"419 313 LINE",
"370 305 OFFCURVE",
"327 302 OFFCURVE",
"305 297 CURVE"
);
},
{
closed = 1;
nodes = (
"575 753 OFFCURVE",
"574 749 OFFCURVE",
"574 744 CURVE SMOOTH",
"574 721 OFFCURVE",
"586 713 OFFCURVE",
"611 713 CURVE SMOOTH",
"648 713 OFFCURVE",
"686 736 OFFCURVE",
"762 789 CURVE SMOOTH",
"814 825 OFFCURVE",
"833 839 OFFCURVE",
"833 858 CURVE SMOOTH",
"833 879 OFFCURVE",
"785 912 OFFCURVE",
"758 912 CURVE SMOOTH",
"734 912 OFFCURVE",
"605 799 OFFCURVE",
"577 756 CURVE SMOOTH"
);
}
);
width = 856;
}
);
leftKerningGroup = A;
unicode = 01FC;
},
{
glyphname = B;
lastChange = "2015-06-22 15:32:02 +0000";
layers = (
{
layerId = "647881E3-02F2-4150-93BB-7ED190F14AA3";
name = Regular;
paths = (
{
closed = 1;
nodes = (
"101 524 OFFCURVE",
"249 563 OFFCURVE",
"386 563 CURVE SMOOTH",
"452 563 OFFCURVE",
"470 534 OFFCURVE",
"470 497 CURVE SMOOTH",
"470 399 OFFCURVE",
"336 376 OFFCURVE",
"251 369 CURVE",
"290 539 OFFCURVE",
"316 641 OFFCURVE",
"316 648 CURVE",
"314 665 OFFCURVE",
"278 672 OFFCURVE",
"246 672 CURVE SMOOTH",
"200 672 OFFCURVE",
"191 655 OFFCURVE",
"177 599 CURVE SMOOTH",
"48 82 LINE SMOOTH",
"46 75 OFFCURVE",
"45 68 OFFCURVE",
"45 61 CURVE SMOOTH",
"45 26 OFFCURVE",
"55 -13 OFFCURVE",
"94 -13 CURVE SMOOTH",
"149 -13 OFFCURVE",
"161 -1 OFFCURVE",
"170 36 CURVE SMOOTH",
"178 69 OFFCURVE",
"212 202 OFFCURVE",
"235 282 CURVE",
"270 288 OFFCURVE",
"309 288 OFFCURVE",
"349 288 CURVE SMOOTH",
"408 288 OFFCURVE",
"438 247 OFFCURVE",
"438 205 CURVE SMOOTH",
"438 120 OFFCURVE",
"342 70 OFFCURVE",
"254 70 CURVE SMOOTH",
"226 70 OFFCURVE",
"203 74 OFFCURVE",
"176 84 CURVE SMOOTH",
"164 88 OFFCURVE",
"157 90 OFFCURVE",
"153 90 CURVE SMOOTH",
"149 90 OFFCURVE",
"148 88 OFFCURVE",
"148 86 CURVE SMOOTH",
"148 84 OFFCURVE",
"149 82 OFFCURVE",
"149 82 CURVE",
"149 65 OFFCURVE",
"127 52 OFFCURVE",
"127 28 CURVE SMOOTH",
"127 -9 OFFCURVE",
"215 -27 OFFCURVE",
"267 -27 CURVE SMOOTH",
"395 -27 OFFCURVE",
"538 20 OFFCURVE",
"565 198 CURVE",
"566 203 OFFCURVE",
"566 208 OFFCURVE",
"566 213 CURVE SMOOTH",
"566 261 OFFCURVE",
"555 327 OFFCURVE",
"454 343 CURVE",
"538 366 OFFCURVE",
"607 423 OFFCURVE",
"607 509 CURVE SMOOTH",
"607 600 OFFCURVE",
"550 662 OFFCURVE",
"409 662 CURVE SMOOTH",
"270 662 OFFCURVE",
"117 625 OFFCURVE",
"58 586 CURVE",
"46 570 OFFCURVE",
"41 555 OFFCURVE",
"41 541 CURVE SMOOTH",
"41 520 OFFCURVE",
"53 500 OFFCURVE",
"72 480 CURVE"
);
}
);
width = 631;
}
);
unicode = 0042;
},
{
glyphname = C;
lastChange = "2015-06-22 12:52:42 +0000";
layers = (
{
layerId = "647881E3-02F2-4150-93BB-7ED190F14AA3";
name = Regular;
paths = (
{
closed = 1;
nodes = (
"568 195 OFFCURVE",
"559 244 OFFCURVE",
"480 244 CURVE SMOOTH",
"445 244 OFFCURVE",
"408 170 OFFCURVE",
"402 157 CURVE SMOOTH",
"386 122 OFFCURVE",
"305 80 OFFCURVE",
"269 80 CURVE SMOOTH",
"197 80 OFFCURVE",
"142 122 OFFCURVE",
"142 184 CURVE SMOOTH",
"142 396 OFFCURVE",
"315 556 OFFCURVE",
"424 556 CURVE SMOOTH",
"446 556 OFFCURVE",
"481 529 OFFCURVE",
"481 504 CURVE SMOOTH",
"481 495 OFFCURVE",
"480 484 OFFCURVE",
"480 472 CURVE SMOOTH",
"480 445 OFFCURVE",
"486 415 OFFCURVE",
"531 415 CURVE SMOOTH",
"583 415 OFFCURVE",
"614 448 OFFCURVE",
"614 487 CURVE SMOOTH",
"614 596 OFFCURVE",
"540 661 OFFCURVE",
"448 661 CURVE SMOOTH",
"214 661 OFFCURVE",
"14 462 OFFCURVE",
"14 191 CURVE SMOOTH",
"14 78 OFFCURVE",
"76 -21 OFFCURVE",
"250 -21 CURVE SMOOTH",
"419 -21 OFFCURVE",
"541 88 OFFCURVE",
"569 174 CURVE"
);
}
);
width = 624;
}
);
leftKerningGroup = C;
rightKerningGroup = C;
unicode = 0043;
},
{
glyphname = Cacute;
lastChange = "2015-06-22 07:09:57 +0000";
layers = (
{
layerId = "647881E3-02F2-4150-93BB-7ED190F14AA3";
name = Regular;
paths = (
{
closed = 1;
nodes = (
"568 195 OFFCURVE",
"559 244 OFFCURVE",
"480 244 CURVE SMOOTH",
"445 244 OFFCURVE",
"408 170 OFFCURVE",
"402 157 CURVE SMOOTH",
"386 122 OFFCURVE",
"305 80 OFFCURVE",
"269 80 CURVE SMOOTH",
"197 80 OFFCURVE",
"142 122 OFFCURVE",
"142 184 CURVE SMOOTH",
"142 396 OFFCURVE",
"315 556 OFFCURVE",
"424 556 CURVE SMOOTH",
"446 556 OFFCURVE",
"481 529 OFFCURVE",
"481 504 CURVE SMOOTH",
"481 495 OFFCURVE",
"480 484 OFFCURVE",
"480 472 CURVE SMOOTH",
"480 445 OFFCURVE",
"486 415 OFFCURVE",
"531 415 CURVE SMOOTH",
"583 415 OFFCURVE",
"614 448 OFFCURVE",
"614 487 CURVE SMOOTH",
"614 596 OFFCURVE",
"540 661 OFFCURVE",
"448 661 CURVE SMOOTH",
"214 661 OFFCURVE",
"14 462 OFFCURVE",
"14 191 CURVE SMOOTH",
"14 78 OFFCURVE",
"76 -21 OFFCURVE",
"250 -21 CURVE SMOOTH",
"419 -21 OFFCURVE",
"541 88 OFFCURVE",
"569 174 CURVE"
);
},
{
closed = 1;
nodes = (
"350 753 OFFCURVE",
"349 749 OFFCURVE",
"349 744 CURVE SMOOTH",
"349 721 OFFCURVE",
"361 713 OFFCURVE",
"386 713 CURVE SMOOTH",
"423 713 OFFCURVE",
"461 736 OFFCURVE",
"537 789 CURVE SMOOTH",
"589 825 OFFCURVE",
"608 839 OFFCURVE",
"608 858 CURVE SMOOTH",
"608 879 OFFCURVE",
"560 912 OFFCURVE",
"533 912 CURVE SMOOTH",
"509 912 OFFCURVE",
"380 799 OFFCURVE",
"352 756 CURVE SMOOTH"
);
}
);
width = 624;
}
);
leftKerningGroup = C;
rightKerningGroup = C;
unicode = 0106;
},
{
glyphname = Ccaron;
lastChange = "2015-06-22 07:09:57 +0000";
layers = (
{
layerId = "647881E3-02F2-4150-93BB-7ED190F14AA3";
name = Regular;
paths = (
{
closed = 1;
nodes = (
"568 195 OFFCURVE",
"559 244 OFFCURVE",
"480 244 CURVE SMOOTH",
"445 244 OFFCURVE",
"408 170 OFFCURVE",
"402 157 CURVE SMOOTH",
"386 122 OFFCURVE",
"305 80 OFFCURVE",
"269 80 CURVE SMOOTH",
"197 80 OFFCURVE",
"142 122 OFFCURVE",
"142 184 CURVE SMOOTH",
"142 396 OFFCURVE",
"315 556 OFFCURVE",
"424 556 CURVE SMOOTH",
"446 556 OFFCURVE",
"481 529 OFFCURVE",
"481 504 CURVE SMOOTH",
"481 495 OFFCURVE",
"480 484 OFFCURVE",
"480 472 CURVE SMOOTH",
"480 445 OFFCURVE",
"486 415 OFFCURVE",
"531 415 CURVE SMOOTH",
"583 415 OFFCURVE",
"614 448 OFFCURVE",
"614 487 CURVE SMOOTH",
"614 596 OFFCURVE",
"540 661 OFFCURVE",
"448 661 CURVE SMOOTH",
"214 661 OFFCURVE",
"14 462 OFFCURVE",
"14 191 CURVE SMOOTH",
"14 78 OFFCURVE",
"76 -21 OFFCURVE",
"250 -21 CURVE SMOOTH",
"419 -21 OFFCURVE",
"541 88 OFFCURVE",
"569 174 CURVE"
);
},
{
closed = 1;
nodes = (
"473 713 OFFCURVE",
"485 718 OFFCURVE",
"494 725 CURVE SMOOTH",
"543 763 OFFCURVE",
"592 804 OFFCURVE",
"619 826 CURVE SMOOTH",
"639 843 OFFCURVE",
"640 854 OFFCURVE",
"640 866 CURVE SMOOTH",
"640 887 OFFCURVE",
"613 899 OFFCURVE",
"589 899 CURVE SMOOTH",
"570 899 OFFCURVE",
"530 866 OFFCURVE",
"459 805 CURVE",
"404 871 LINE SMOOTH",
"393 884 OFFCURVE",
"379 892 OFFCURVE",
"366 892 CURVE SMOOTH",
"339 892 OFFCURVE",
"314 875 OFFCURVE",
"314 853 CURVE SMOOTH",
"314 845 OFFCURVE",
"317 837 OFFCURVE",
"324 828 CURVE SMOOTH",
"375 762 LINE SMOOTH",
"408 719 OFFCURVE",
"424 713 OFFCURVE",
"449 713 CURVE SMOOTH"
);
}
);
width = 624;
}
);
leftKerningGroup = C;
rightKerningGroup = C;
unicode = 010C;
},
{
glyphname = Ccedilla;
lastChange = "2015-06-22 07:09:57 +0000";
layers = (
{
layerId = "647881E3-02F2-4150-93BB-7ED190F14AA3";
name = Regular;
paths = (
{
closed = 1;
nodes = (
"568 195 OFFCURVE",
"559 244 OFFCURVE",
"480 244 CURVE SMOOTH",
"445 244 OFFCURVE",
"408 170 OFFCURVE",
"402 157 CURVE SMOOTH",
"386 122 OFFCURVE",
"305 80 OFFCURVE",
"269 80 CURVE SMOOTH",
"197 80 OFFCURVE",
"142 122 OFFCURVE",
"142 184 CURVE SMOOTH",
"142 396 OFFCURVE",
"315 556 OFFCURVE",
"424 556 CURVE SMOOTH",
"446 556 OFFCURVE",
"481 529 OFFCURVE",
"481 504 CURVE SMOOTH",
"481 495 OFFCURVE",
"480 484 OFFCURVE",
"480 472 CURVE SMOOTH",
"480 445 OFFCURVE",
"486 415 OFFCURVE",
"531 415 CURVE SMOOTH",
"583 415 OFFCURVE",
"614 448 OFFCURVE",
"614 487 CURVE SMOOTH",
"614 596 OFFCURVE",
"540 661 OFFCURVE",
"448 661 CURVE SMOOTH",
"214 661 OFFCURVE",
"14 462 OFFCURVE",
"14 191 CURVE SMOOTH",
"14 78 OFFCURVE",
"76 -21 OFFCURVE",
"250 -21 CURVE SMOOTH",
"419 -21 OFFCURVE",
"541 88 OFFCURVE",
"569 174 CURVE"
);
},
{
closed = 1;
nodes = (
"355 -99 OFFCURVE",
"302 -65 OFFCURVE",
"253 -65 CURVE SMOOTH",
"242 -65 OFFCURVE",
"231 -66 OFFCURVE",
"219 -68 CURVE",
"232 -43 OFFCURVE",
"254 -10 OFFCURVE",
"269 10 CURVE",
"182 10 LINE",
"140 -46 OFFCURVE",
"112 -92 OFFCURVE",
"112 -115 CURVE SMOOTH",
"112 -122 OFFCURVE",
"130 -128 OFFCURVE",
"170 -128 CURVE SMOOTH",
"187 -128 OFFCURVE",
"202 -118 OFFCURVE",
"219 -118 CURVE SMOOTH",
"240 -118 OFFCURVE",
"258 -127 OFFCURVE",
"258 -146 CURVE SMOOTH",
"258 -172 OFFCURVE",
"233 -188 OFFCURVE",
"189 -188 CURVE SMOOTH",
"154 -188 OFFCURVE",
"146 -163 OFFCURVE",
"103 -163 CURVE SMOOTH",
"81 -163 OFFCURVE",
"63 -171 OFFCURVE",
"63 -176 CURVE SMOOTH",
"63 -217 OFFCURVE",
"127 -250 OFFCURVE",
"181 -250 CURVE SMOOTH",
"286 -250 OFFCURVE",
"355 -211 OFFCURVE",
"355 -140 CURVE SMOOTH"
);
}
);
width = 624;
}
);
leftKerningGroup = C;
rightKerningGroup = C;
unicode = 00C7;
},
{
glyphname = Ccircumflex;
lastChange = "2015-06-22 07:09:57 +0000";
layers = (
{
layerId = "647881E3-02F2-4150-93BB-7ED190F14AA3";
name = Regular;
paths = (
{
closed = 1;
nodes = (
"568 195 OFFCURVE",
"559 244 OFFCURVE",
"480 244 CURVE SMOOTH",
"445 244 OFFCURVE",
"408 170 OFFCURVE",
"402 157 CURVE SMOOTH",
"386 122 OFFCURVE",
"305 80 OFFCURVE",
"269 80 CURVE SMOOTH",
"197 80 OFFCURVE",
"142 122 OFFCURVE",
"142 184 CURVE SMOOTH",
"142 396 OFFCURVE",
"315 556 OFFCURVE",
"424 556 CURVE SMOOTH",
"446 556 OFFCURVE",
"481 529 OFFCURVE",
"481 504 CURVE SMOOTH",
"481 495 OFFCURVE",
"480 484 OFFCURVE",
"480 472 CURVE SMOOTH",
"480 445 OFFCURVE",
"486 415 OFFCURVE",
"531 415 CURVE SMOOTH",
"583 415 OFFCURVE",
"614 448 OFFCURVE",
"614 487 CURVE SMOOTH",
"614 596 OFFCURVE",
"540 661 OFFCURVE",
"448 661 CURVE SMOOTH",
"214 661 OFFCURVE",
"14 462 OFFCURVE",
"14 191 CURVE SMOOTH",
"14 78 OFFCURVE",
"76 -21 OFFCURVE",
"250 -21 CURVE SMOOTH",
"419 -21 OFFCURVE",
"541 88 OFFCURVE",
"569 174 CURVE"
);
},
{
closed = 1;
nodes = (
"494 899 OFFCURVE",
"482 894 OFFCURVE",
"473 887 CURVE SMOOTH",
"424 849 OFFCURVE",
"375 808 OFFCURVE",
"348 786 CURVE SMOOTH",
"328 769 OFFCURVE",
"327 758 OFFCURVE",
"327 746 CURVE SMOOTH",
"327 725 OFFCURVE",
"354 713 OFFCURVE",
"378 713 CURVE SMOOTH",
"397 713 OFFCURVE",
"437 746 OFFCURVE",
"508 807 CURVE",
"563 741 LINE SMOOTH",
"574 728 OFFCURVE",
"588 720 OFFCURVE",
"601 720 CURVE SMOOTH",
"628 720 OFFCURVE",
"653 737 OFFCURVE",
"653 759 CURVE SMOOTH",
"653 767 OFFCURVE",
"650 775 OFFCURVE",
"643 784 CURVE SMOOTH",
"592 850 LINE SMOOTH",
"559 893 OFFCURVE",
"543 899 OFFCURVE",
"518 899 CURVE SMOOTH"
);
}
);
width = 624;
}
);
leftKerningGroup = C;
rightKerningGroup = C;
unicode = 0108;
},
{
glyphname = Cdotaccent;
lastChange = "2015-06-22 07:09:57 +0000";
layers = (
{
layerId = "647881E3-02F2-4150-93BB-7ED190F14AA3";
name = Regular;
paths = (
{
closed = 1;
nodes = (
"568 195 OFFCURVE",
"559 244 OFFCURVE",
"480 244 CURVE SMOOTH",
"445 244 OFFCURVE",
"408 170 OFFCURVE",
"402 157 CURVE SMOOTH",
"386 122 OFFCURVE",
"305 80 OFFCURVE",
"269 80 CURVE SMOOTH",
"197 80 OFFCURVE",
"142 122 OFFCURVE",
"142 184 CURVE SMOOTH",
"142 396 OFFCURVE",
"315 556 OFFCURVE",
"424 556 CURVE SMOOTH",
"446 556 OFFCURVE",
"481 529 OFFCURVE",
"481 504 CURVE SMOOTH",
"481 495 OFFCURVE",
"480 484 OFFCURVE",
"480 472 CURVE SMOOTH",
"480 445 OFFCURVE",
"486 415 OFFCURVE",
"531 415 CURVE SMOOTH",
"583 415 OFFCURVE",
"614 448 OFFCURVE",
"614 487 CURVE SMOOTH",
"614 596 OFFCURVE",
"540 661 OFFCURVE",
"448 661 CURVE SMOOTH",
"214 661 OFFCURVE",
"14 462 OFFCURVE",
"14 191 CURVE SMOOTH",
"14 78 OFFCURVE",
"76 -21 OFFCURVE",
"250 -21 CURVE SMOOTH",
"419 -21 OFFCURVE",
"541 88 OFFCURVE",
"569 174 CURVE"
);
},
{
closed = 1;
nodes = (
"510 712 OFFCURVE",
"553 745 OFFCURVE",
"553 788 CURVE SMOOTH",
"553 820 OFFCURVE",
"522 856 OFFCURVE",
"488 856 CURVE SMOOTH",
"445 856 OFFCURVE",
"398 819 OFFCURVE",
"398 772 CURVE SMOOTH",
"398 741 OFFCURVE",
"433 712 OFFCURVE",
"463 712 CURVE SMOOTH"
);
}
);
width = 624;
}
);
leftKerningGroup = C;
rightKerningGroup = C;
unicode = 010A;
},
{
glyphname = D;
lastChange = "2015-06-22 15:33:00 +0000";
layers = (
{
layerId = "647881E3-02F2-4150-93BB-7ED190F14AA3";
name = Regular;
paths = (
{
closed = 1;
nodes = (
"217 686 OFFCURVE",
"198 663 OFFCURVE",
"188 637 CURVE",
"132 623 OFFCURVE",
"86 604 OFFCURVE",
"58 586 CURVE",
"45 574 OFFCURVE",
"40 561 OFFCURVE",
"40 547 CURVE SMOOTH",
"40 523 OFFCURVE",
"48 497 OFFCURVE",
"64 480 CURVE",
"87 496 OFFCURVE",
"123 513 OFFCURVE",
"160 524 CURVE",
"55 119 LINE SMOOTH",
"53 112 OFFCURVE",
"52 105 OFFCURVE",
"52 98 CURVE SMOOTH",
"52 59 OFFCURVE",
"108 -3 OFFCURVE",
"141 -9 CURVE SMOOTH",
"165 -13 OFFCURVE",
"189 -16 OFFCURVE",
"212 -16 CURVE SMOOTH",
"421 -16 OFFCURVE",
"576 144 OFFCURVE",
"594 387 CURVE",
"595 395 OFFCURVE",
"595 404 OFFCURVE",
"595 412 CURVE SMOOTH",
"595 538 OFFCURVE",
"525 662 OFFCURVE",
"375 662 CURVE SMOOTH",
"347 662 OFFCURVE",
"339 662 OFFCURVE",
"309 657 CURVE",
"309 673 OFFCURVE",
"290 686 OFFCURVE",
"250 686 CURVE SMOOTH"
);
},
{
closed = 1;
nodes = (
"206 201 OFFCURVE",
"263 415 OFFCURVE",
"294 550 CURVE",
"311 553 OFFCURVE",
"331 554 OFFCURVE",
"345 554 CURVE SMOOTH",
"435 554 OFFCURVE",
"472 492 OFFCURVE",
"472 403 CURVE SMOOTH",
"472 385 OFFCURVE",
"471 366 OFFCURVE",
"468 347 CURVE SMOOTH",
"452 231 OFFCURVE",
"380 89 OFFCURVE",
"232 89 CURVE SMOOTH",
"217 89 OFFCURVE",
"196 91 OFFCURVE",
"180 95 CURVE"
);
}
);
width = 598;
}
);
leftKerningGroup = D;
rightKerningGroup = D;
unicode = 0044;
},
{
glyphname = DZ;
layers = (
{
layerId = "647881E3-02F2-4150-93BB-7ED190F14AA3";
name = Regular;
paths = (
{
closed = 1;
nodes = (
"217 686 OFFCURVE",
"198 663 OFFCURVE",
"188 637 CURVE",
"132 623 OFFCURVE",
"86 604 OFFCURVE",
"58 586 CURVE",
"45 574 OFFCURVE",
"40 561 OFFCURVE",
"40 547 CURVE SMOOTH",
"40 523 OFFCURVE",
"48 497 OFFCURVE",
"64 480 CURVE",
"87 496 OFFCURVE",
"123 513 OFFCURVE",
"160 524 CURVE",
"55 119 LINE SMOOTH",
"53 112 OFFCURVE",
"52 105 OFFCURVE",
"52 98 CURVE SMOOTH",
"52 59 OFFCURVE",
"108 -3 OFFCURVE",
"141 -9 CURVE SMOOTH",
"165 -13 OFFCURVE",
"189 -16 OFFCURVE",
"212 -16 CURVE SMOOTH",
"421 -16 OFFCURVE",
"576 144 OFFCURVE",
"594 387 CURVE",
"595 395 OFFCURVE",
"595 404 OFFCURVE",
"595 412 CURVE SMOOTH",
"595 538 OFFCURVE",
"525 662 OFFCURVE",
"375 662 CURVE SMOOTH",
"347 662 OFFCURVE",
"339 662 OFFCURVE",
"309 657 CURVE",
"309 673 OFFCURVE",
"290 686 OFFCURVE",
"250 686 CURVE SMOOTH"
);
},
{
closed = 1;
nodes = (
"206 201 OFFCURVE",
"263 415 OFFCURVE",
"294 550 CURVE",
"311 553 OFFCURVE",
"331 554 OFFCURVE",
"345 554 CURVE SMOOTH",
"435 554 OFFCURVE",
"472 492 OFFCURVE",
"472 403 CURVE SMOOTH",
"472 385 OFFCURVE",
"471 366 OFFCURVE",
"468 347 CURVE SMOOTH",
"452 231 OFFCURVE",
"380 89 OFFCURVE",
"232 89 CURVE SMOOTH",
"217 89 OFFCURVE",
"196 91 OFFCURVE",
"180 95 CURVE"
);
},
{
closed = 1;
nodes = (
"963 110 OFFCURVE",
"727 94 OFFCURVE",
"662 90 CURVE",
"633 83 OFFCURVE",
"599 60 OFFCURVE",
"599 35 CURVE SMOOTH",
"599 12 OFFCURVE",
"616 -3 OFFCURVE",
"635 -13 CURVE",
"706 -12 OFFCURVE",
"932 3 OFFCURVE",
"1038 17 CURVE",
"1066 30 OFFCURVE",
"1078 47 OFFCURVE",
"1078 64 CURVE SMOOTH",
"1078 84 OFFCURVE",
"1074 103 OFFCURVE",
"1047 123 CURVE"
);
},
{
closed = 1;
nodes = (
"813 560 OFFCURVE",
"1067 557 OFFCURVE",
"1132 561 CURVE",
"1161 568 OFFCURVE",
"1195 591 OFFCURVE",
"1195 616 CURVE SMOOTH",
"1195 639 OFFCURVE",
"1178 654 OFFCURVE",
"1159 664 CURVE",
"1088 663 OFFCURVE",
"862 648 OFFCURVE",
"756 634 CURVE",
"728 621 OFFCURVE",
"718 605 OFFCURVE",
"718 588 CURVE SMOOTH",
"718 568 OFFCURVE",
"729 535 OFFCURVE",
"749 519 CURVE"
);
},
{
closed = 1;
nodes = (
"742 44 OFFCURVE",
"1188 596 OFFCURVE",
"1188 596 CURVE SMOOTH",
"1188 596 OFFCURVE",
"1089 653 OFFCURVE",
"1089 653 CURVE SMOOTH",
"1089 653 OFFCURVE",
"606 55 OFFCURVE",
"606 55 CURVE SMOOTH",
"606 55 OFFCURVE",
"744 44 OFFCURVE",
"743 44 CURVE SMOOTH"
);
}
);
width = 1192;
}
);
unicode = 01F1;
},
{
glyphname = DZcaron;
layers = (
{
layerId = "647881E3-02F2-4150-93BB-7ED190F14AA3";
name = Regular;
paths = (
{
closed = 1;
nodes = (
"217 686 OFFCURVE",
"198 663 OFFCURVE",
"188 637 CURVE",
"132 623 OFFCURVE",
"86 604 OFFCURVE",
"58 586 CURVE",
"45 574 OFFCURVE",
"40 561 OFFCURVE",
"40 547 CURVE SMOOTH",
"40 523 OFFCURVE",
"48 497 OFFCURVE",
"64 480 CURVE",
"87 496 OFFCURVE",
"123 513 OFFCURVE",
"160 524 CURVE",
"55 119 LINE SMOOTH",
"53 112 OFFCURVE",
"52 105 OFFCURVE",
"52 98 CURVE SMOOTH",
"52 59 OFFCURVE",
"108 -3 OFFCURVE",
"141 -9 CURVE SMOOTH",
"165 -13 OFFCURVE",
"189 -16 OFFCURVE",
"212 -16 CURVE SMOOTH",
"421 -16 OFFCURVE",
"576 144 OFFCURVE",
"594 387 CURVE",
"595 395 OFFCURVE",
"595 404 OFFCURVE",
"595 412 CURVE SMOOTH",
"595 538 OFFCURVE",
"525 662 OFFCURVE",
"375 662 CURVE SMOOTH",
"347 662 OFFCURVE",
"339 662 OFFCURVE",
"309 657 CURVE",
"309 673 OFFCURVE",
"290 686 OFFCURVE",
"250 686 CURVE SMOOTH"
);
},
{
closed = 1;
nodes = (
"206 201 OFFCURVE",
"263 415 OFFCURVE",
"294 550 CURVE",
"311 553 OFFCURVE",
"331 554 OFFCURVE",
"345 554 CURVE SMOOTH",
"435 554 OFFCURVE",
"472 492 OFFCURVE",
"472 403 CURVE SMOOTH",
"472 385 OFFCURVE",
"471 366 OFFCURVE",
"468 347 CURVE SMOOTH",
"452 231 OFFCURVE",
"380 89 OFFCURVE",
"232 89 CURVE SMOOTH",
"217 89 OFFCURVE",
"196 91 OFFCURVE",
"180 95 CURVE"
);
},
{
closed = 1;
nodes = (
"916 110 OFFCURVE",
"680 94 OFFCURVE",
"615 90 CURVE",
"586 83 OFFCURVE",
"552 60 OFFCURVE",
"552 35 CURVE SMOOTH",
"552 12 OFFCURVE",
"569 -3 OFFCURVE",
"588 -13 CURVE",
"659 -12 OFFCURVE",
"885 3 OFFCURVE",
"991 17 CURVE",
"1019 30 OFFCURVE",
"1031 47 OFFCURVE",
"1031 64 CURVE SMOOTH",
"1031 84 OFFCURVE",
"1027 103 OFFCURVE",
"1000 123 CURVE"
);
},
{
closed = 1;
nodes = (
"766 560 OFFCURVE",
"1020 557 OFFCURVE",
"1085 561 CURVE",
"1114 568 OFFCURVE",
"1148 591 OFFCURVE",
"1148 616 CURVE SMOOTH",
"1148 639 OFFCURVE",
"1131 654 OFFCURVE",
"1112 664 CURVE",
"1041 663 OFFCURVE",
"815 648 OFFCURVE",
"709 634 CURVE",
"681 621 OFFCURVE",
"671 605 OFFCURVE",
"671 588 CURVE SMOOTH",
"671 568 OFFCURVE",
"682 535 OFFCURVE",
"702 519 CURVE"
);
},
{
closed = 1;
nodes = (
"695 44 OFFCURVE",
"1141 596 OFFCURVE",
"1141 596 CURVE SMOOTH",
"1141 596 OFFCURVE",
"1042 653 OFFCURVE",
"1042 653 CURVE SMOOTH",
"1042 653 OFFCURVE",
"559 55 OFFCURVE",
"559 55 CURVE SMOOTH",
"559 55 OFFCURVE",
"697 44 OFFCURVE",
"696 44 CURVE SMOOTH"
);
},
{
closed = 1;
nodes = (
"960 707 OFFCURVE",
"972 712 OFFCURVE",
"981 719 CURVE SMOOTH",
"1030 757 OFFCURVE",
"1079 798 OFFCURVE",
"1106 820 CURVE SMOOTH",
"1126 837 OFFCURVE",
"1127 848 OFFCURVE",
"1127 860 CURVE SMOOTH",
"1127 881 OFFCURVE",
"1100 893 OFFCURVE",
"1076 893 CURVE SMOOTH",
"1057 893 OFFCURVE",
"1017 860 OFFCURVE",
"946 799 CURVE",
"891 865 LINE SMOOTH",
"880 878 OFFCURVE",
"866 886 OFFCURVE",
"853 886 CURVE SMOOTH",
"826 886 OFFCURVE",
"801 869 OFFCURVE",
"801 847 CURVE SMOOTH",
"801 839 OFFCURVE",
"804 831 OFFCURVE",
"811 822 CURVE SMOOTH",
"862 756 LINE SMOOTH",
"895 713 OFFCURVE",
"911 707 OFFCURVE",
"936 707 CURVE SMOOTH"
);
}
);
width = 1154;
}
);
unicode = 01C4;
},
{
glyphname = Eth;
lastChange = "2015-06-22 11:27:16 +0000";
layers = (
{
layerId = "647881E3-02F2-4150-93BB-7ED190F14AA3";
name = Regular;
paths = (
{
closed = 1;
nodes = (
"217 686 OFFCURVE",
"198 663 OFFCURVE",
"188 637 CURVE",
"132 623 OFFCURVE",
"86 604 OFFCURVE",
"58 586 CURVE",
"45 574 OFFCURVE",
"40 561 OFFCURVE",
"40 547 CURVE SMOOTH",
"40 523 OFFCURVE",
"48 497 OFFCURVE",
"64 480 CURVE",
"87 496 OFFCURVE",
"123 513 OFFCURVE",
"160 524 CURVE",
"55 119 LINE SMOOTH",
"53 112 OFFCURVE",
"52 105 OFFCURVE",
"52 98 CURVE SMOOTH",
"52 59 OFFCURVE",
"108 -3 OFFCURVE",
"141 -9 CURVE SMOOTH",
"165 -13 OFFCURVE",
"189 -16 OFFCURVE",
"212 -16 CURVE SMOOTH",
"421 -16 OFFCURVE",
"576 144 OFFCURVE",
"594 387 CURVE",
"595 395 OFFCURVE",
"595 404 OFFCURVE",
"595 412 CURVE SMOOTH",
"595 538 OFFCURVE",
"525 662 OFFCURVE",
"375 662 CURVE SMOOTH",
"347 662 OFFCURVE",
"339 662 OFFCURVE",
"309 657 CURVE",
"309 673 OFFCURVE",
"290 686 OFFCURVE",
"250 686 CURVE SMOOTH"
);
},
{
closed = 1;
nodes = (
"206 201 OFFCURVE",
"263 415 OFFCURVE",
"294 550 CURVE",
"311 553 OFFCURVE",
"331 554 OFFCURVE",
"345 554 CURVE SMOOTH",
"435 554 OFFCURVE",
"472 492 OFFCURVE",
"472 403 CURVE SMOOTH",
"472 385 OFFCURVE",
"471 366 OFFCURVE",
"468 347 CURVE SMOOTH",
"452 231 OFFCURVE",
"380 89 OFFCURVE",
"232 89 CURVE SMOOTH",
"217 89 OFFCURVE",
"196 91 OFFCURVE",
"180 95 CURVE"
);
},
{
closed = 1;
nodes = (
"340 259 OFFCURVE",
"362 279 OFFCURVE",
"362 308 CURVE SMOOTH",
"362 313 LINE",
"359 339 OFFCURVE",
"339 363 OFFCURVE",
"306 363 CURVE SMOOTH",
"300 363 LINE",
"267 360 OFFCURVE",
"221 352 OFFCURVE",
"184 348 CURVE SMOOTH",
"79 338 LINE SMOOTH",
"20 332 OFFCURVE",
"3 311 OFFCURVE",
"3 279 CURVE SMOOTH",
"3 275 OFFCURVE",
"4 271 OFFCURVE",
"4 267 CURVE",
"7 244 OFFCURVE",
"26 223 OFFCURVE",
"58 223 CURVE SMOOTH",
"64 223 LINE",
"170 233 OFFCURVE",
"263 244 OFFCURVE",
"304 251 CURVE"
);
}
);
width = 598;
}
);
leftKerningGroup = D;
rightKerningGroup = D;
unicode = 00D0;
},
{
glyphname = Dcaron;
lastChange = "2015-06-22 11:27:16 +0000";
layers = (
{
layerId = "647881E3-02F2-4150-93BB-7ED190F14AA3";
name = Regular;
paths = (
{
closed = 1;
nodes = (
"217 686 OFFCURVE",
"198 663 OFFCURVE",
"188 637 CURVE",
"132 623 OFFCURVE",
"86 604 OFFCURVE",
"58 586 CURVE",
"45 574 OFFCURVE",
"40 561 OFFCURVE",
"40 547 CURVE SMOOTH",
"40 523 OFFCURVE",
"48 497 OFFCURVE",
"64 480 CURVE",
"87 496 OFFCURVE",
"123 513 OFFCURVE",
"160 524 CURVE",
"55 119 LINE SMOOTH",
"53 112 OFFCURVE",
"52 105 OFFCURVE",
"52 98 CURVE SMOOTH",
"52 59 OFFCURVE",
"108 -3 OFFCURVE",
"141 -9 CURVE SMOOTH",
"165 -13 OFFCURVE",
"189 -16 OFFCURVE",
"212 -16 CURVE SMOOTH",
"421 -16 OFFCURVE",
"576 144 OFFCURVE",
"594 387 CURVE",
"595 395 OFFCURVE",
"595 404 OFFCURVE",
"595 412 CURVE SMOOTH",
"595 538 OFFCURVE",
"525 662 OFFCURVE",
"375 662 CURVE SMOOTH",
"347 662 OFFCURVE",
"339 662 OFFCURVE",
"309 657 CURVE",
"309 673 OFFCURVE",
"290 686 OFFCURVE",
"250 686 CURVE SMOOTH"
);
},
{
closed = 1;
nodes = (
"206 201 OFFCURVE",
"263 415 OFFCURVE",
"294 550 CURVE",
"311 553 OFFCURVE",
"331 554 OFFCURVE",
"345 554 CURVE SMOOTH",
"435 554 OFFCURVE",
"472 492 OFFCURVE",
"472 403 CURVE SMOOTH",
"472 385 OFFCURVE",
"471 366 OFFCURVE",
"468 347 CURVE SMOOTH",
"452 231 OFFCURVE",
"380 89 OFFCURVE",
"232 89 CURVE SMOOTH",
"217 89 OFFCURVE",
"196 91 OFFCURVE",
"180 95 CURVE"
);
},
{
closed = 1;
nodes = (
"414 713 OFFCURVE",
"426 718 OFFCURVE",
"435 725 CURVE SMOOTH",
"484 763 OFFCURVE",
"533 804 OFFCURVE",
"560 826 CURVE SMOOTH",
"580 843 OFFCURVE",
"581 854 OFFCURVE",
"581 866 CURVE SMOOTH",
"581 887 OFFCURVE",
"554 899 OFFCURVE",
"530 899 CURVE SMOOTH",
"511 899 OFFCURVE",
"471 866 OFFCURVE",
"400 805 CURVE",
"345 871 LINE SMOOTH",
"334 884 OFFCURVE",
"320 892 OFFCURVE",
"307 892 CURVE SMOOTH",
"280 892 OFFCURVE",
"255 875 OFFCURVE",
"255 853 CURVE SMOOTH",
"255 845 OFFCURVE",
"258 837 OFFCURVE",
"265 828 CURVE SMOOTH",
"316 762 LINE SMOOTH",
"349 719 OFFCURVE",
"365 713 OFFCURVE",
"390 713 CURVE SMOOTH"
);
}
);
width = 598;
}
);
leftKerningGroup = D;
rightKerningGroup = D;
unicode = 010E;
},
{
glyphname = Dcroat;
lastChange = "2015-06-22 11:27:16 +0000";
layers = (
{
layerId = "647881E3-02F2-4150-93BB-7ED190F14AA3";
name = Regular;
paths = (
{
closed = 1;
nodes = (
"217 686 OFFCURVE",
"198 663 OFFCURVE",
"188 637 CURVE",
"132 623 OFFCURVE",
"86 604 OFFCURVE",
"58 586 CURVE",
"45 574 OFFCURVE",
"40 561 OFFCURVE",
"40 547 CURVE SMOOTH",
"40 523 OFFCURVE",
"48 497 OFFCURVE",
"64 480 CURVE",
"87 496 OFFCURVE",
"123 513 OFFCURVE",
"160 524 CURVE",
"55 119 LINE SMOOTH",
"53 112 OFFCURVE",
"52 105 OFFCURVE",
"52 98 CURVE SMOOTH",
"52 59 OFFCURVE",
"108 -3 OFFCURVE",
"141 -9 CURVE SMOOTH",
"165 -13 OFFCURVE",
"189 -16 OFFCURVE",
"212 -16 CURVE SMOOTH",
"421 -16 OFFCURVE",
"576 144 OFFCURVE",
"594 387 CURVE",
"595 395 OFFCURVE",
"595 404 OFFCURVE",
"595 412 CURVE SMOOTH",
"595 538 OFFCURVE",
"525 662 OFFCURVE",
"375 662 CURVE SMOOTH",
"347 662 OFFCURVE",
"339 662 OFFCURVE",
"309 657 CURVE",
"309 673 OFFCURVE",
"290 686 OFFCURVE",
"250 686 CURVE SMOOTH"
);
},
{
closed = 1;
nodes = (
"206 201 OFFCURVE",
"263 415 OFFCURVE",
"294 550 CURVE",
"311 553 OFFCURVE",
"331 554 OFFCURVE",
"345 554 CURVE SMOOTH",
"435 554 OFFCURVE",
"472 492 OFFCURVE",
"472 403 CURVE SMOOTH",
"472 385 OFFCURVE",
"471 366 OFFCURVE",
"468 347 CURVE SMOOTH",
"452 231 OFFCURVE",
"380 89 OFFCURVE",
"232 89 CURVE SMOOTH",
"217 89 OFFCURVE",
"196 91 OFFCURVE",
"180 95 CURVE"
);
},
{
closed = 1;
nodes = (
"340 259 OFFCURVE",
"362 279 OFFCURVE",
"362 308 CURVE SMOOTH",
"362 313 LINE",
"359 339 OFFCURVE",
"339 363 OFFCURVE",
"306 363 CURVE SMOOTH",
"300 363 LINE",
"267 360 OFFCURVE",
"221 352 OFFCURVE",
"184 348 CURVE SMOOTH",
"79 338 LINE SMOOTH",
"20 332 OFFCURVE",
"3 311 OFFCURVE",
"3 279 CURVE SMOOTH",
"3 275 OFFCURVE",
"4 271 OFFCURVE",
"4 267 CURVE",
"7 244 OFFCURVE",
"26 223 OFFCURVE",
"58 223 CURVE SMOOTH",
"64 223 LINE",
"170 233 OFFCURVE",
"263 244 OFFCURVE",
"304 251 CURVE"
);
}
);
width = 598;
}
);
leftKerningGroup = D;
rightKerningGroup = D;
unicode = 0110;
},
{
glyphname = Ddotbelow;
lastChange = "2015-06-22 11:27:16 +0000";
layers = (
{
layerId = "647881E3-02F2-4150-93BB-7ED190F14AA3";
name = Regular;
paths = (
{
closed = 1;
nodes = (
"217 686 OFFCURVE",
"198 663 OFFCURVE",
"188 637 CURVE",
"132 623 OFFCURVE",
"86 604 OFFCURVE",
"58 586 CURVE",
"45 574 OFFCURVE",
"40 561 OFFCURVE",
"40 547 CURVE SMOOTH",
"40 523 OFFCURVE",
"48 497 OFFCURVE",
"64 480 CURVE",
"87 496 OFFCURVE",
"123 513 OFFCURVE",
"160 524 CURVE",
"55 119 LINE SMOOTH",
"53 112 OFFCURVE",
"52 105 OFFCURVE",
"52 98 CURVE SMOOTH",
"52 59 OFFCURVE",
"108 -3 OFFCURVE",
"141 -9 CURVE SMOOTH",
"165 -13 OFFCURVE",
"189 -16 OFFCURVE",
"212 -16 CURVE SMOOTH",
"421 -16 OFFCURVE",
"576 144 OFFCURVE",
"594 387 CURVE",
"595 395 OFFCURVE",
"595 404 OFFCURVE",
"595 412 CURVE SMOOTH",
"595 538 OFFCURVE",
"525 662 OFFCURVE",
"375 662 CURVE SMOOTH",
"347 662 OFFCURVE",
"339 662 OFFCURVE",
"309 657 CURVE",
"309 673 OFFCURVE",
"290 686 OFFCURVE",
"250 686 CURVE SMOOTH"
);
},
{
closed = 1;
nodes = (
"206 201 OFFCURVE",
"263 415 OFFCURVE",
"294 550 CURVE",
"311 553 OFFCURVE",
"331 554 OFFCURVE",
"345 554 CURVE SMOOTH",
"435 554 OFFCURVE",
"472 492 OFFCURVE",
"472 403 CURVE SMOOTH",
"472 385 OFFCURVE",
"471 366 OFFCURVE",
"468 347 CURVE SMOOTH",
"452 231 OFFCURVE",
"380 89 OFFCURVE",
"232 89 CURVE SMOOTH",
"217 89 OFFCURVE",
"196 91 OFFCURVE",
"180 95 CURVE"
);
},
{
closed = 1;
nodes = (
"231 -215 OFFCURVE",
"274 -182 OFFCURVE",
"274 -139 CURVE SMOOTH",
"274 -107 OFFCURVE",
"243 -71 OFFCURVE",
"209 -71 CURVE SMOOTH",
"166 -71 OFFCURVE",
"119 -108 OFFCURVE",
"119 -155 CURVE SMOOTH",
"119 -186 OFFCURVE",
"154 -215 OFFCURVE",
"184 -215 CURVE SMOOTH"
);
}
);
width = 598;
}
);
leftKerningGroup = D;
rightKerningGroup = D;
unicode = 1E0C;
},
{
glyphname = Dlinebelow;
lastChange = "2015-06-22 11:27:16 +0000";
layers = (
{
layerId = "647881E3-02F2-4150-93BB-7ED190F14AA3";
name = Regular;
paths = (
{
closed = 1;
nodes = (
"217 686 OFFCURVE",
"198 663 OFFCURVE",
"188 637 CURVE",
"132 623 OFFCURVE",
"86 604 OFFCURVE",
"58 586 CURVE",
"45 574 OFFCURVE",
"40 561 OFFCURVE",
"40 547 CURVE SMOOTH",
"40 523 OFFCURVE",
"48 497 OFFCURVE",
"64 480 CURVE",
"87 496 OFFCURVE",
"123 513 OFFCURVE",
"160 524 CURVE",
"55 119 LINE SMOOTH",
"53 112 OFFCURVE",
"52 105 OFFCURVE",
"52 98 CURVE SMOOTH",
"52 59 OFFCURVE",
"108 -3 OFFCURVE",
"141 -9 CURVE SMOOTH",
"165 -13 OFFCURVE",
"189 -16 OFFCURVE",
"212 -16 CURVE SMOOTH",
"421 -16 OFFCURVE",
"576 144 OFFCURVE",
"594 387 CURVE",
"595 395 OFFCURVE",
"595 404 OFFCURVE",
"595 412 CURVE SMOOTH",
"595 538 OFFCURVE",
"525 662 OFFCURVE",
"375 662 CURVE SMOOTH",
"347 662 OFFCURVE",
"339 662 OFFCURVE",
"309 657 CURVE",
"309 673 OFFCURVE",
"290 686 OFFCURVE",
"250 686 CURVE SMOOTH"
);
},
{
closed = 1;
nodes = (
"206 201 OFFCURVE",
"263 415 OFFCURVE",
"294 550 CURVE",
"311 553 OFFCURVE",
"331 554 OFFCURVE",
"345 554 CURVE SMOOTH",
"435 554 OFFCURVE",
"472 492 OFFCURVE",
"472 403 CURVE SMOOTH",
"472 385 OFFCURVE",
"471 366 OFFCURVE",
"468 347 CURVE SMOOTH",
"452 231 OFFCURVE",
"380 89 OFFCURVE",
"232 89 CURVE SMOOTH",
"217 89 OFFCURVE",
"196 91 OFFCURVE",
"180 95 CURVE"
);
},
{
closed = 1;
nodes = (
"414 -100 LINE",
"413 -75 OFFCURVE",
"397 -70 OFFCURVE",
"366 -68 CURVE",
"177 -76 LINE SMOOTH",
"81 -80 OFFCURVE",
"49 -84 OFFCURVE",
"46 -127 CURVE",
"46 -135 LINE",
"48 -157 OFFCURVE",
"62 -173 OFFCURVE",
"93 -175 CURVE",
"108 -175 OFFCURVE",
"122 -173 OFFCURVE",
"136 -171 CURVE",
"345 -160 LINE SMOOTH",
"382 -158 OFFCURVE",
"412 -142 OFFCURVE",
"414 -107 CURVE"
);
}
);
width = 598;
}
);
leftKerningGroup = D;
rightKerningGroup = D;
unicode = 1E0E;
},
{
glyphname = Dz;
layers = (
{
layerId = "647881E3-02F2-4150-93BB-7ED190F14AA3";
name = Regular;
paths = (
{
closed = 1;
nodes = (
"217 686 OFFCURVE",
"198 663 OFFCURVE",
"188 637 CURVE",
"132 623 OFFCURVE",
"86 604 OFFCURVE",
"58 586 CURVE",
"45 574 OFFCURVE",
"40 561 OFFCURVE",
"40 547 CURVE SMOOTH",
"40 523 OFFCURVE",
"48 497 OFFCURVE",
"64 480 CURVE",
"87 496 OFFCURVE",
"123 513 OFFCURVE",
"160 524 CURVE",
"55 119 LINE SMOOTH",
"53 112 OFFCURVE",
"52 105 OFFCURVE",
"52 98 CURVE SMOOTH",
"52 59 OFFCURVE",
"108 -3 OFFCURVE",
"141 -9 CURVE SMOOTH",
"165 -13 OFFCURVE",
"189 -16 OFFCURVE",
"212 -16 CURVE SMOOTH",
"421 -16 OFFCURVE",
"576 144 OFFCURVE",
"594 387 CURVE",
"595 395 OFFCURVE",
"595 404 OFFCURVE",
"595 412 CURVE SMOOTH",
"595 538 OFFCURVE",
"525 662 OFFCURVE",
"375 662 CURVE SMOOTH",
"347 662 OFFCURVE",
"339 662 OFFCURVE",
"309 657 CURVE",
"309 673 OFFCURVE",
"290 686 OFFCURVE",
"250 686 CURVE SMOOTH"
);
},
{
closed = 1;
nodes = (
"206 201 OFFCURVE",
"263 415 OFFCURVE",
"294 550 CURVE",
"311 553 OFFCURVE",
"331 554 OFFCURVE",
"345 554 CURVE SMOOTH",
"435 554 OFFCURVE",
"472 492 OFFCURVE",
"472 403 CURVE SMOOTH",
"472 385 OFFCURVE",
"471 366 OFFCURVE",
"468 347 CURVE SMOOTH",
"452 231 OFFCURVE",
"380 89 OFFCURVE",
"232 89 CURVE SMOOTH",
"217 89 OFFCURVE",
"196 91 OFFCURVE",
"180 95 CURVE"
);
},
{
closed = 1;
nodes = (
"978 10 OFFCURVE",
"1003 29 OFFCURVE",
"1003 53 CURVE SMOOTH",
"1003 66 OFFCURVE",
"1002 97 OFFCURVE",
"965 97 CURVE SMOOTH",
"940 97 OFFCURVE",
"850 88 OFFCURVE",
"763 77 CURVE",
"859 177 OFFCURVE",
"954 282 OFFCURVE",
"1032 362 CURVE",
"1032 362 OFFCURVE",
"1043 371 OFFCURVE",
"1054 381 CURVE",
"1070 389 OFFCURVE",
"1085 405 OFFCURVE",
"1085 423 CURVE SMOOTH",
"1085 436 OFFCURVE",
"1084 467 OFFCURVE",
"1047 467 CURVE SMOOTH",
"1004 467 OFFCURVE",
"706 442 OFFCURVE",
"695 427 CURVE SMOOTH",
"683 410 OFFCURVE",
"677 392 OFFCURVE",
"677 377 CURVE SMOOTH",
"677 359 OFFCURVE",
"686 346 OFFCURVE",
"708 346 CURVE",
"907 365 LINE",
"804 264 OFFCURVE",
"721 164 OFFCURVE",
"613 52 CURVE",
"613 52 OFFCURVE",
"577 49 OFFCURVE",
"569 40 CURVE",
"565 36 OFFCURVE",
"564 31 OFFCURVE",
"564 26 CURVE SMOOTH",
"564 13 OFFCURVE",
"575 -5 OFFCURVE",
"578 -14 CURVE",
"581 -25 OFFCURVE",
"604 -32 OFFCURVE",
"627 -32 CURVE SMOOTH",
"639 -32 OFFCURVE",
"648 -29 OFFCURVE",
"957 6 CURVE"
);
}
);
width = 1073;
}
);
unicode = 01F2;
},
{
glyphname = Dzcaron;
layers = (
{
layerId = "647881E3-02F2-4150-93BB-7ED190F14AA3";
name = Regular;
paths = (
{
closed = 1;
nodes = (
"217 686 OFFCURVE",
"198 663 OFFCURVE",
"188 637 CURVE",
"132 623 OFFCURVE",
"86 604 OFFCURVE",
"58 586 CURVE",
"45 574 OFFCURVE",
"40 561 OFFCURVE",
"40 547 CURVE SMOOTH",
"40 523 OFFCURVE",
"48 497 OFFCURVE",
"64 480 CURVE",
"87 496 OFFCURVE",
"123 513 OFFCURVE",
"160 524 CURVE",
"55 119 LINE SMOOTH",
"53 112 OFFCURVE",
"52 105 OFFCURVE",
"52 98 CURVE SMOOTH",
"52 59 OFFCURVE",
"108 -3 OFFCURVE",
"141 -9 CURVE SMOOTH",
"165 -13 OFFCURVE",
"189 -16 OFFCURVE",
"212 -16 CURVE SMOOTH",
"421 -16 OFFCURVE",
"576 144 OFFCURVE",
"594 387 CURVE",
"595 395 OFFCURVE",
"595 404 OFFCURVE",
"595 412 CURVE SMOOTH",
"595 538 OFFCURVE",
"525 662 OFFCURVE",
"375 662 CURVE SMOOTH",
"347 662 OFFCURVE",
"339 662 OFFCURVE",
"309 657 CURVE",
"309 673 OFFCURVE",
"290 686 OFFCURVE",
"250 686 CURVE SMOOTH"
);
},
{
closed = 1;
nodes = (
"206 201 OFFCURVE",
"263 415 OFFCURVE",
"294 550 CURVE",
"311 553 OFFCURVE",
"331 554 OFFCURVE",
"345 554 CURVE SMOOTH",
"435 554 OFFCURVE",
"472 492 OFFCURVE",
"472 403 CURVE SMOOTH",
"472 385 OFFCURVE",
"471 366 OFFCURVE",
"468 347 CURVE SMOOTH",
"452 231 OFFCURVE",
"380 89 OFFCURVE",
"232 89 CURVE SMOOTH",
"217 89 OFFCURVE",
"196 91 OFFCURVE",
"180 95 CURVE"
);
},
{
closed = 1;
nodes = (
"942 544 OFFCURVE",
"954 549 OFFCURVE",
"963 556 CURVE SMOOTH",
"1012 594 OFFCURVE",
"1061 635 OFFCURVE",
"1088 657 CURVE SMOOTH",
"1108 674 OFFCURVE",
"1109 685 OFFCURVE",
"1109 697 CURVE SMOOTH",
"1109 718 OFFCURVE",
"1082 730 OFFCURVE",
"1058 730 CURVE SMOOTH",
"1039 730 OFFCURVE",
"999 697 OFFCURVE",
"928 636 CURVE",
"873 702 LINE SMOOTH",
"862 715 OFFCURVE",
"848 723 OFFCURVE",
"835 723 CURVE SMOOTH",
"808 723 OFFCURVE",
"783 706 OFFCURVE",
"783 684 CURVE SMOOTH",
"783 676 OFFCURVE",
"786 668 OFFCURVE",
"793 659 CURVE SMOOTH",
"844 593 LINE SMOOTH",
"877 550 OFFCURVE",
"893 544 OFFCURVE",
"918 544 CURVE SMOOTH"
);
},
{
closed = 1;
nodes = (
"976 10 OFFCURVE",
"1001 29 OFFCURVE",
"1001 53 CURVE SMOOTH",
"1001 66 OFFCURVE",
"1000 97 OFFCURVE",
"963 97 CURVE SMOOTH",
"938 97 OFFCURVE",
"848 88 OFFCURVE",
"761 77 CURVE",
"857 177 OFFCURVE",
"952 282 OFFCURVE",
"1030 362 CURVE",
"1030 362 OFFCURVE",
"1041 371 OFFCURVE",
"1052 381 CURVE",
"1068 389 OFFCURVE",
"1083 405 OFFCURVE",
"1083 423 CURVE SMOOTH",
"1083 436 OFFCURVE",
"1082 467 OFFCURVE",
"1045 467 CURVE SMOOTH",
"1002 467 OFFCURVE",
"704 442 OFFCURVE",
"693 427 CURVE SMOOTH",
"681 410 OFFCURVE",
"675 392 OFFCURVE",
"675 377 CURVE SMOOTH",
"675 359 OFFCURVE",
"684 346 OFFCURVE",
"706 346 CURVE",
"905 365 LINE",
"802 264 OFFCURVE",
"719 164 OFFCURVE",
"611 52 CURVE",
"611 52 OFFCURVE",
"575 49 OFFCURVE",
"567 40 CURVE",
"563 36 OFFCURVE",
"562 31 OFFCURVE",
"562 26 CURVE SMOOTH",
"562 13 OFFCURVE",
"573 -5 OFFCURVE",
"576 -14 CURVE",
"579 -25 OFFCURVE",
"602 -32 OFFCURVE",
"625 -32 CURVE SMOOTH",
"637 -32 OFFCURVE",
"646 -29 OFFCURVE",
"955 6 CURVE"
);
}
);
width = 1073;
}
);
unicode = 01C5;
},
{
glyphname = E;
lastChange = "2015-06-22 12:35:26 +0000";
layers = (
{
layerId = "647881E3-02F2-4150-93BB-7ED190F14AA3";
name = Regular;
paths = (
{
closed = 1;
nodes = (
"457 306 OFFCURVE",
"488 331 OFFCURVE",
"488 356 CURVE SMOOTH",
"488 378 OFFCURVE",
"470 393 OFFCURVE",
"449 402 CURVE",
"379 396 OFFCURVE",
"352 392 OFFCURVE",
"252 376 CURVE",
"280 486 OFFCURVE",
"304 582 OFFCURVE",
"317 644 CURVE",
"317 648 OFFCURVE",
"314 649 OFFCURVE",
"310 649 CURVE SMOOTH",
"296 649 OFFCURVE",
"258 631 OFFCURVE",
"233 631 CURVE SMOOTH",
"214 631 OFFCURVE",
"202 634 OFFCURVE",
"195 634 CURVE SMOOTH",
"185 634 OFFCURVE",
"182 628 OFFCURVE",
"174 595 CURVE SMOOTH",
"46 89 LINE SMOOTH",
"44 82 OFFCURVE",
"43 75 OFFCURVE",
"43 68 CURVE SMOOTH",
"43 33 OFFCURVE",
"75 -12 OFFCURVE",
"114 -12 CURVE SMOOTH",
"169 -12 OFFCURVE",
"158 -1 OFFCURVE",
"167 36 CURVE SMOOTH",
"175 69 OFFCURVE",
"208 191 OFFCURVE",
"226 271 CURVE",
"307 285 OFFCURVE",
"364 289 OFFCURVE",
"429 297 CURVE"
);
},
{
closed = 1;
nodes = (
"241 553 OFFCURVE",
"477 569 OFFCURVE",
"542 573 CURVE",
"571 580 OFFCURVE",
"605 603 OFFCURVE",
"605 628 CURVE SMOOTH",
"605 651 OFFCURVE",
"588 666 OFFCURVE",
"569 676 CURVE",
"498 675 OFFCURVE",
"272 660 OFFCURVE",
"166 646 CURVE",
"138 633 OFFCURVE",
"129 617 OFFCURVE",
"128 600 CURVE",
"128 580 OFFCURVE",
"155 558 OFFCURVE",
"157 540 CURVE"
);
},
{
closed = 1;
nodes = (
"134 -10 LINE",
"217 8 OFFCURVE",
"356 23 OFFCURVE",
"421 31 CURVE",
"449 40 OFFCURVE",
"480 65 OFFCURVE",
"480 90 CURVE SMOOTH",
"480 112 OFFCURVE",
"462 127 OFFCURVE",
"441 136 CURVE",
"371 130 OFFCURVE",
"258 116 OFFCURVE",
"153 95 CURVE"
);
}
);
width = 555;
}
);
leftKerningGroup = E;
rightKerningGroup = E;
unicode = 0045;
},
{
glyphname = Eacute;
lastChange = "2015-06-22 11:16:28 +0000";
layers = (
{
layerId = "647881E3-02F2-4150-93BB-7ED190F14AA3";
name = Regular;
paths = (
{
closed = 1;
nodes = (
"457 306 OFFCURVE",
"488 331 OFFCURVE",
"488 356 CURVE SMOOTH",
"488 378 OFFCURVE",
"470 393 OFFCURVE",
"449 402 CURVE",
"379 396 OFFCURVE",
"352 392 OFFCURVE",
"252 376 CURVE",
"280 486 OFFCURVE",
"304 582 OFFCURVE",
"317 644 CURVE",
"317 648 OFFCURVE",
"314 649 OFFCURVE",
"310 649 CURVE SMOOTH",
"296 649 OFFCURVE",
"258 631 OFFCURVE",
"233 631 CURVE SMOOTH",
"214 631 OFFCURVE",
"202 634 OFFCURVE",
"195 634 CURVE SMOOTH",
"185 634 OFFCURVE",
"182 628 OFFCURVE",
"174 595 CURVE SMOOTH",
"46 89 LINE SMOOTH",
"44 82 OFFCURVE",
"43 75 OFFCURVE",
"43 68 CURVE SMOOTH",
"43 33 OFFCURVE",
"75 -12 OFFCURVE",
"114 -12 CURVE SMOOTH",
"169 -12 OFFCURVE",
"158 -1 OFFCURVE",
"167 36 CURVE SMOOTH",
"175 69 OFFCURVE",
"208 191 OFFCURVE",
"226 271 CURVE",
"307 285 OFFCURVE",
"364 289 OFFCURVE",
"429 297 CURVE"
);
},
{
closed = 1;
nodes = (
"241 553 OFFCURVE",
"477 569 OFFCURVE",
"542 573 CURVE",
"571 580 OFFCURVE",
"605 603 OFFCURVE",
"605 628 CURVE SMOOTH",
"605 651 OFFCURVE",
"588 666 OFFCURVE",
"569 676 CURVE",
"498 675 OFFCURVE",
"272 660 OFFCURVE",
"166 646 CURVE",
"138 633 OFFCURVE",
"129 617 OFFCURVE",
"128 600 CURVE",
"128 580 OFFCURVE",
"155 558 OFFCURVE",
"157 540 CURVE"
);
},
{
closed = 1;
nodes = (
"134 -10 LINE",
"217 8 OFFCURVE",
"356 23 OFFCURVE",
"421 31 CURVE",
"449 40 OFFCURVE",
"480 65 OFFCURVE",
"480 90 CURVE SMOOTH",
"480 112 OFFCURVE",
"462 127 OFFCURVE",
"441 136 CURVE",
"371 130 OFFCURVE",
"258 116 OFFCURVE",
"153 95 CURVE"
);
},
{
closed = 1;
nodes = (
"256 753 OFFCURVE",
"255 749 OFFCURVE",
"255 744 CURVE SMOOTH",
"255 721 OFFCURVE",
"267 713 OFFCURVE",
"292 713 CURVE SMOOTH",
"329 713 OFFCURVE",
"367 736 OFFCURVE",
"443 789 CURVE SMOOTH",
"495 825 OFFCURVE",
"514 839 OFFCURVE",
"514 858 CURVE SMOOTH",
"514 879 OFFCURVE",
"466 912 OFFCURVE",
"439 912 CURVE SMOOTH",
"415 912 OFFCURVE",
"286 799 OFFCURVE",
"258 756 CURVE SMOOTH"
);
}
);
width = 555;
}
);
leftKerningGroup = E;
rightKerningGroup = E;
unicode = 00C9;
},
{
glyphname = Ebreve;
lastChange = "2015-06-22 11:16:28 +0000";
layers = (
{
layerId = "647881E3-02F2-4150-93BB-7ED190F14AA3";
name = Regular;
paths = (
{
closed = 1;
nodes = (
"457 306 OFFCURVE",
"488 331 OFFCURVE",
"488 356 CURVE SMOOTH",
"488 378 OFFCURVE",
"470 393 OFFCURVE",
"449 402 CURVE",
"379 396 OFFCURVE",
"352 392 OFFCURVE",
"252 376 CURVE",
"280 486 OFFCURVE",
"304 582 OFFCURVE",
"317 644 CURVE",
"317 648 OFFCURVE",
"314 649 OFFCURVE",
"310 649 CURVE SMOOTH",
"296 649 OFFCURVE",
"258 631 OFFCURVE",
"233 631 CURVE SMOOTH",
"214 631 OFFCURVE",
"202 634 OFFCURVE",
"195 634 CURVE SMOOTH",
"185 634 OFFCURVE",
"182 628 OFFCURVE",
"174 595 CURVE SMOOTH",
"46 89 LINE SMOOTH",
"44 82 OFFCURVE",
"43 75 OFFCURVE",
"43 68 CURVE SMOOTH",
"43 33 OFFCURVE",
"75 -12 OFFCURVE",
"114 -12 CURVE SMOOTH",
"169 -12 OFFCURVE",
"158 -1 OFFCURVE",
"167 36 CURVE SMOOTH",
"175 69 OFFCURVE",
"208 191 OFFCURVE",
"226 271 CURVE",
"307 285 OFFCURVE",
"364 289 OFFCURVE",
"429 297 CURVE"
);
},
{
closed = 1;
nodes = (
"241 553 OFFCURVE",
"477 569 OFFCURVE",
"542 573 CURVE",
"571 580 OFFCURVE",
"605 603 OFFCURVE",
"605 628 CURVE SMOOTH",
"605 651 OFFCURVE",
"588 666 OFFCURVE",
"569 676 CURVE",
"498 675 OFFCURVE",
"272 660 OFFCURVE",
"166 646 CURVE",
"138 633 OFFCURVE",
"129 617 OFFCURVE",
"128 600 CURVE",
"128 580 OFFCURVE",
"155 558 OFFCURVE",
"157 540 CURVE"
);
},
{
closed = 1;
nodes = (
"134 -10 LINE",
"217 8 OFFCURVE",
"356 23 OFFCURVE",
"421 31 CURVE",
"449 40 OFFCURVE",
"480 65 OFFCURVE",
"480 90 CURVE SMOOTH",
"480 112 OFFCURVE",
"462 127 OFFCURVE",
"441 136 CURVE",
"371 130 OFFCURVE",
"258 116 OFFCURVE",
"153 95 CURVE"
);
},
{
closed = 1;
nodes = (
"491 711 OFFCURVE",
"577 754 OFFCURVE",
"591 853 CURVE",
"582 867 OFFCURVE",
"559 867 OFFCURVE",
"547 867 CURVE SMOOTH",
"537 867 OFFCURVE",
"522 861 OFFCURVE",
"513 853 CURVE",
"491 809 OFFCURVE",
"477 790 OFFCURVE",
"411 790 CURVE SMOOTH",
"360 790 OFFCURVE",
"356 803 OFFCURVE",
"355 826 CURVE SMOOTH",
"354 857 OFFCURVE",
"332 858 OFFCURVE",
"321 858 CURVE SMOOTH",
"275 858 OFFCURVE",
"268 827 OFFCURVE",
"268 803 CURVE SMOOTH",
"268 741 OFFCURVE",
"324 709 OFFCURVE",
"403 709 CURVE SMOOTH"
);
}
);
width = 555;
}
);
leftKerningGroup = E;
rightKerningGroup = E;
unicode = 0114;
},
{
glyphname = Ecaron;
lastChange = "2015-06-22 11:16:28 +0000";
layers = (
{
layerId = "647881E3-02F2-4150-93BB-7ED190F14AA3";
name = Regular;
paths = (
{
closed = 1;
nodes = (
"457 306 OFFCURVE",
"488 331 OFFCURVE",
"488 356 CURVE SMOOTH",
"488 378 OFFCURVE",
"470 393 OFFCURVE",
"449 402 CURVE",
"379 396 OFFCURVE",
"352 392 OFFCURVE",
"252 376 CURVE",
"280 486 OFFCURVE",
"304 582 OFFCURVE",
"317 644 CURVE",
"317 648 OFFCURVE",
"314 649 OFFCURVE",
"310 649 CURVE SMOOTH",
"296 649 OFFCURVE",
"258 631 OFFCURVE",
"233 631 CURVE SMOOTH",
"214 631 OFFCURVE",
"202 634 OFFCURVE",
"195 634 CURVE SMOOTH",
"185 634 OFFCURVE",
"182 628 OFFCURVE",
"174 595 CURVE SMOOTH",
"46 89 LINE SMOOTH",
"44 82 OFFCURVE",
"43 75 OFFCURVE",
"43 68 CURVE SMOOTH",
"43 33 OFFCURVE",
"75 -12 OFFCURVE",
"114 -12 CURVE SMOOTH",
"169 -12 OFFCURVE",
"158 -1 OFFCURVE",
"167 36 CURVE SMOOTH",
"175 69 OFFCURVE",
"208 191 OFFCURVE",
"226 271 CURVE",
"307 285 OFFCURVE",
"364 289 OFFCURVE",
"429 297 CURVE"
);
},
{
closed = 1;
nodes = (
"241 553 OFFCURVE",
"477 569 OFFCURVE",
"542 573 CURVE",
"571 580 OFFCURVE",
"605 603 OFFCURVE",
"605 628 CURVE SMOOTH",
"605 651 OFFCURVE",
"588 666 OFFCURVE",
"569 676 CURVE",
"498 675 OFFCURVE",
"272 660 OFFCURVE",
"166 646 CURVE",
"138 633 OFFCURVE",
"129 617 OFFCURVE",
"128 600 CURVE",
"128 580 OFFCURVE",
"155 558 OFFCURVE",
"157 540 CURVE"
);
},
{
closed = 1;
nodes = (
"134 -10 LINE",
"217 8 OFFCURVE",
"356 23 OFFCURVE",
"421 31 CURVE",
"449 40 OFFCURVE",
"480 65 OFFCURVE",
"480 90 CURVE SMOOTH",
"480 112 OFFCURVE",
"462 127 OFFCURVE",
"441 136 CURVE",
"371 130 OFFCURVE",
"258 116 OFFCURVE",
"153 95 CURVE"
);
},
{
closed = 1;
nodes = (
"426 709 OFFCURVE",
"438 714 OFFCURVE",
"447 721 CURVE SMOOTH",
"496 759 OFFCURVE",
"545 800 OFFCURVE",
"572 822 CURVE SMOOTH",
"592 839 OFFCURVE",
"593 850 OFFCURVE",
"593 862 CURVE SMOOTH",
"593 883 OFFCURVE",
"566 895 OFFCURVE",
"542 895 CURVE SMOOTH",
"523 895 OFFCURVE",
"483 862 OFFCURVE",
"412 801 CURVE",
"357 867 LINE SMOOTH",
"346 880 OFFCURVE",
"332 888 OFFCURVE",
"319 888 CURVE SMOOTH",
"292 888 OFFCURVE",
"267 871 OFFCURVE",
"267 849 CURVE SMOOTH",
"267 841 OFFCURVE",
"270 833 OFFCURVE",
"277 824 CURVE SMOOTH",
"328 758 LINE SMOOTH",
"361 715 OFFCURVE",
"377 709 OFFCURVE",
"402 709 CURVE SMOOTH"
);
}
);
width = 555;
}
);
leftKerningGroup = E;
rightKerningGroup = E;
unicode = 011A;
},
{
glyphname = Ecircumflex;
lastChange = "2015-06-22 11:16:28 +0000";
layers = (
{
layerId = "647881E3-02F2-4150-93BB-7ED190F14AA3";
name = Regular;
paths = (
{
closed = 1;
nodes = (
"457 306 OFFCURVE",
"488 331 OFFCURVE",
"488 356 CURVE SMOOTH",
"488 378 OFFCURVE",
"470 393 OFFCURVE",
"449 402 CURVE",
"379 396 OFFCURVE",
"352 392 OFFCURVE",
"252 376 CURVE",
"280 486 OFFCURVE",
"304 582 OFFCURVE",
"317 644 CURVE",
"317 648 OFFCURVE",
"314 649 OFFCURVE",
"310 649 CURVE SMOOTH",
"296 649 OFFCURVE",
"258 631 OFFCURVE",
"233 631 CURVE SMOOTH",
"214 631 OFFCURVE",
"202 634 OFFCURVE",
"195 634 CURVE SMOOTH",
"185 634 OFFCURVE",
"182 628 OFFCURVE",
"174 595 CURVE SMOOTH",
"46 89 LINE SMOOTH",
"44 82 OFFCURVE",
"43 75 OFFCURVE",
"43 68 CURVE SMOOTH",
"43 33 OFFCURVE",
"75 -12 OFFCURVE",
"114 -12 CURVE SMOOTH",
"169 -12 OFFCURVE",
"158 -1 OFFCURVE",
"167 36 CURVE SMOOTH",
"175 69 OFFCURVE",
"208 191 OFFCURVE",
"226 271 CURVE",
"307 285 OFFCURVE",
"364 289 OFFCURVE",
"429 297 CURVE"
);
},
{
closed = 1;
nodes = (
"241 553 OFFCURVE",
"477 569 OFFCURVE",
"542 573 CURVE",
"571 580 OFFCURVE",
"605 603 OFFCURVE",
"605 628 CURVE SMOOTH",
"605 651 OFFCURVE",
"588 666 OFFCURVE",
"569 676 CURVE",
"498 675 OFFCURVE",
"272 660 OFFCURVE",
"166 646 CURVE",
"138 633 OFFCURVE",
"129 617 OFFCURVE",
"128 600 CURVE",
"128 580 OFFCURVE",
"155 558 OFFCURVE",
"157 540 CURVE"
);
},
{
closed = 1;
nodes = (
"134 -10 LINE",
"217 8 OFFCURVE",
"356 23 OFFCURVE",
"421 31 CURVE",
"449 40 OFFCURVE",
"480 65 OFFCURVE",
"480 90 CURVE SMOOTH",
"480 112 OFFCURVE",
"462 127 OFFCURVE",
"441 136 CURVE",
"371 130 OFFCURVE",
"258 116 OFFCURVE",
"153 95 CURVE"
);
},
{
closed = 1;
nodes = (
"388 889 OFFCURVE",
"376 884 OFFCURVE",
"367 877 CURVE SMOOTH",
"318 839 OFFCURVE",
"269 798 OFFCURVE",
"242 776 CURVE SMOOTH",
"222 759 OFFCURVE",
"221 748 OFFCURVE",
"221 736 CURVE SMOOTH",
"221 715 OFFCURVE",
"248 703 OFFCURVE",
"272 703 CURVE SMOOTH",
"291 703 OFFCURVE",
"331 736 OFFCURVE",
"402 797 CURVE",
"457 731 LINE SMOOTH",
"468 718 OFFCURVE",
"482 710 OFFCURVE",
"495 710 CURVE SMOOTH",
"522 710 OFFCURVE",
"547 727 OFFCURVE",
"547 749 CURVE SMOOTH",
"547 757 OFFCURVE",
"544 765 OFFCURVE",
"537 774 CURVE SMOOTH",
"486 840 LINE SMOOTH",
"453 883 OFFCURVE",
"437 889 OFFCURVE",
"412 889 CURVE SMOOTH"
);
}
);
width = 555;
}
);
leftKerningGroup = E;
rightKerningGroup = E;
unicode = 00CA;
},
{
glyphname = Ecircumflexacute;
lastChange = "2015-06-22 11:16:28 +0000";
layers = (
{
layerId = "647881E3-02F2-4150-93BB-7ED190F14AA3";
name = Regular;
paths = (
{
closed = 1;
nodes = (
"457 306 OFFCURVE",
"488 331 OFFCURVE",
"488 356 CURVE SMOOTH",
"488 378 OFFCURVE",
"470 393 OFFCURVE",
"449 402 CURVE",
"379 396 OFFCURVE",
"352 392 OFFCURVE",
"252 376 CURVE",
"280 486 OFFCURVE",
"304 582 OFFCURVE",
"317 644 CURVE",
"317 648 OFFCURVE",
"314 649 OFFCURVE",
"310 649 CURVE SMOOTH",
"296 649 OFFCURVE",
"258 631 OFFCURVE",
"233 631 CURVE SMOOTH",
"214 631 OFFCURVE",
"202 634 OFFCURVE",
"195 634 CURVE SMOOTH",
"185 634 OFFCURVE",
"182 628 OFFCURVE",
"174 595 CURVE SMOOTH",
"46 89 LINE SMOOTH",
"44 82 OFFCURVE",
"43 75 OFFCURVE",
"43 68 CURVE SMOOTH",
"43 33 OFFCURVE",
"75 -12 OFFCURVE",
"114 -12 CURVE SMOOTH",
"169 -12 OFFCURVE",
"158 -1 OFFCURVE",
"167 36 CURVE SMOOTH",
"175 69 OFFCURVE",
"208 191 OFFCURVE",
"226 271 CURVE",
"307 285 OFFCURVE",
"364 289 OFFCURVE",
"429 297 CURVE"
);
},
{
closed = 1;
nodes = (
"241 553 OFFCURVE",
"477 569 OFFCURVE",
"542 573 CURVE",
"571 580 OFFCURVE",
"605 603 OFFCURVE",
"605 628 CURVE SMOOTH",
"605 651 OFFCURVE",
"588 666 OFFCURVE",
"569 676 CURVE",
"498 675 OFFCURVE",
"272 660 OFFCURVE",
"166 646 CURVE",
"138 633 OFFCURVE",
"129 617 OFFCURVE",
"128 600 CURVE",
"128 580 OFFCURVE",
"155 558 OFFCURVE",
"157 540 CURVE"
);
},
{
closed = 1;
nodes = (
"134 -10 LINE",
"217 8 OFFCURVE",
"356 23 OFFCURVE",
"421 31 CURVE",
"449 40 OFFCURVE",
"480 65 OFFCURVE",
"480 90 CURVE SMOOTH",
"480 112 OFFCURVE",
"462 127 OFFCURVE",
"441 136 CURVE",
"371 130 OFFCURVE",
"258 116 OFFCURVE",
"153 95 CURVE"
);
},
{
closed = 1;
nodes = (
"406 888 OFFCURVE",
"394 883 OFFCURVE",
"385 876 CURVE SMOOTH",
"336 838 OFFCURVE",
"287 797 OFFCURVE",
"260 775 CURVE SMOOTH",
"240 758 OFFCURVE",
"239 747 OFFCURVE",
"239 735 CURVE SMOOTH",
"239 714 OFFCURVE",
"266 702 OFFCURVE",
"290 702 CURVE SMOOTH",
"309 702 OFFCURVE",
"349 735 OFFCURVE",
"420 796 CURVE",
"475 730 LINE SMOOTH",
"486 717 OFFCURVE",
"500 709 OFFCURVE",
"513 709 CURVE SMOOTH",
"540 709 OFFCURVE",
"565 726 OFFCURVE",
"565 748 CURVE SMOOTH",
"565 756 OFFCURVE",
"562 764 OFFCURVE",
"555 773 CURVE SMOOTH",
"504 839 LINE SMOOTH",
"471 882 OFFCURVE",
"455 888 OFFCURVE",
"430 888 CURVE SMOOTH"
);
},
{
closed = 1;
nodes = (
"534 859 OFFCURVE",
"533 856 OFFCURVE",
"533 853 CURVE SMOOTH",
"533 836 OFFCURVE",
"541 831 OFFCURVE",
"559 831 CURVE SMOOTH",
"585 831 OFFCURVE",
"602 850 OFFCURVE",
"655 887 CURVE SMOOTH",
"692 912 OFFCURVE",
"705 922 OFFCURVE",
"705 935 CURVE SMOOTH",
"705 950 OFFCURVE",
"649 972 OFFCURVE",
"630 972 CURVE SMOOTH",
"613 972 OFFCURVE",
"555 891 OFFCURVE",
"535 861 CURVE"
);
}
);
width = 555;
}
);
leftKerningGroup = E;
rightKerningGroup = E;
unicode = 1EBE;
},
{
glyphname = Ecircumflexdotbelow;
lastChange = "2015-06-22 11:16:28 +0000";
layers = (
{
layerId = "647881E3-02F2-4150-93BB-7ED190F14AA3";
name = Regular;
paths = (
{
closed = 1;
nodes = (
"457 306 OFFCURVE",
"488 331 OFFCURVE",
"488 356 CURVE SMOOTH",
"488 378 OFFCURVE",
"470 393 OFFCURVE",
"449 402 CURVE",
"379 396 OFFCURVE",
"352 392 OFFCURVE",
"252 376 CURVE",
"280 486 OFFCURVE",
"304 582 OFFCURVE",
"317 644 CURVE",
"317 648 OFFCURVE",
"314 649 OFFCURVE",
"310 649 CURVE SMOOTH",
"296 649 OFFCURVE",
"258 631 OFFCURVE",
"233 631 CURVE SMOOTH",
"214 631 OFFCURVE",
"202 634 OFFCURVE",
"195 634 CURVE SMOOTH",
"185 634 OFFCURVE",
"182 628 OFFCURVE",
"174 595 CURVE SMOOTH",
"46 89 LINE SMOOTH",
"44 82 OFFCURVE",
"43 75 OFFCURVE",
"43 68 CURVE SMOOTH",
"43 33 OFFCURVE",
"75 -12 OFFCURVE",
"114 -12 CURVE SMOOTH",
"169 -12 OFFCURVE",
"158 -1 OFFCURVE",
"167 36 CURVE SMOOTH",
"175 69 OFFCURVE",
"208 191 OFFCURVE",
"226 271 CURVE",
"307 285 OFFCURVE",
"364 289 OFFCURVE",
"429 297 CURVE"
);
},
{
closed = 1;
nodes = (
"241 553 OFFCURVE",
"477 569 OFFCURVE",
"542 573 CURVE",
"571 580 OFFCURVE",
"605 603 OFFCURVE",
"605 628 CURVE SMOOTH",
"605 651 OFFCURVE",
"588 666 OFFCURVE",
"569 676 CURVE",
"498 675 OFFCURVE",
"272 660 OFFCURVE",
"166 646 CURVE",
"138 633 OFFCURVE",
"129 617 OFFCURVE",
"128 600 CURVE",
"128 580 OFFCURVE",
"155 558 OFFCURVE",
"157 540 CURVE"
);
},
{
closed = 1;
nodes = (
"134 -10 LINE",
"217 8 OFFCURVE",
"356 23 OFFCURVE",
"421 31 CURVE",
"449 40 OFFCURVE",
"480 65 OFFCURVE",
"480 90 CURVE SMOOTH",
"480 112 OFFCURVE",
"462 127 OFFCURVE",
"441 136 CURVE",
"371 130 OFFCURVE",
"258 116 OFFCURVE",
"153 95 CURVE"
);
},
{
closed = 1;
nodes = (
"306 -215 OFFCURVE",
"349 -182 OFFCURVE",
"349 -139 CURVE SMOOTH",
"349 -107 OFFCURVE",
"318 -71 OFFCURVE",
"284 -71 CURVE SMOOTH",
"241 -71 OFFCURVE",
"194 -108 OFFCURVE",
"194 -155 CURVE SMOOTH",
"194 -186 OFFCURVE",
"229 -215 OFFCURVE",
"259 -215 CURVE SMOOTH"
);
},
{
closed = 1;
nodes = (
"406 888 OFFCURVE",
"394 883 OFFCURVE",
"385 876 CURVE SMOOTH",
"336 838 OFFCURVE",
"287 797 OFFCURVE",
"260 775 CURVE SMOOTH",
"240 758 OFFCURVE",
"239 747 OFFCURVE",
"239 735 CURVE SMOOTH",
"239 714 OFFCURVE",
"266 702 OFFCURVE",
"290 702 CURVE SMOOTH",
"309 702 OFFCURVE",
"349 735 OFFCURVE",
"420 796 CURVE",
"475 730 LINE SMOOTH",
"486 717 OFFCURVE",
"500 709 OFFCURVE",
"513 709 CURVE SMOOTH",
"540 709 OFFCURVE",
"565 726 OFFCURVE",
"565 748 CURVE SMOOTH",
"565 756 OFFCURVE",
"562 764 OFFCURVE",
"555 773 CURVE SMOOTH",
"504 839 LINE SMOOTH",
"471 882 OFFCURVE",
"455 888 OFFCURVE",
"430 888 CURVE SMOOTH"
);
}
);
width = 555;
}
);
leftKerningGroup = E;
rightKerningGroup = E;
unicode = 1EC6;
},
{
glyphname = Ecircumflexgrave;
lastChange = "2015-06-22 11:16:28 +0000";
layers = (
{
layerId = "647881E3-02F2-4150-93BB-7ED190F14AA3";
name = Regular;
paths = (
{
closed = 1;
nodes = (
"457 306 OFFCURVE",
"488 331 OFFCURVE",
"488 356 CURVE SMOOTH",
"488 378 OFFCURVE",
"470 393 OFFCURVE",
"449 402 CURVE",
"379 396 OFFCURVE",
"352 392 OFFCURVE",
"252 376 CURVE",
"280 486 OFFCURVE",
"304 582 OFFCURVE",
"317 644 CURVE",
"317 648 OFFCURVE",
"314 649 OFFCURVE",
"310 649 CURVE SMOOTH",
"296 649 OFFCURVE",
"258 631 OFFCURVE",
"233 631 CURVE SMOOTH",
"214 631 OFFCURVE",
"202 634 OFFCURVE",
"195 634 CURVE SMOOTH",
"185 634 OFFCURVE",
"182 628 OFFCURVE",
"174 595 CURVE SMOOTH",
"46 89 LINE SMOOTH",
"44 82 OFFCURVE",
"43 75 OFFCURVE",
"43 68 CURVE SMOOTH",
"43 33 OFFCURVE",
"75 -12 OFFCURVE",
"114 -12 CURVE SMOOTH",
"169 -12 OFFCURVE",
"158 -1 OFFCURVE",
"167 36 CURVE SMOOTH",
"175 69 OFFCURVE",
"208 191 OFFCURVE",
"226 271 CURVE",
"307 285 OFFCURVE",
"364 289 OFFCURVE",
"429 297 CURVE"
);
},
{
closed = 1;
nodes = (
"241 553 OFFCURVE",
"477 569 OFFCURVE",
"542 573 CURVE",
"571 580 OFFCURVE",
"605 603 OFFCURVE",
"605 628 CURVE SMOOTH",
"605 651 OFFCURVE",
"588 666 OFFCURVE",
"569 676 CURVE",
"498 675 OFFCURVE",
"272 660 OFFCURVE",
"166 646 CURVE",
"138 633 OFFCURVE",
"129 617 OFFCURVE",
"128 600 CURVE",
"128 580 OFFCURVE",
"155 558 OFFCURVE",
"157 540 CURVE"
);
},
{
closed = 1;
nodes = (
"134 -10 LINE",
"217 8 OFFCURVE",
"356 23 OFFCURVE",
"421 31 CURVE",
"449 40 OFFCURVE",
"480 65 OFFCURVE",
"480 90 CURVE SMOOTH",
"480 112 OFFCURVE",
"462 127 OFFCURVE",
"441 136 CURVE",
"371 130 OFFCURVE",
"258 116 OFFCURVE",
"153 95 CURVE"
);
},
{
closed = 1;
nodes = (
"406 888 OFFCURVE",
"394 883 OFFCURVE",
"385 876 CURVE SMOOTH",
"336 838 OFFCURVE",
"287 797 OFFCURVE",
"260 775 CURVE SMOOTH",
"240 758 OFFCURVE",
"239 747 OFFCURVE",
"239 735 CURVE SMOOTH",
"239 714 OFFCURVE",
"266 702 OFFCURVE",
"290 702 CURVE SMOOTH",
"309 702 OFFCURVE",
"349 735 OFFCURVE",
"420 796 CURVE",
"475 730 LINE SMOOTH",
"486 717 OFFCURVE",
"500 709 OFFCURVE",
"513 709 CURVE SMOOTH",
"540 709 OFFCURVE",
"565 726 OFFCURVE",
"565 748 CURVE SMOOTH",
"565 756 OFFCURVE",
"562 764 OFFCURVE",
"555 773 CURVE SMOOTH",
"504 839 LINE SMOOTH",
"471 882 OFFCURVE",
"455 888 OFFCURVE",
"430 888 CURVE SMOOTH"
);
},
{
closed = 1;
nodes = (
"260 891 OFFCURVE",
"202 972 OFFCURVE",
"185 972 CURVE SMOOTH",
"166 972 OFFCURVE",
"110 950 OFFCURVE",
"110 935 CURVE SMOOTH",
"110 922 OFFCURVE",
"123 912 OFFCURVE",
"160 887 CURVE SMOOTH",
"213 850 OFFCURVE",
"230 831 OFFCURVE",
"256 831 CURVE SMOOTH",
"274 831 OFFCURVE",
"282 836 OFFCURVE",
"282 853 CURVE SMOOTH",
"282 856 OFFCURVE",
"281 859 OFFCURVE",
"280 861 CURVE"
);
}
);
width = 555;
}
);
leftKerningGroup = E;
rightKerningGroup = E;
unicode = 1EC0;
},
{
glyphname = Ecircumflexhookabove;
lastChange = "2015-06-22 11:16:28 +0000";
layers = (
{
layerId = "647881E3-02F2-4150-93BB-7ED190F14AA3";
name = Regular;
paths = (
{
closed = 1;
nodes = (
"457 306 OFFCURVE",
"488 331 OFFCURVE",
"488 356 CURVE SMOOTH",
"488 378 OFFCURVE",
"470 393 OFFCURVE",
"449 402 CURVE",
"379 396 OFFCURVE",
"352 392 OFFCURVE",
"252 376 CURVE",
"280 486 OFFCURVE",
"304 582 OFFCURVE",
"317 644 CURVE",
"317 648 OFFCURVE",
"314 649 OFFCURVE",
"310 649 CURVE SMOOTH",
"296 649 OFFCURVE",
"258 631 OFFCURVE",
"233 631 CURVE SMOOTH",
"214 631 OFFCURVE",
"202 634 OFFCURVE",
"195 634 CURVE SMOOTH",
"185 634 OFFCURVE",
"182 628 OFFCURVE",
"174 595 CURVE SMOOTH",
"46 89 LINE SMOOTH",
"44 82 OFFCURVE",
"43 75 OFFCURVE",
"43 68 CURVE SMOOTH",
"43 33 OFFCURVE",
"75 -12 OFFCURVE",
"114 -12 CURVE SMOOTH",
"169 -12 OFFCURVE",
"158 -1 OFFCURVE",
"167 36 CURVE SMOOTH",
"175 69 OFFCURVE",
"208 191 OFFCURVE",
"226 271 CURVE",
"307 285 OFFCURVE",
"364 289 OFFCURVE",
"429 297 CURVE"
);
},
{
closed = 1;
nodes = (
"241 553 OFFCURVE",
"477 569 OFFCURVE",
"542 573 CURVE",
"571 580 OFFCURVE",
"605 603 OFFCURVE",
"605 628 CURVE SMOOTH",
"605 651 OFFCURVE",
"588 666 OFFCURVE",
"569 676 CURVE",
"498 675 OFFCURVE",
"272 660 OFFCURVE",
"166 646 CURVE",
"138 633 OFFCURVE",
"129 617 OFFCURVE",
"128 600 CURVE",
"128 580 OFFCURVE",
"155 558 OFFCURVE",
"157 540 CURVE"
);
},
{
closed = 1;
nodes = (
"134 -10 LINE",
"217 8 OFFCURVE",
"356 23 OFFCURVE",
"421 31 CURVE",
"449 40 OFFCURVE",
"480 65 OFFCURVE",
"480 90 CURVE SMOOTH",
"480 112 OFFCURVE",
"462 127 OFFCURVE",
"441 136 CURVE",
"371 130 OFFCURVE",
"258 116 OFFCURVE",
"153 95 CURVE"
);
},
{
closed = 1;
nodes = (
"406 888 OFFCURVE",
"394 883 OFFCURVE",
"385 876 CURVE SMOOTH",
"336 838 OFFCURVE",
"287 797 OFFCURVE",
"260 775 CURVE SMOOTH",
"240 758 OFFCURVE",
"239 747 OFFCURVE",
"239 735 CURVE SMOOTH",
"239 714 OFFCURVE",
"266 702 OFFCURVE",
"290 702 CURVE SMOOTH",
"309 702 OFFCURVE",
"349 735 OFFCURVE",
"420 796 CURVE",
"475 730 LINE SMOOTH",
"486 717 OFFCURVE",
"500 709 OFFCURVE",
"513 709 CURVE SMOOTH",
"540 709 OFFCURVE",
"565 726 OFFCURVE",
"565 748 CURVE SMOOTH",
"565 756 OFFCURVE",
"562 764 OFFCURVE",
"555 773 CURVE SMOOTH",
"504 839 LINE SMOOTH",
"471 882 OFFCURVE",
"455 888 OFFCURVE",
"430 888 CURVE SMOOTH"
);
},
{
closed = 1;
nodes = (
"621 862 OFFCURVE",
"617 881 OFFCURVE",
"646 892 CURVE SMOOTH",
"679 905 OFFCURVE",
"716 927 OFFCURVE",
"716 972 CURVE SMOOTH",
"716 1014 OFFCURVE",
"670 1032 OFFCURVE",
"629 1032 CURVE SMOOTH",
"593 1032 OFFCURVE",
"542 1025 OFFCURVE",
"542 991 CURVE SMOOTH",
"542 979 OFFCURVE",
"551 966 OFFCURVE",
"562 966 CURVE SMOOTH",
"584 966 OFFCURVE",
"583 980 OFFCURVE",
"618 980 CURVE SMOOTH",
"642 980 OFFCURVE",
"647 969 OFFCURVE",
"647 963 CURVE SMOOTH",
"647 921 OFFCURVE",
"575 936 OFFCURVE",
"564 896 CURVE SMOOTH",
"552 852 OFFCURVE",
"551 845 OFFCURVE",
"551 844 CURVE SMOOTH",
"551 834 OFFCURVE",
"562 828 OFFCURVE",
"579 828 CURVE SMOOTH",
"599 828 OFFCURVE",
"610 840 OFFCURVE",
"615 850 CURVE SMOOTH"
);
}
);
width = 555;
}
);
leftKerningGroup = E;
rightKerningGroup = E;
unicode = 1EC2;
},
{
glyphname = Ecircumflextilde;
lastChange = "2015-06-22 11:16:28 +0000";
layers = (
{
layerId = "647881E3-02F2-4150-93BB-7ED190F14AA3";
name = Regular;
paths = (
{
closed = 1;
nodes = (
"457 306 OFFCURVE",
"488 331 OFFCURVE",
"488 356 CURVE SMOOTH",
"488 378 OFFCURVE",
"470 393 OFFCURVE",
"449 402 CURVE",
"379 396 OFFCURVE",
"352 392 OFFCURVE",
"252 376 CURVE",
"280 486 OFFCURVE",
"304 582 OFFCURVE",
"317 644 CURVE",
"317 648 OFFCURVE",
"314 649 OFFCURVE",
"310 649 CURVE SMOOTH",
"296 649 OFFCURVE",
"258 631 OFFCURVE",
"233 631 CURVE SMOOTH",
"214 631 OFFCURVE",
"202 634 OFFCURVE",
"195 634 CURVE SMOOTH",
"185 634 OFFCURVE",
"182 628 OFFCURVE",
"174 595 CURVE SMOOTH",
"46 89 LINE SMOOTH",
"44 82 OFFCURVE",
"43 75 OFFCURVE",
"43 68 CURVE SMOOTH",
"43 33 OFFCURVE",
"75 -12 OFFCURVE",
"114 -12 CURVE SMOOTH",
"169 -12 OFFCURVE",
"158 -1 OFFCURVE",
"167 36 CURVE SMOOTH",
"175 69 OFFCURVE",
"208 191 OFFCURVE",
"226 271 CURVE",
"307 285 OFFCURVE",
"364 289 OFFCURVE",
"429 297 CURVE"
);
},
{
closed = 1;
nodes = (
"241 553 OFFCURVE",
"477 569 OFFCURVE",
"542 573 CURVE",
"571 580 OFFCURVE",
"605 603 OFFCURVE",
"605 628 CURVE SMOOTH",
"605 651 OFFCURVE",
"588 666 OFFCURVE",
"569 676 CURVE",
"498 675 OFFCURVE",
"272 660 OFFCURVE",
"166 646 CURVE",
"138 633 OFFCURVE",
"129 617 OFFCURVE",
"128 600 CURVE",
"128 580 OFFCURVE",
"155 558 OFFCURVE",
"157 540 CURVE"
);
},
{
closed = 1;
nodes = (
"134 -10 LINE",
"217 8 OFFCURVE",
"356 23 OFFCURVE",
"421 31 CURVE",
"449 40 OFFCURVE",
"480 65 OFFCURVE",
"480 90 CURVE SMOOTH",
"480 112 OFFCURVE",
"462 127 OFFCURVE",
"441 136 CURVE",
"371 130 OFFCURVE",
"258 116 OFFCURVE",
"153 95 CURVE"
);
},
{
closed = 1;
nodes = (
"406 888 OFFCURVE",
"394 883 OFFCURVE",
"385 876 CURVE SMOOTH",
"336 838 OFFCURVE",
"287 797 OFFCURVE",
"260 775 CURVE SMOOTH",
"240 758 OFFCURVE",
"239 747 OFFCURVE",
"239 735 CURVE SMOOTH",
"239 714 OFFCURVE",
"266 702 OFFCURVE",
"290 702 CURVE SMOOTH",
"309 702 OFFCURVE",
"349 735 OFFCURVE",
"420 796 CURVE",
"475 730 LINE SMOOTH",
"486 717 OFFCURVE",
"500 709 OFFCURVE",
"513 709 CURVE SMOOTH",
"540 709 OFFCURVE",
"565 726 OFFCURVE",
"565 748 CURVE SMOOTH",
"565 756 OFFCURVE",
"562 764 OFFCURVE",
"555 773 CURVE SMOOTH",
"504 839 LINE SMOOTH",
"471 882 OFFCURVE",
"455 888 OFFCURVE",
"430 888 CURVE SMOOTH"
);
},
{
closed = 1;
nodes = (
"417 962 OFFCURVE",
"431 958 OFFCURVE",
"455 941 CURVE",
"483 925 OFFCURVE",
"500 915 OFFCURVE",
"530 915 CURVE SMOOTH",
"555 915 OFFCURVE",
"623 952 OFFCURVE",
"623 1002 CURVE SMOOTH",
"623 1007 OFFCURVE",
"622 1009 OFFCURVE",
"621 1009 CURVE SMOOTH",
"618 1009 OFFCURVE",
"616 1017 OFFCURVE",
"609 1017 CURVE SMOOTH",
"608 1017 OFFCURVE",
"604 1016 OFFCURVE",
"601 1014 CURVE",
"585 1001 OFFCURVE",
"571 984 OFFCURVE",
"550 984 CURVE SMOOTH",
"530 984 OFFCURVE",
"516 990 OFFCURVE",
"493 1006 CURVE SMOOTH",
"466 1025 OFFCURVE",
"440 1034 OFFCURVE",
"414 1034 CURVE SMOOTH",
"370 1034 OFFCURVE",
"304 996 OFFCURVE",
"304 962 CURVE SMOOTH",
"304 931 OFFCURVE",
"309 922 OFFCURVE",
"322 915 CURVE",
"351 943 OFFCURVE",
"378 962 OFFCURVE",
"399 962 CURVE SMOOTH"
);
}
);
width = 555;
}
);
leftKerningGroup = E;
rightKerningGroup = E;
unicode = 1EC4;
},
{
glyphname = Edblgrave;
lastChange = "2015-06-22 11:16:28 +0000";
layers = (
{
layerId = "647881E3-02F2-4150-93BB-7ED190F14AA3";
name = Regular;
paths = (
{
closed = 1;
nodes = (
"457 306 OFFCURVE",
"488 331 OFFCURVE",
"488 356 CURVE SMOOTH",
"488 378 OFFCURVE",
"470 393 OFFCURVE",
"449 402 CURVE",
"379 396 OFFCURVE",
"352 392 OFFCURVE",
"252 376 CURVE",
"280 486 OFFCURVE",
"304 582 OFFCURVE",
"317 644 CURVE",
"317 648 OFFCURVE",
"314 649 OFFCURVE",
"310 649 CURVE SMOOTH",
"296 649 OFFCURVE",
"258 631 OFFCURVE",
"233 631 CURVE SMOOTH",
"214 631 OFFCURVE",
"202 634 OFFCURVE",
"195 634 CURVE SMOOTH",
"185 634 OFFCURVE",
"182 628 OFFCURVE",
"174 595 CURVE SMOOTH",
"46 89 LINE SMOOTH",
"44 82 OFFCURVE",
"43 75 OFFCURVE",
"43 68 CURVE SMOOTH",
"43 33 OFFCURVE",
"75 -12 OFFCURVE",
"114 -12 CURVE SMOOTH",
"169 -12 OFFCURVE",
"158 -1 OFFCURVE",
"167 36 CURVE SMOOTH",
"175 69 OFFCURVE",
"208 191 OFFCURVE",
"226 271 CURVE",
"307 285 OFFCURVE",
"364 289 OFFCURVE",
"429 297 CURVE"
);
},
{
closed = 1;
nodes = (
"241 553 OFFCURVE",
"477 569 OFFCURVE",
"542 573 CURVE",
"571 580 OFFCURVE",
"605 603 OFFCURVE",
"605 628 CURVE SMOOTH",
"605 651 OFFCURVE",
"588 666 OFFCURVE",
"569 676 CURVE",
"498 675 OFFCURVE",
"272 660 OFFCURVE",
"166 646 CURVE",
"138 633 OFFCURVE",
"129 617 OFFCURVE",
"128 600 CURVE",
"128 580 OFFCURVE",
"155 558 OFFCURVE",
"157 540 CURVE"
);
},
{
closed = 1;
nodes = (
"134 -10 LINE",
"217 8 OFFCURVE",
"356 23 OFFCURVE",
"421 31 CURVE",
"449 40 OFFCURVE",
"480 65 OFFCURVE",
"480 90 CURVE SMOOTH",
"480 112 OFFCURVE",
"462 127 OFFCURVE",
"441 136 CURVE",
"371 130 OFFCURVE",
"258 116 OFFCURVE",
"153 95 CURVE"
);
},
{
closed = 1;
nodes = (
"338 757 OFFCURVE",
"336 765 OFFCURVE",
"332 774 CURVE SMOOTH",
"314 815 OFFCURVE",
"271 906 OFFCURVE",
"221 906 CURVE SMOOTH",
"190 906 OFFCURVE",
"175 864 OFFCURVE",
"175 839 CURVE SMOOTH",
"175 820 OFFCURVE",
"187 815 OFFCURVE",
"198 811 CURVE SMOOTH",
"247 795 OFFCURVE",
"281 719 OFFCURVE",
"314 708 CURVE",
"315 708 OFFCURVE",
"317 707 OFFCURVE",
"318 707 CURVE SMOOTH",
"333 707 OFFCURVE",
"338 738 OFFCURVE",
"338 748 CURVE SMOOTH"
);
},
{
closed = 1;
nodes = (
"513 757 OFFCURVE",
"511 765 OFFCURVE",
"507 774 CURVE SMOOTH",
"489 815 OFFCURVE",
"446 906 OFFCURVE",
"396 906 CURVE SMOOTH",
"365 906 OFFCURVE",
"350 864 OFFCURVE",
"350 839 CURVE SMOOTH",
"350 820 OFFCURVE",
"362 815 OFFCURVE",
"373 811 CURVE SMOOTH",
"422 795 OFFCURVE",
"456 719 OFFCURVE",
"489 708 CURVE",
"490 708 OFFCURVE",
"492 707 OFFCURVE",
"493 707 CURVE SMOOTH",
"508 707 OFFCURVE",
"513 738 OFFCURVE",
"513 748 CURVE SMOOTH"
);
}
);
width = 555;
}
);
leftKerningGroup = E;
rightKerningGroup = E;
unicode = 0204;
},
{
glyphname = Edieresis;
lastChange = "2015-06-22 11:16:28 +0000";
layers = (
{
layerId = "647881E3-02F2-4150-93BB-7ED190F14AA3";
name = Regular;
paths = (
{
closed = 1;
nodes = (
"457 306 OFFCURVE",
"488 331 OFFCURVE",
"488 356 CURVE SMOOTH",
"488 378 OFFCURVE",
"470 393 OFFCURVE",
"449 402 CURVE",
"379 396 OFFCURVE",
"352 392 OFFCURVE",
"252 376 CURVE",
"280 486 OFFCURVE",
"304 582 OFFCURVE",
"317 644 CURVE",
"317 648 OFFCURVE",
"314 649 OFFCURVE",
"310 649 CURVE SMOOTH",
"296 649 OFFCURVE",
"258 631 OFFCURVE",
"233 631 CURVE SMOOTH",
"214 631 OFFCURVE",
"202 634 OFFCURVE",
"195 634 CURVE SMOOTH",
"185 634 OFFCURVE",
"182 628 OFFCURVE",
"174 595 CURVE SMOOTH",
"46 89 LINE SMOOTH",
"44 82 OFFCURVE",
"43 75 OFFCURVE",
"43 68 CURVE SMOOTH",
"43 33 OFFCURVE",
"75 -12 OFFCURVE",
"114 -12 CURVE SMOOTH",
"169 -12 OFFCURVE",
"158 -1 OFFCURVE",
"167 36 CURVE SMOOTH",
"175 69 OFFCURVE",
"208 191 OFFCURVE",
"226 271 CURVE",
"307 285 OFFCURVE",
"364 289 OFFCURVE",
"429 297 CURVE"
);
},
{
closed = 1;
nodes = (
"241 553 OFFCURVE",
"477 569 OFFCURVE",
"542 573 CURVE",
"571 580 OFFCURVE",
"605 603 OFFCURVE",
"605 628 CURVE SMOOTH",
"605 651 OFFCURVE",
"588 666 OFFCURVE",
"569 676 CURVE",
"498 675 OFFCURVE",
"272 660 OFFCURVE",
"166 646 CURVE",
"138 633 OFFCURVE",
"129 617 OFFCURVE",
"128 600 CURVE",
"128 580 OFFCURVE",
"155 558 OFFCURVE",
"157 540 CURVE"
);
},
{
closed = 1;
nodes = (
"134 -10 LINE",
"217 8 OFFCURVE",
"356 23 OFFCURVE",
"421 31 CURVE",
"449 40 OFFCURVE",
"480 65 OFFCURVE",
"480 90 CURVE SMOOTH",
"480 112 OFFCURVE",
"462 127 OFFCURVE",
"441 136 CURVE",
"371 130 OFFCURVE",
"258 116 OFFCURVE",
"153 95 CURVE"
);
},
{
closed = 1;
nodes = (
"298 699 OFFCURVE",
"341 732 OFFCURVE",
"341 775 CURVE SMOOTH",
"341 807 OFFCURVE",
"310 843 OFFCURVE",
"276 843 CURVE SMOOTH",
"233 843 OFFCURVE",
"186 806 OFFCURVE",
"186 759 CURVE SMOOTH",
"186 728 OFFCURVE",
"221 699 OFFCURVE",
"251 699 CURVE SMOOTH"
);
},
{
closed = 1;
nodes = (
"526 703 OFFCURVE",
"568 738 OFFCURVE",
"568 781 CURVE SMOOTH",
"568 813 OFFCURVE",
"530 845 OFFCURVE",
"496 845 CURVE SMOOTH",
"453 845 OFFCURVE",
"410 813 OFFCURVE",
"410 765 CURVE SMOOTH",
"410 735 OFFCURVE",
"449 703 OFFCURVE",
"479 703 CURVE SMOOTH"
);
}
);
width = 555;
}
);
leftKerningGroup = E;
rightKerningGroup = E;
unicode = 00CB;
},
{
glyphname = Edotaccent;
lastChange = "2015-06-22 11:16:28 +0000";
layers = (
{
layerId = "647881E3-02F2-4150-93BB-7ED190F14AA3";
name = Regular;
paths = (
{
closed = 1;
nodes = (
"457 306 OFFCURVE",
"488 331 OFFCURVE",
"488 356 CURVE SMOOTH",
"488 378 OFFCURVE",
"470 393 OFFCURVE",
"449 402 CURVE",
"379 396 OFFCURVE",
"352 392 OFFCURVE",
"252 376 CURVE",
"280 486 OFFCURVE",
"304 582 OFFCURVE",
"317 644 CURVE",
"317 648 OFFCURVE",
"314 649 OFFCURVE",
"310 649 CURVE SMOOTH",
"296 649 OFFCURVE",
"258 631 OFFCURVE",
"233 631 CURVE SMOOTH",
"214 631 OFFCURVE",
"202 634 OFFCURVE",
"195 634 CURVE SMOOTH",
"185 634 OFFCURVE",
"182 628 OFFCURVE",
"174 595 CURVE SMOOTH",
"46 89 LINE SMOOTH",
"44 82 OFFCURVE",
"43 75 OFFCURVE",
"43 68 CURVE SMOOTH",
"43 33 OFFCURVE",
"75 -12 OFFCURVE",
"114 -12 CURVE SMOOTH",
"169 -12 OFFCURVE",
"158 -1 OFFCURVE",
"167 36 CURVE SMOOTH",
"175 69 OFFCURVE",
"208 191 OFFCURVE",
"226 271 CURVE",
"307 285 OFFCURVE",
"364 289 OFFCURVE",
"429 297 CURVE"
);
},
{
closed = 1;
nodes = (
"241 553 OFFCURVE",
"477 569 OFFCURVE",
"542 573 CURVE",
"571 580 OFFCURVE",
"605 603 OFFCURVE",
"605 628 CURVE SMOOTH",
"605 651 OFFCURVE",
"588 666 OFFCURVE",
"569 676 CURVE",
"498 675 OFFCURVE",
"272 660 OFFCURVE",
"166 646 CURVE",
"138 633 OFFCURVE",
"129 617 OFFCURVE",
"128 600 CURVE",
"128 580 OFFCURVE",
"155 558 OFFCURVE",
"157 540 CURVE"
);
},
{
closed = 1;
nodes = (
"134 -10 LINE",
"217 8 OFFCURVE",
"356 23 OFFCURVE",
"421 31 CURVE",
"449 40 OFFCURVE",
"480 65 OFFCURVE",
"480 90 CURVE SMOOTH",
"480 112 OFFCURVE",
"462 127 OFFCURVE",
"441 136 CURVE",
"371 130 OFFCURVE",
"258 116 OFFCURVE",
"153 95 CURVE"
);
},
{
closed = 1;
nodes = (
"442 713 OFFCURVE",
"485 746 OFFCURVE",
"485 789 CURVE SMOOTH",
"485 821 OFFCURVE",
"454 857 OFFCURVE",
"420 857 CURVE SMOOTH",
"377 857 OFFCURVE",
"330 820 OFFCURVE",
"330 773 CURVE SMOOTH",
"330 742 OFFCURVE",
"365 713 OFFCURVE",
"395 713 CURVE SMOOTH"
);
}
);
width = 555;
}
);
leftKerningGroup = E;
rightKerningGroup = E;
unicode = 0116;
},
{
glyphname = Edotbelow;
lastChange = "2015-06-22 11:16:28 +0000";
layers = (
{
layerId = "647881E3-02F2-4150-93BB-7ED190F14AA3";
name = Regular;
paths = (
{
closed = 1;
nodes = (
"457 306 OFFCURVE",
"488 331 OFFCURVE",
"488 356 CURVE SMOOTH",
"488 378 OFFCURVE",
"470 393 OFFCURVE",
"449 402 CURVE",
"379 396 OFFCURVE",
"352 392 OFFCURVE",
"252 376 CURVE",
"280 486 OFFCURVE",
"304 582 OFFCURVE",
"317 644 CURVE",
"317 648 OFFCURVE",
"314 649 OFFCURVE",
"310 649 CURVE SMOOTH",
"296 649 OFFCURVE",
"258 631 OFFCURVE",
"233 631 CURVE SMOOTH",
"214 631 OFFCURVE",
"202 634 OFFCURVE",
"195 634 CURVE SMOOTH",
"185 634 OFFCURVE",
"182 628 OFFCURVE",
"174 595 CURVE SMOOTH",
"46 89 LINE SMOOTH",
"44 82 OFFCURVE",
"43 75 OFFCURVE",
"43 68 CURVE SMOOTH",
"43 33 OFFCURVE",
"75 -12 OFFCURVE",
"114 -12 CURVE SMOOTH",
"169 -12 OFFCURVE",
"158 -1 OFFCURVE",
"167 36 CURVE SMOOTH",
"175 69 OFFCURVE",
"208 191 OFFCURVE",
"226 271 CURVE",
"307 285 OFFCURVE",
"364 289 OFFCURVE",
"429 297 CURVE"
);
},
{
closed = 1;
nodes = (
"241 553 OFFCURVE",
"477 569 OFFCURVE",
"542 573 CURVE",
"571 580 OFFCURVE",
"605 603 OFFCURVE",
"605 628 CURVE SMOOTH",
"605 651 OFFCURVE",
"588 666 OFFCURVE",
"569 676 CURVE",
"498 675 OFFCURVE",
"272 660 OFFCURVE",
"166 646 CURVE",
"138 633 OFFCURVE",
"129 617 OFFCURVE",
"128 600 CURVE",
"128 580 OFFCURVE",
"155 558 OFFCURVE",
"157 540 CURVE"
);
},
{
closed = 1;
nodes = (
"134 -10 LINE",
"217 8 OFFCURVE",
"356 23 OFFCURVE",
"421 31 CURVE",
"449 40 OFFCURVE",
"480 65 OFFCURVE",
"480 90 CURVE SMOOTH",
"480 112 OFFCURVE",
"462 127 OFFCURVE",
"441 136 CURVE",
"371 130 OFFCURVE",
"258 116 OFFCURVE",
"153 95 CURVE"
);
},
{
closed = 1;
nodes = (
"281 -215 OFFCURVE",
"324 -182 OFFCURVE",
"324 -139 CURVE SMOOTH",
"324 -107 OFFCURVE",
"293 -71 OFFCURVE",
"259 -71 CURVE SMOOTH",
"216 -71 OFFCURVE",
"169 -108 OFFCURVE",
"169 -155 CURVE SMOOTH",
"169 -186 OFFCURVE",
"204 -215 OFFCURVE",
"234 -215 CURVE SMOOTH"
);
}
);
width = 555;
}
);
leftKerningGroup = E;
rightKerningGroup = E;
unicode = 1EB8;
},
{
glyphname = Egrave;
lastChange = "2015-06-22 11:16:28 +0000";
layers = (
{
layerId = "647881E3-02F2-4150-93BB-7ED190F14AA3";
name = Regular;
paths = (
{
closed = 1;
nodes = (
"457 306 OFFCURVE",
"488 331 OFFCURVE",
"488 356 CURVE SMOOTH",
"488 378 OFFCURVE",
"470 393 OFFCURVE",
"449 402 CURVE",
"379 396 OFFCURVE",
"352 392 OFFCURVE",
"252 376 CURVE",
"280 486 OFFCURVE",
"304 582 OFFCURVE",
"317 644 CURVE",
"317 648 OFFCURVE",
"314 649 OFFCURVE",
"310 649 CURVE SMOOTH",
"296 649 OFFCURVE",
"258 631 OFFCURVE",
"233 631 CURVE SMOOTH",
"214 631 OFFCURVE",
"202 634 OFFCURVE",
"195 634 CURVE SMOOTH",
"185 634 OFFCURVE",
"182 628 OFFCURVE",
"174 595 CURVE SMOOTH",
"46 89 LINE SMOOTH",
"44 82 OFFCURVE",
"43 75 OFFCURVE",
"43 68 CURVE SMOOTH",
"43 33 OFFCURVE",
"75 -12 OFFCURVE",
"114 -12 CURVE SMOOTH",
"169 -12 OFFCURVE",
"158 -1 OFFCURVE",
"167 36 CURVE SMOOTH",
"175 69 OFFCURVE",
"208 191 OFFCURVE",
"226 271 CURVE",
"307 285 OFFCURVE",
"364 289 OFFCURVE",
"429 297 CURVE"
);
},
{
closed = 1;
nodes = (
"241 553 OFFCURVE",
"477 569 OFFCURVE",
"542 573 CURVE",
"571 580 OFFCURVE",
"605 603 OFFCURVE",
"605 628 CURVE SMOOTH",
"605 651 OFFCURVE",
"588 666 OFFCURVE",
"569 676 CURVE",
"498 675 OFFCURVE",
"272 660 OFFCURVE",
"166 646 CURVE",
"138 633 OFFCURVE",
"129 617 OFFCURVE",
"128 600 CURVE",
"128 580 OFFCURVE",
"155 558 OFFCURVE",
"157 540 CURVE"
);
},
{
closed = 1;
nodes = (
"134 -10 LINE",
"217 8 OFFCURVE",
"356 23 OFFCURVE",
"421 31 CURVE",
"449 40 OFFCURVE",
"480 65 OFFCURVE",
"480 90 CURVE SMOOTH",
"480 112 OFFCURVE",
"462 127 OFFCURVE",
"441 136 CURVE",
"371 130 OFFCURVE",
"258 116 OFFCURVE",
"153 95 CURVE"
);
},
{
closed = 1;
nodes = (
"449 799 OFFCURVE",
"320 912 OFFCURVE",
"296 912 CURVE SMOOTH",
"269 912 OFFCURVE",
"221 879 OFFCURVE",
"221 858 CURVE SMOOTH",
"221 839 OFFCURVE",
"240 825 OFFCURVE",
"292 789 CURVE SMOOTH",
"368 736 OFFCURVE",
"406 713 OFFCURVE",
"443 713 CURVE SMOOTH",
"468 713 OFFCURVE",
"480 721 OFFCURVE",
"480 744 CURVE SMOOTH",
"480 749 OFFCURVE",
"479 753 OFFCURVE",
"477 756 CURVE SMOOTH"
);
}
);
width = 555;
}
);
leftKerningGroup = E;
rightKerningGroup = E;
unicode = 00C8;
},
{
glyphname = Ehookabove;
lastChange = "2015-06-22 11:16:28 +0000";
layers = (
{
layerId = "647881E3-02F2-4150-93BB-7ED190F14AA3";
name = Regular;
paths = (
{
closed = 1;
nodes = (
"457 306 OFFCURVE",
"488 331 OFFCURVE",
"488 356 CURVE SMOOTH",
"488 378 OFFCURVE",
"470 393 OFFCURVE",
"449 402 CURVE",
"379 396 OFFCURVE",
"352 392 OFFCURVE",
"252 376 CURVE",
"280 486 OFFCURVE",
"304 582 OFFCURVE",
"317 644 CURVE",
"317 648 OFFCURVE",
"314 649 OFFCURVE",
"310 649 CURVE SMOOTH",
"296 649 OFFCURVE",
"258 631 OFFCURVE",
"233 631 CURVE SMOOTH",
"214 631 OFFCURVE",
"202 634 OFFCURVE",
"195 634 CURVE SMOOTH",
"185 634 OFFCURVE",
"182 628 OFFCURVE",
"174 595 CURVE SMOOTH",
"46 89 LINE SMOOTH",
"44 82 OFFCURVE",
"43 75 OFFCURVE",
"43 68 CURVE SMOOTH",
"43 33 OFFCURVE",
"75 -12 OFFCURVE",
"114 -12 CURVE SMOOTH",
"169 -12 OFFCURVE",
"158 -1 OFFCURVE",
"167 36 CURVE SMOOTH",
"175 69 OFFCURVE",
"208 191 OFFCURVE",
"226 271 CURVE",
"307 285 OFFCURVE",
"364 289 OFFCURVE",
"429 297 CURVE"
);
},
{
closed = 1;
nodes = (
"241 553 OFFCURVE",
"477 569 OFFCURVE",
"542 573 CURVE",
"571 580 OFFCURVE",
"605 603 OFFCURVE",
"605 628 CURVE SMOOTH",
"605 651 OFFCURVE",
"588 666 OFFCURVE",
"569 676 CURVE",
"498 675 OFFCURVE",
"272 660 OFFCURVE",
"166 646 CURVE",
"138 633 OFFCURVE",
"129 617 OFFCURVE",
"128 600 CURVE",
"128 580 OFFCURVE",
"155 558 OFFCURVE",
"157 540 CURVE"
);
},
{
closed = 1;
nodes = (
"134 -10 LINE",
"217 8 OFFCURVE",
"356 23 OFFCURVE",
"421 31 CURVE",
"449 40 OFFCURVE",
"480 65 OFFCURVE",
"480 90 CURVE SMOOTH",
"480 112 OFFCURVE",
"462 127 OFFCURVE",
"441 136 CURVE",
"371 130 OFFCURVE",
"258 116 OFFCURVE",
"153 95 CURVE"
);
},
{
closed = 1;
nodes = (
"430 755 OFFCURVE",
"427 780 OFFCURVE",
"463 794 CURVE SMOOTH",
"504 810 OFFCURVE",
"549 836 OFFCURVE",
"549 892 CURVE SMOOTH",
"549 945 OFFCURVE",
"491 967 OFFCURVE",
"440 967 CURVE SMOOTH",
"395 967 OFFCURVE",
"331 959 OFFCURVE",
"331 916 CURVE SMOOTH",
"331 901 OFFCURVE",
"343 885 OFFCURVE",
"356 885 CURVE SMOOTH",
"384 885 OFFCURVE",
"383 903 OFFCURVE",
"426 903 CURVE SMOOTH",
"456 903 OFFCURVE",
"463 889 OFFCURVE",
"463 881 CURVE SMOOTH",
"463 829 OFFCURVE",
"372 848 OFFCURVE",
"359 798 CURVE SMOOTH",
"344 743 OFFCURVE",
"343 734 OFFCURVE",
"343 732 CURVE SMOOTH",
"343 720 OFFCURVE",
"356 713 OFFCURVE",
"377 713 CURVE SMOOTH",
"403 713 OFFCURVE",
"416 727 OFFCURVE",
"423 740 CURVE"
);
}
);
width = 555;
}
);
leftKerningGroup = E;
rightKerningGroup = E;
unicode = 1EBA;
},
{
glyphname = Einvertedbreve;
lastChange = "2015-06-22 11:16:28 +0000";
layers = (
{
layerId = "647881E3-02F2-4150-93BB-7ED190F14AA3";
name = Regular;
paths = (
{
closed = 1;
nodes = (
"457 306 OFFCURVE",
"488 331 OFFCURVE",
"488 356 CURVE SMOOTH",
"488 378 OFFCURVE",
"470 393 OFFCURVE",
"449 402 CURVE",
"379 396 OFFCURVE",
"352 392 OFFCURVE",
"252 376 CURVE",
"280 486 OFFCURVE",
"304 582 OFFCURVE",
"317 644 CURVE",
"317 648 OFFCURVE",
"314 649 OFFCURVE",
"310 649 CURVE SMOOTH",
"296 649 OFFCURVE",
"258 631 OFFCURVE",
"233 631 CURVE SMOOTH",
"214 631 OFFCURVE",
"202 634 OFFCURVE",
"195 634 CURVE SMOOTH",
"185 634 OFFCURVE",
"182 628 OFFCURVE",
"174 595 CURVE SMOOTH",
"46 89 LINE SMOOTH",
"44 82 OFFCURVE",
"43 75 OFFCURVE",
"43 68 CURVE SMOOTH",
"43 33 OFFCURVE",
"75 -12 OFFCURVE",
"114 -12 CURVE SMOOTH",
"169 -12 OFFCURVE",
"158 -1 OFFCURVE",
"167 36 CURVE SMOOTH",
"175 69 OFFCURVE",
"208 191 OFFCURVE",
"226 271 CURVE",
"307 285 OFFCURVE",
"364 289 OFFCURVE",
"429 297 CURVE"
);
},
{
closed = 1;
nodes = (
"241 553 OFFCURVE",
"477 569 OFFCURVE",
"542 573 CURVE",
"571 580 OFFCURVE",
"605 603 OFFCURVE",
"605 628 CURVE SMOOTH",
"605 651 OFFCURVE",
"588 666 OFFCURVE",
"569 676 CURVE",
"498 675 OFFCURVE",
"272 660 OFFCURVE",
"166 646 CURVE",
"138 633 OFFCURVE",
"129 617 OFFCURVE",
"128 600 CURVE",
"128 580 OFFCURVE",
"155 558 OFFCURVE",
"157 540 CURVE"
);
},
{
closed = 1;
nodes = (
"134 -10 LINE",
"217 8 OFFCURVE",
"356 23 OFFCURVE",
"421 31 CURVE",
"449 40 OFFCURVE",
"480 65 OFFCURVE",
"480 90 CURVE SMOOTH",
"480 112 OFFCURVE",
"462 127 OFFCURVE",
"441 136 CURVE",
"371 130 OFFCURVE",
"258 116 OFFCURVE",
"153 95 CURVE"
);
},
{
closed = 1;
nodes = (
"343 851 OFFCURVE",
"250 821 OFFCURVE",
"250 724 CURVE SMOOTH",
"250 703 OFFCURVE",
"273 700 OFFCURVE",
"301 700 CURVE SMOOTH",
"311 700 OFFCURVE",
"334 707 OFFCURVE",
"337 719 CURVE",
"351 766 OFFCURVE",
"401 775 OFFCURVE",
"441 775 CURVE SMOOTH",
"468 775 OFFCURVE",
"495 769 OFFCURVE",
"497 741 CURVE SMOOTH",
"499 717 OFFCURVE",
"521 713 OFFCURVE",
"540 713 CURVE SMOOTH",
"576 713 OFFCURVE",
"589 737 OFFCURVE",
"589 769 CURVE SMOOTH",
"589 831 OFFCURVE",
"518 856 OFFCURVE",
"447 856 CURVE"
);
}
);
width = 555;
}
);
leftKerningGroup = E;
rightKerningGroup = E;
unicode = 0206;
},
{
glyphname = Emacron;
lastChange = "2015-06-22 11:16:28 +0000";
layers = (
{
layerId = "647881E3-02F2-4150-93BB-7ED190F14AA3";
name = Regular;
paths = (
{
closed = 1;
nodes = (
"457 306 OFFCURVE",
"488 331 OFFCURVE",
"488 356 CURVE SMOOTH",
"488 378 OFFCURVE",
"470 393 OFFCURVE",
"449 402 CURVE",
"379 396 OFFCURVE",
"352 392 OFFCURVE",
"252 376 CURVE",
"280 486 OFFCURVE",
"304 582 OFFCURVE",
"317 644 CURVE",
"317 648 OFFCURVE",
"314 649 OFFCURVE",
"310 649 CURVE SMOOTH",
"296 649 OFFCURVE",
"258 631 OFFCURVE",
"233 631 CURVE SMOOTH",
"214 631 OFFCURVE",
"202 634 OFFCURVE",
"195 634 CURVE SMOOTH",
"185 634 OFFCURVE",
"182 628 OFFCURVE",
"174 595 CURVE SMOOTH",
"46 89 LINE SMOOTH",
"44 82 OFFCURVE",
"43 75 OFFCURVE",
"43 68 CURVE SMOOTH",
"43 33 OFFCURVE",
"75 -12 OFFCURVE",
"114 -12 CURVE SMOOTH",
"169 -12 OFFCURVE",
"158 -1 OFFCURVE",
"167 36 CURVE SMOOTH",
"175 69 OFFCURVE",
"208 191 OFFCURVE",
"226 271 CURVE",
"307 285 OFFCURVE",
"364 289 OFFCURVE",
"429 297 CURVE"
);
},
{
closed = 1;
nodes = (
"241 553 OFFCURVE",
"477 569 OFFCURVE",
"542 573 CURVE",
"571 580 OFFCURVE",
"605 603 OFFCURVE",
"605 628 CURVE SMOOTH",
"605 651 OFFCURVE",
"588 666 OFFCURVE",
"569 676 CURVE",
"498 675 OFFCURVE",
"272 660 OFFCURVE",
"166 646 CURVE",
"138 633 OFFCURVE",
"129 617 OFFCURVE",
"128 600 CURVE",
"128 580 OFFCURVE",
"155 558 OFFCURVE",
"157 540 CURVE"
);
},
{
closed = 1;
nodes = (
"134 -10 LINE",
"217 8 OFFCURVE",
"356 23 OFFCURVE",
"421 31 CURVE",
"449 40 OFFCURVE",
"480 65 OFFCURVE",
"480 90 CURVE SMOOTH",
"480 112 OFFCURVE",
"462 127 OFFCURVE",
"441 136 CURVE",
"371 130 OFFCURVE",
"258 116 OFFCURVE",
"153 95 CURVE"
);
},
{
closed = 1;
nodes = (
"623 803 LINE",
"622 828 OFFCURVE",
"606 841 OFFCURVE",
"575 843 CURVE",
"386 835 LINE SMOOTH",
"290 831 OFFCURVE",
"258 819 OFFCURVE",
"255 776 CURVE",
"255 768 LINE",
"257 746 OFFCURVE",
"271 730 OFFCURVE",
"302 728 CURVE",
"317 728 OFFCURVE",
"331 730 OFFCURVE",
"345 732 CURVE",
"554 743 LINE SMOOTH",
"591 745 OFFCURVE",
"621 761 OFFCURVE",
"623 796 CURVE"
);
}
);
width = 555;
}
);
leftKerningGroup = E;
rightKerningGroup = E;
unicode = 0112;
},
{
glyphname = Eogonek;
lastChange = "2015-06-22 11:16:28 +0000";
layers = (
{
layerId = "647881E3-02F2-4150-93BB-7ED190F14AA3";
name = Regular;
paths = (
{
closed = 1;
nodes = (
"457 306 OFFCURVE",
"488 331 OFFCURVE",
"488 356 CURVE SMOOTH",
"488 378 OFFCURVE",
"470 393 OFFCURVE",
"449 402 CURVE",
"379 396 OFFCURVE",
"352 392 OFFCURVE",
"252 376 CURVE",
"280 486 OFFCURVE",
"304 582 OFFCURVE",
"317 644 CURVE",
"317 648 OFFCURVE",
"314 649 OFFCURVE",
"310 649 CURVE SMOOTH",
"296 649 OFFCURVE",
"258 631 OFFCURVE",
"233 631 CURVE SMOOTH",
"214 631 OFFCURVE",
"202 634 OFFCURVE",
"195 634 CURVE SMOOTH",
"185 634 OFFCURVE",
"182 628 OFFCURVE",
"174 595 CURVE SMOOTH",
"46 89 LINE SMOOTH",
"44 82 OFFCURVE",
"43 75 OFFCURVE",
"43 68 CURVE SMOOTH",
"43 33 OFFCURVE",
"75 -12 OFFCURVE",
"114 -12 CURVE SMOOTH",
"169 -12 OFFCURVE",
"158 -1 OFFCURVE",
"167 36 CURVE SMOOTH",
"175 69 OFFCURVE",
"208 191 OFFCURVE",
"226 271 CURVE",
"307 285 OFFCURVE",
"364 289 OFFCURVE",
"429 297 CURVE"
);
},
{
closed = 1;
nodes = (
"241 553 OFFCURVE",
"477 569 OFFCURVE",
"542 573 CURVE",
"571 580 OFFCURVE",
"605 603 OFFCURVE",
"605 628 CURVE SMOOTH",
"605 651 OFFCURVE",
"588 666 OFFCURVE",
"569 676 CURVE",
"498 675 OFFCURVE",
"272 660 OFFCURVE",
"166 646 CURVE",
"138 633 OFFCURVE",
"129 617 OFFCURVE",
"128 600 CURVE",
"128 580 OFFCURVE",
"155 558 OFFCURVE",
"157 540 CURVE"
);
},
{
closed = 1;
nodes = (
"134 -10 LINE",
"217 8 OFFCURVE",
"356 23 OFFCURVE",
"421 31 CURVE",
"449 40 OFFCURVE",
"480 65 OFFCURVE",
"480 90 CURVE SMOOTH",
"480 112 OFFCURVE",
"462 127 OFFCURVE",
"441 136 CURVE",
"371 130 OFFCURVE",
"258 116 OFFCURVE",
"153 95 CURVE"
);
},
{
closed = 1;
nodes = (
"393 -18 OFFCURVE",
"417 14 OFFCURVE",
"464 57 CURVE",
"398 57 LINE",
"329 28 OFFCURVE",
"285 -21 OFFCURVE",
"285 -59 CURVE SMOOTH",
"285 -137 OFFCURVE",
"344 -163 OFFCURVE",
"400 -163 CURVE SMOOTH",
"430 -163 OFFCURVE",
"500 -156 OFFCURVE",
"500 -118 CURVE SMOOTH",
"500 -111 OFFCURVE",
"496 -105 OFFCURVE",
"486 -98 CURVE",
"469 -102 OFFCURVE",
"453 -104 OFFCURVE",
"438 -104 CURVE SMOOTH",
"410 -104 OFFCURVE",
"393 -90 OFFCURVE",
"393 -59 CURVE SMOOTH"
);
}
);
width = 555;
}
);
leftKerningGroup = E;
rightKerningGroup = E;
unicode = 0118;
},
{
glyphname = Etilde;
lastChange = "2015-06-22 11:16:28 +0000";
layers = (
{
layerId = "647881E3-02F2-4150-93BB-7ED190F14AA3";
name = Regular;
paths = (
{
closed = 1;
nodes = (
"457 306 OFFCURVE",
"488 331 OFFCURVE",
"488 356 CURVE SMOOTH",
"488 378 OFFCURVE",
"470 393 OFFCURVE",
"449 402 CURVE",
"379 396 OFFCURVE",
"352 392 OFFCURVE",
"252 376 CURVE",
"280 486 OFFCURVE",
"304 582 OFFCURVE",
"317 644 CURVE",
"317 648 OFFCURVE",
"314 649 OFFCURVE",
"310 649 CURVE SMOOTH",
"296 649 OFFCURVE",
"258 631 OFFCURVE",
"233 631 CURVE SMOOTH",
"214 631 OFFCURVE",
"202 634 OFFCURVE",
"195 634 CURVE SMOOTH",
"185 634 OFFCURVE",
"182 628 OFFCURVE",
"174 595 CURVE SMOOTH",
"46 89 LINE SMOOTH",
"44 82 OFFCURVE",
"43 75 OFFCURVE",
"43 68 CURVE SMOOTH",
"43 33 OFFCURVE",
"75 -12 OFFCURVE",
"114 -12 CURVE SMOOTH",
"169 -12 OFFCURVE",
"158 -1 OFFCURVE",
"167 36 CURVE SMOOTH",
"175 69 OFFCURVE",
"208 191 OFFCURVE",
"226 271 CURVE",
"307 285 OFFCURVE",
"364 289 OFFCURVE",
"429 297 CURVE"
);
},
{
closed = 1;
nodes = (
"241 553 OFFCURVE",
"477 569 OFFCURVE",
"542 573 CURVE",
"571 580 OFFCURVE",
"605 603 OFFCURVE",
"605 628 CURVE SMOOTH",
"605 651 OFFCURVE",
"588 666 OFFCURVE",
"569 676 CURVE",
"498 675 OFFCURVE",
"272 660 OFFCURVE",
"166 646 CURVE",
"138 633 OFFCURVE",
"129 617 OFFCURVE",
"128 600 CURVE",
"128 580 OFFCURVE",
"155 558 OFFCURVE",
"157 540 CURVE"
);
},
{
closed = 1;
nodes = (
"134 -10 LINE",
"217 8 OFFCURVE",
"356 23 OFFCURVE",
"421 31 CURVE",
"449 40 OFFCURVE",
"480 65 OFFCURVE",
"480 90 CURVE SMOOTH",
"480 112 OFFCURVE",
"462 127 OFFCURVE",
"441 136 CURVE",
"371 130 OFFCURVE",
"258 116 OFFCURVE",
"153 95 CURVE"
);
},
{
closed = 1;
nodes = (
"361 769 OFFCURVE",
"379 763 OFFCURVE",
"405 742 CURVE",
"436 722 OFFCURVE",
"458 710 OFFCURVE",
"491 710 CURVE SMOOTH",
"519 710 OFFCURVE",
"594 756 OFFCURVE",
"594 817 CURVE SMOOTH",
"594 824 OFFCURVE",
"593 826 OFFCURVE",
"592 826 CURVE SMOOTH",
"589 826 OFFCURVE",
"586 836 OFFCURVE",
"579 836 CURVE SMOOTH",
"577 836 OFFCURVE",
"573 835 OFFCURVE",
"570 832 CURVE",
"552 816 OFFCURVE",
"536 795 OFFCURVE",
"513 795 CURVE SMOOTH",
"491 795 OFFCURVE",
"473 802 OFFCURVE",
"447 822 CURVE SMOOTH",
"417 845 OFFCURVE",
"386 857 OFFCURVE",
"357 857 CURVE SMOOTH",
"309 857 OFFCURVE",
"232 806 OFFCURVE",
"232 764 CURVE SMOOTH",
"232 726 OFFCURVE",
"240 718 OFFCURVE",
"254 710 CURVE",
"286 745 OFFCURVE",
"317 769 OFFCURVE",
"341 769 CURVE SMOOTH"
);
}
);
width = 555;
}
);
leftKerningGroup = E;
rightKerningGroup = E;
unicode = 1EBC;
},
{
glyphname = F;
lastChange = "2015-06-23 06:42:29 +0000";
layers = (
{
layerId = "647881E3-02F2-4150-93BB-7ED190F14AA3";
name = Regular;
paths = (
{
closed = 1;
nodes = (
"187 229 LINE",
"264 242 OFFCURVE",
"353 245 OFFCURVE",
"416 253 CURVE",
"421 254 OFFCURVE",
"426 254 OFFCURVE",
"431 255 CURVE",
"459 264 OFFCURVE",
"490 289 OFFCURVE",
"490 314 CURVE SMOOTH",
"490 336 OFFCURVE",
"472 351 OFFCURVE",
"451 360 CURVE",
"381 354 OFFCURVE",
"318 351 OFFCURVE",
"213 334 CURVE",
"247 469 OFFCURVE",
"290 637 OFFCURVE",
"290 644 CURVE",
"288 661 OFFCURVE",
"250 668 OFFCURVE",
"218 668 CURVE SMOOTH",
"172 668 OFFCURVE",
"163 651 OFFCURVE",
"149 595 CURVE SMOOTH",
"12 54 LINE SMOOTH",
"10 47 OFFCURVE",
"9 40 OFFCURVE",
"9 33 CURVE SMOOTH",
"9 -2 OFFCURVE",
"30 -13 OFFCURVE",
"69 -13 CURVE SMOOTH",
"124 -13 OFFCURVE",
"130 -1 OFFCURVE",
"139 36 CURVE SMOOTH"
);
},
{
closed = 1;
nodes = (
"228 552 LINE",
"307 565 OFFCURVE",
"436 573 OFFCURVE",
"505 577 CURVE",
"509 577 OFFCURVE",
"513 578 OFFCURVE",
"517 578 CURVE",
"546 586 OFFCURVE",
"579 609 OFFCURVE",
"579 634 CURVE SMOOTH",
"579 657 OFFCURVE",
"562 672 OFFCURVE",
"543 682 CURVE",
"472 680 OFFCURVE",
"359 671 OFFCURVE",
"253 656 CURVE"
);
}
);
width = 545;
}
);
leftKerningGroup = F;
rightKerningGroup = F;
unicode = 0046;
},
{
glyphname = G;
lastChange = "2015-06-22 12:15:37 +0000";
layers = (
{
layerId = "647881E3-02F2-4150-93BB-7ED190F14AA3";
name = Regular;
paths = (
{
closed = 1;
nodes = (
"412 365 OFFCURVE",
"306 342 OFFCURVE",
"254 328 CURVE",
"239 316 OFFCURVE",
"228 283 OFFCURVE",
"228 264 CURVE SMOOTH",
"228 234 OFFCURVE",
"250 225 OFFCURVE",
"291 225 CURVE SMOOTH",
"354 225 OFFCURVE",
"428 252 OFFCURVE",
"453 254 CURVE",
"453 156 OFFCURVE",
"345 80 OFFCURVE",
"269 80 CURVE SMOOTH",
"197 80 OFFCURVE",
"142 122 OFFCURVE",
"142 184 CURVE SMOOTH",
"142 396 OFFCURVE",
"315 556 OFFCURVE",
"424 556 CURVE SMOOTH",
"446 556 OFFCURVE",
"481 529 OFFCURVE",
"481 504 CURVE SMOOTH",
"481 495 OFFCURVE",
"480 484 OFFCURVE",
"480 472 CURVE SMOOTH",
"480 445 OFFCURVE",
"486 415 OFFCURVE",
"531 415 CURVE SMOOTH",
"583 415 OFFCURVE",
"614 448 OFFCURVE",
"614 487 CURVE SMOOTH",
"614 596 OFFCURVE",
"557 661 OFFCURVE",
"402 661 CURVE SMOOTH",
"244 661 OFFCURVE",
"18 452 OFFCURVE",
"18 210 CURVE SMOOTH",
"18 97 OFFCURVE",
"76 -21 OFFCURVE",
"250 -21 CURVE SMOOTH",
"413 -21 OFFCURVE",
"573 89 OFFCURVE",
"573 263 CURVE SMOOTH",
"573 312 OFFCURVE",
"570 365 OFFCURVE",
"483 365 CURVE SMOOTH"
);
}
);
width = 623;
}
);
leftKerningGroup = G;
rightKerningGroup = G;
unicode = 0047;
},
{
glyphname = Gacute;
lastChange = "2015-06-22 07:11:41 +0000";
layers = (
{
layerId = "647881E3-02F2-4150-93BB-7ED190F14AA3";
name = Regular;
paths = (
{
closed = 1;
nodes = (
"412 365 OFFCURVE",
"306 342 OFFCURVE",
"254 328 CURVE",
"239 316 OFFCURVE",
"228 283 OFFCURVE",
"228 264 CURVE SMOOTH",
"228 234 OFFCURVE",
"250 225 OFFCURVE",
"291 225 CURVE SMOOTH",
"354 225 OFFCURVE",
"428 252 OFFCURVE",
"453 254 CURVE",
"453 156 OFFCURVE",
"345 80 OFFCURVE",
"269 80 CURVE SMOOTH",
"197 80 OFFCURVE",
"142 122 OFFCURVE",
"142 184 CURVE SMOOTH",
"142 396 OFFCURVE",
"315 556 OFFCURVE",
"424 556 CURVE SMOOTH",
"446 556 OFFCURVE",
"481 529 OFFCURVE",
"481 504 CURVE SMOOTH",
"481 495 OFFCURVE",
"480 484 OFFCURVE",
"480 472 CURVE SMOOTH",
"480 445 OFFCURVE",
"486 415 OFFCURVE",
"531 415 CURVE SMOOTH",
"583 415 OFFCURVE",
"614 448 OFFCURVE",
"614 487 CURVE SMOOTH",
"614 596 OFFCURVE",
"557 661 OFFCURVE",
"402 661 CURVE SMOOTH",
"244 661 OFFCURVE",
"18 452 OFFCURVE",
"18 210 CURVE SMOOTH",
"18 97 OFFCURVE",
"76 -21 OFFCURVE",
"250 -21 CURVE SMOOTH",
"413 -21 OFFCURVE",
"573 89 OFFCURVE",
"573 263 CURVE SMOOTH",
"573 312 OFFCURVE",
"570 365 OFFCURVE",
"483 365 CURVE SMOOTH"
);
},
{
closed = 1;
nodes = (
"416 764 OFFCURVE",
"415 760 OFFCURVE",
"415 755 CURVE SMOOTH",
"415 732 OFFCURVE",
"427 724 OFFCURVE",
"452 724 CURVE SMOOTH",
"489 724 OFFCURVE",
"527 747 OFFCURVE",
"603 800 CURVE SMOOTH",
"655 836 OFFCURVE",
"674 850 OFFCURVE",
"674 869 CURVE SMOOTH",
"674 890 OFFCURVE",
"626 923 OFFCURVE",
"599 923 CURVE SMOOTH",
"575 923 OFFCURVE",
"446 810 OFFCURVE",
"418 767 CURVE SMOOTH"
);
}
);
width = 623;
}
);
leftKerningGroup = G;
rightKerningGroup = G;
unicode = 01F4;
},
{
glyphname = Gbreve;
lastChange = "2015-06-22 07:11:41 +0000";
layers = (
{
layerId = "647881E3-02F2-4150-93BB-7ED190F14AA3";
name = Regular;
paths = (
{
closed = 1;
nodes = (
"412 365 OFFCURVE",
"306 342 OFFCURVE",
"254 328 CURVE",
"239 316 OFFCURVE",
"228 283 OFFCURVE",
"228 264 CURVE SMOOTH",
"228 234 OFFCURVE",
"250 225 OFFCURVE",
"291 225 CURVE SMOOTH",
"354 225 OFFCURVE",
"428 252 OFFCURVE",
"453 254 CURVE",
"453 156 OFFCURVE",
"345 80 OFFCURVE",
"269 80 CURVE SMOOTH",
"197 80 OFFCURVE",
"142 122 OFFCURVE",
"142 184 CURVE SMOOTH",
"142 396 OFFCURVE",
"315 556 OFFCURVE",
"424 556 CURVE SMOOTH",
"446 556 OFFCURVE",
"481 529 OFFCURVE",
"481 504 CURVE SMOOTH",
"481 495 OFFCURVE",
"480 484 OFFCURVE",
"480 472 CURVE SMOOTH",
"480 445 OFFCURVE",
"486 415 OFFCURVE",
"531 415 CURVE SMOOTH",
"583 415 OFFCURVE",
"614 448 OFFCURVE",
"614 487 CURVE SMOOTH",
"614 596 OFFCURVE",
"557 661 OFFCURVE",
"402 661 CURVE SMOOTH",
"244 661 OFFCURVE",
"18 452 OFFCURVE",
"18 210 CURVE SMOOTH",
"18 97 OFFCURVE",
"76 -21 OFFCURVE",
"250 -21 CURVE SMOOTH",
"413 -21 OFFCURVE",
"573 89 OFFCURVE",
"573 263 CURVE SMOOTH",
"573 312 OFFCURVE",
"570 365 OFFCURVE",
"483 365 CURVE SMOOTH"
);
},
{
closed = 1;
nodes = (
"542 709 OFFCURVE",
"628 752 OFFCURVE",
"642 851 CURVE",
"633 865 OFFCURVE",
"610 865 OFFCURVE",
"598 865 CURVE SMOOTH",
"588 865 OFFCURVE",
"573 859 OFFCURVE",
"564 851 CURVE",
"542 807 OFFCURVE",
"528 788 OFFCURVE",
"462 788 CURVE SMOOTH",
"411 788 OFFCURVE",
"407 801 OFFCURVE",
"406 824 CURVE SMOOTH",
"405 855 OFFCURVE",
"383 856 OFFCURVE",
"372 856 CURVE SMOOTH",
"326 856 OFFCURVE",
"319 825 OFFCURVE",
"319 801 CURVE SMOOTH",
"319 739 OFFCURVE",
"375 707 OFFCURVE",
"454 707 CURVE SMOOTH"
);
}
);
width = 623;
}
);
leftKerningGroup = G;
rightKerningGroup = G;
unicode = 011E;
},
{
glyphname = Gcaron;
lastChange = "2015-06-22 07:11:41 +0000";
layers = (
{
layerId = "647881E3-02F2-4150-93BB-7ED190F14AA3";
name = Regular;
paths = (
{
closed = 1;
nodes = (
"412 365 OFFCURVE",
"306 342 OFFCURVE",
"254 328 CURVE",
"239 316 OFFCURVE",
"228 283 OFFCURVE",
"228 264 CURVE SMOOTH",
"228 234 OFFCURVE",
"250 225 OFFCURVE",
"291 225 CURVE SMOOTH",
"354 225 OFFCURVE",
"428 252 OFFCURVE",
"453 254 CURVE",
"453 156 OFFCURVE",
"345 80 OFFCURVE",
"269 80 CURVE SMOOTH",
"197 80 OFFCURVE",
"142 122 OFFCURVE",
"142 184 CURVE SMOOTH",
"142 396 OFFCURVE",
"315 556 OFFCURVE",
"424 556 CURVE SMOOTH",
"446 556 OFFCURVE",
"481 529 OFFCURVE",
"481 504 CURVE SMOOTH",
"481 495 OFFCURVE",
"480 484 OFFCURVE",
"480 472 CURVE SMOOTH",
"480 445 OFFCURVE",
"486 415 OFFCURVE",
"531 415 CURVE SMOOTH",
"583 415 OFFCURVE",
"614 448 OFFCURVE",
"614 487 CURVE SMOOTH",
"614 596 OFFCURVE",
"557 661 OFFCURVE",
"402 661 CURVE SMOOTH",
"244 661 OFFCURVE",
"18 452 OFFCURVE",
"18 210 CURVE SMOOTH",
"18 97 OFFCURVE",
"76 -21 OFFCURVE",
"250 -21 CURVE SMOOTH",
"413 -21 OFFCURVE",
"573 89 OFFCURVE",
"573 263 CURVE SMOOTH",
"573 312 OFFCURVE",
"570 365 OFFCURVE",
"483 365 CURVE SMOOTH"
);
},
{
closed = 1;
nodes = (
"464 713 OFFCURVE",
"476 718 OFFCURVE",
"485 725 CURVE SMOOTH",
"534 763 OFFCURVE",
"583 804 OFFCURVE",
"610 826 CURVE SMOOTH",
"630 843 OFFCURVE",
"631 854 OFFCURVE",
"631 866 CURVE SMOOTH",
"631 887 OFFCURVE",
"604 899 OFFCURVE",
"580 899 CURVE SMOOTH",
"561 899 OFFCURVE",
"521 866 OFFCURVE",
"450 805 CURVE",
"395 871 LINE SMOOTH",
"384 884 OFFCURVE",
"370 892 OFFCURVE",
"357 892 CURVE SMOOTH",
"330 892 OFFCURVE",
"305 875 OFFCURVE",
"305 853 CURVE SMOOTH",
"305 845 OFFCURVE",
"308 837 OFFCURVE",
"315 828 CURVE SMOOTH",
"366 762 LINE SMOOTH",
"399 719 OFFCURVE",
"415 713 OFFCURVE",
"440 713 CURVE SMOOTH"
);
}
);
width = 623;
}
);
leftKerningGroup = G;
rightKerningGroup = G;
unicode = 01E6;
},
{
glyphname = Gcircumflex;
lastChange = "2015-06-22 07:11:41 +0000";
layers = (
{
layerId = "647881E3-02F2-4150-93BB-7ED190F14AA3";
name = Regular;
paths = (
{
closed = 1;
nodes = (
"412 365 OFFCURVE",
"306 342 OFFCURVE",
"254 328 CURVE",
"239 316 OFFCURVE",
"228 283 OFFCURVE",
"228 264 CURVE SMOOTH",
"228 234 OFFCURVE",
"250 225 OFFCURVE",
"291 225 CURVE SMOOTH",
"354 225 OFFCURVE",
"428 252 OFFCURVE",
"453 254 CURVE",
"453 156 OFFCURVE",
"345 80 OFFCURVE",
"269 80 CURVE SMOOTH",
"197 80 OFFCURVE",
"142 122 OFFCURVE",
"142 184 CURVE SMOOTH",
"142 396 OFFCURVE",
"315 556 OFFCURVE",
"424 556 CURVE SMOOTH",
"446 556 OFFCURVE",
"481 529 OFFCURVE",
"481 504 CURVE SMOOTH",
"481 495 OFFCURVE",
"480 484 OFFCURVE",
"480 472 CURVE SMOOTH",
"480 445 OFFCURVE",
"486 415 OFFCURVE",
"531 415 CURVE SMOOTH",
"583 415 OFFCURVE",
"614 448 OFFCURVE",
"614 487 CURVE SMOOTH",
"614 596 OFFCURVE",
"557 661 OFFCURVE",
"402 661 CURVE SMOOTH",
"244 661 OFFCURVE",
"18 452 OFFCURVE",
"18 210 CURVE SMOOTH",
"18 97 OFFCURVE",
"76 -21 OFFCURVE",
"250 -21 CURVE SMOOTH",
"413 -21 OFFCURVE",
"573 89 OFFCURVE",
"573 263 CURVE SMOOTH",
"573 312 OFFCURVE",
"570 365 OFFCURVE",
"483 365 CURVE SMOOTH"
);
},
{
closed = 1;
nodes = (
"457 890 OFFCURVE",
"445 885 OFFCURVE",
"436 878 CURVE SMOOTH",
"387 840 OFFCURVE",
"338 799 OFFCURVE",
"311 777 CURVE SMOOTH",
"291 760 OFFCURVE",
"290 749 OFFCURVE",
"290 737 CURVE SMOOTH",
"290 716 OFFCURVE",
"317 704 OFFCURVE",
"341 704 CURVE SMOOTH",
"360 704 OFFCURVE",
"400 737 OFFCURVE",
"471 798 CURVE",
"526 732 LINE SMOOTH",
"537 719 OFFCURVE",
"551 711 OFFCURVE",
"564 711 CURVE SMOOTH",
"591 711 OFFCURVE",
"616 728 OFFCURVE",
"616 750 CURVE SMOOTH",
"616 758 OFFCURVE",
"613 766 OFFCURVE",
"606 775 CURVE SMOOTH",
"555 841 LINE SMOOTH",
"522 884 OFFCURVE",
"506 890 OFFCURVE",
"481 890 CURVE SMOOTH"
);
}
);
width = 623;
}
);
leftKerningGroup = G;
rightKerningGroup = G;
unicode = 011C;
},
{
glyphname = Gcommaaccent;
lastChange = "2015-06-22 07:11:41 +0000";
layers = (
{
layerId = "647881E3-02F2-4150-93BB-7ED190F14AA3";
name = Regular;
paths = (
{
closed = 1;
nodes = (
"412 365 OFFCURVE",
"306 342 OFFCURVE",
"254 328 CURVE",
"239 316 OFFCURVE",
"228 283 OFFCURVE",
"228 264 CURVE SMOOTH",
"228 234 OFFCURVE",
"250 225 OFFCURVE",
"291 225 CURVE SMOOTH",
"354 225 OFFCURVE",
"428 252 OFFCURVE",
"453 254 CURVE",
"453 156 OFFCURVE",
"345 80 OFFCURVE",
"269 80 CURVE SMOOTH",
"197 80 OFFCURVE",
"142 122 OFFCURVE",
"142 184 CURVE SMOOTH",
"142 396 OFFCURVE",
"315 556 OFFCURVE",
"424 556 CURVE SMOOTH",
"446 556 OFFCURVE",
"481 529 OFFCURVE",
"481 504 CURVE SMOOTH",
"481 495 OFFCURVE",
"480 484 OFFCURVE",
"480 472 CURVE SMOOTH",
"480 445 OFFCURVE",
"486 415 OFFCURVE",
"531 415 CURVE SMOOTH",
"583 415 OFFCURVE",
"614 448 OFFCURVE",
"614 487 CURVE SMOOTH",
"614 596 OFFCURVE",
"557 661 OFFCURVE",
"402 661 CURVE SMOOTH",
"244 661 OFFCURVE",
"18 452 OFFCURVE",
"18 210 CURVE SMOOTH",
"18 97 OFFCURVE",
"76 -21 OFFCURVE",
"250 -21 CURVE SMOOTH",
"413 -21 OFFCURVE",
"573 89 OFFCURVE",
"573 263 CURVE SMOOTH",
"573 312 OFFCURVE",
"570 365 OFFCURVE",
"483 365 CURVE SMOOTH"
);
},
{
closed = 1;
nodes = (
"202 -302 OFFCURVE",
"219 -289 OFFCURVE",
"234 -274 CURVE",
"283 -218 OFFCURVE",
"335 -157 OFFCURVE",
"335 -104 CURVE SMOOTH",
"335 -87 OFFCURVE",
"314 -56 OFFCURVE",
"276 -56 CURVE SMOOTH",
"221 -56 OFFCURVE",
"215 -75 OFFCURVE",
"215 -95 CURVE SMOOTH",
"215 -105 OFFCURVE",
"219 -119 OFFCURVE",
"219 -132 CURVE SMOOTH",
"219 -189 OFFCURVE",
"150 -227 OFFCURVE",
"150 -283 CURVE SMOOTH",
"150 -292 OFFCURVE",
"154 -302 OFFCURVE",
"178 -302 CURVE SMOOTH"
);
}
);
width = 623;
}
);
leftKerningGroup = G;
rightKerningGroup = G;
unicode = 0122;
},
{
glyphname = Gdotaccent;
lastChange = "2015-06-22 07:11:41 +0000";
layers = (
{
layerId = "647881E3-02F2-4150-93BB-7ED190F14AA3";
name = Regular;
paths = (
{
closed = 1;
nodes = (
"412 365 OFFCURVE",
"306 342 OFFCURVE",
"254 328 CURVE",
"239 316 OFFCURVE",
"228 283 OFFCURVE",
"228 264 CURVE SMOOTH",
"228 234 OFFCURVE",
"250 225 OFFCURVE",
"291 225 CURVE SMOOTH",
"354 225 OFFCURVE",
"428 252 OFFCURVE",
"453 254 CURVE",
"453 156 OFFCURVE",
"345 80 OFFCURVE",
"269 80 CURVE SMOOTH",
"197 80 OFFCURVE",
"142 122 OFFCURVE",
"142 184 CURVE SMOOTH",
"142 396 OFFCURVE",
"315 556 OFFCURVE",
"424 556 CURVE SMOOTH",
"446 556 OFFCURVE",
"481 529 OFFCURVE",
"481 504 CURVE SMOOTH",
"481 495 OFFCURVE",
"480 484 OFFCURVE",
"480 472 CURVE SMOOTH",
"480 445 OFFCURVE",
"486 415 OFFCURVE",
"531 415 CURVE SMOOTH",
"583 415 OFFCURVE",
"614 448 OFFCURVE",
"614 487 CURVE SMOOTH",
"614 596 OFFCURVE",
"557 661 OFFCURVE",
"402 661 CURVE SMOOTH",
"244 661 OFFCURVE",
"18 452 OFFCURVE",
"18 210 CURVE SMOOTH",
"18 97 OFFCURVE",
"76 -21 OFFCURVE",
"250 -21 CURVE SMOOTH",
"413 -21 OFFCURVE",
"573 89 OFFCURVE",
"573 263 CURVE SMOOTH",
"573 312 OFFCURVE",
"570 365 OFFCURVE",
"483 365 CURVE SMOOTH"
);
},
{
closed = 1;
nodes = (
"552 713 OFFCURVE",
"595 746 OFFCURVE",
"595 789 CURVE SMOOTH",
"595 821 OFFCURVE",
"564 857 OFFCURVE",
"530 857 CURVE SMOOTH",
"487 857 OFFCURVE",
"440 820 OFFCURVE",
"440 773 CURVE SMOOTH",
"440 742 OFFCURVE",
"475 713 OFFCURVE",
"505 713 CURVE SMOOTH"
);
}
);
width = 623;
}
);
leftKerningGroup = G;
rightKerningGroup = G;
unicode = 0120;
},
{
glyphname = Gmacron;
lastChange = "2015-06-22 07:11:41 +0000";
layers = (
{
layerId = "647881E3-02F2-4150-93BB-7ED190F14AA3";
name = Regular;
paths = (
{
closed = 1;
nodes = (
"412 365 OFFCURVE",
"306 342 OFFCURVE",
"254 328 CURVE",
"239 316 OFFCURVE",
"228 283 OFFCURVE",
"228 264 CURVE SMOOTH",
"228 234 OFFCURVE",
"250 225 OFFCURVE",
"291 225 CURVE SMOOTH",
"354 225 OFFCURVE",
"428 252 OFFCURVE",
"453 254 CURVE",
"453 156 OFFCURVE",
"345 80 OFFCURVE",
"269 80 CURVE SMOOTH",
"197 80 OFFCURVE",
"142 122 OFFCURVE",
"142 184 CURVE SMOOTH",
"142 396 OFFCURVE",
"315 556 OFFCURVE",
"424 556 CURVE SMOOTH",
"446 556 OFFCURVE",
"481 529 OFFCURVE",
"481 504 CURVE SMOOTH",
"481 495 OFFCURVE",
"480 484 OFFCURVE",
"480 472 CURVE SMOOTH",
"480 445 OFFCURVE",
"486 415 OFFCURVE",
"531 415 CURVE SMOOTH",
"583 415 OFFCURVE",
"614 448 OFFCURVE",
"614 487 CURVE SMOOTH",
"614 596 OFFCURVE",
"557 661 OFFCURVE",
"402 661 CURVE SMOOTH",
"244 661 OFFCURVE",
"18 452 OFFCURVE",
"18 210 CURVE SMOOTH",
"18 97 OFFCURVE",
"76 -21 OFFCURVE",
"250 -21 CURVE SMOOTH",
"413 -21 OFFCURVE",
"573 89 OFFCURVE",
"573 263 CURVE SMOOTH",
"573 312 OFFCURVE",
"570 365 OFFCURVE",
"483 365 CURVE SMOOTH"
);
},
{
closed = 1;
nodes = (
"666 798 LINE",
"665 823 OFFCURVE",
"649 836 OFFCURVE",
"618 838 CURVE",
"429 830 LINE SMOOTH",
"333 826 OFFCURVE",
"301 814 OFFCURVE",
"298 771 CURVE",
"298 763 LINE",
"300 741 OFFCURVE",
"314 725 OFFCURVE",
"345 723 CURVE",
"360 723 OFFCURVE",
"374 725 OFFCURVE",
"388 727 CURVE",
"597 738 LINE SMOOTH",
"634 740 OFFCURVE",
"664 756 OFFCURVE",
"666 791 CURVE"
);
}
);
width = 623;
}
);
leftKerningGroup = G;
rightKerningGroup = G;
unicode = 1E20;
},
{
glyphname = H;
lastChange = "2015-06-22 12:44:50 +0000";
layers = (
{
layerId = "647881E3-02F2-4150-93BB-7ED190F14AA3";
name = Regular;
paths = (
{
closed = 1;
nodes = (
"451 159 OFFCURVE",
"418 30 OFFCURVE",
"418 21 CURVE SMOOTH",
"418 -6 OFFCURVE",
"446 -22 OFFCURVE",
"510 -22 CURVE SMOOTH",
"536 -22 OFFCURVE",
"548 9 OFFCURVE",
"554 33 CURVE SMOOTH",
"575 125 OFFCURVE",
"594 225 OFFCURVE",
"615 299 CURVE",
"643 308 OFFCURVE",
"677 323 OFFCURVE",
"677 348 CURVE SMOOTH",
"677 370 OFFCURVE",
"659 385 OFFCURVE",
"638 394 CURVE",
"675 540 OFFCURVE",
"669 566 OFFCURVE",
"696 643 CURVE",
"691 655 OFFCURVE",
"683 659 OFFCURVE",
"632 668 CURVE",
"592 660 OFFCURVE",
"570 637 OFFCURVE",
"557 583 CURVE SMOOTH",
"511 397 LINE",
"441 391 OFFCURVE",
"335 377 OFFCURVE",
"230 356 CURVE",
"269 526 OFFCURVE",
"300 637 OFFCURVE",
"300 644 CURVE",
"298 661 OFFCURVE",
"259 668 OFFCURVE",
"227 668 CURVE SMOOTH",
"181 668 OFFCURVE",
"172 651 OFFCURVE",
"158 595 CURVE SMOOTH",
"21 54 LINE SMOOTH",
"19 47 OFFCURVE",
"18 40 OFFCURVE",
"18 33 CURVE SMOOTH",
"18 -2 OFFCURVE",
"39 -13 OFFCURVE",
"78 -13 CURVE SMOOTH",
"133 -13 OFFCURVE",
"143 -1 OFFCURVE",
"152 36 CURVE SMOOTH",
"206 250 LINE",
"289 268 OFFCURVE",
"420 284 OFFCURVE",
"485 292 CURVE"
);
}
);
width = 708;
}
);
leftKerningGroup = H;
rightKerningGroup = H;
unicode = 0048;
},
{
glyphname = Hbar;
lastChange = "2015-06-22 12:16:25 +0000";
layers = (
{
layerId = "647881E3-02F2-4150-93BB-7ED190F14AA3";
name = Regular;
paths = (
{
closed = 1;
nodes = (
"78 522 LINE SMOOTH",
"39 517 OFFCURVE",
"28 504 OFFCURVE",
"28 470 CURVE SMOOTH",
"28 462 LINE",
"31 443 OFFCURVE",
"37 428 OFFCURVE",
"59 428 CURVE SMOOTH",
"62 428 OFFCURVE",
"66 428 OFFCURVE",
"70 429 CURVE",
"134 437 LINE",
"37 54 LINE SMOOTH",
"35 47 OFFCURVE",
"34 40 OFFCURVE",
"34 33 CURVE SMOOTH",
"34 -2 OFFCURVE",
"55 -13 OFFCURVE",
"94 -13 CURVE SMOOTH",
"149 -13 OFFCURVE",
"159 -1 OFFCURVE",
"168 36 CURVE SMOOTH",
"222 250 LINE",
"305 268 OFFCURVE",
"436 284 OFFCURVE",
"501 292 CURVE",
"467 159 OFFCURVE",
"434 30 OFFCURVE",
"434 21 CURVE SMOOTH",
"434 -6 OFFCURVE",
"462 -22 OFFCURVE",
"526 -22 CURVE SMOOTH",
"552 -22 OFFCURVE",
"564 9 OFFCURVE",
"570 33 CURVE SMOOTH",
"591 125 OFFCURVE",
"610 225 OFFCURVE",
"631 299 CURVE",
"659 308 OFFCURVE",
"693 323 OFFCURVE",
"693 348 CURVE SMOOTH",
"693 370 OFFCURVE",
"675 385 OFFCURVE",
"654 394 CURVE",
"665 440 OFFCURVE",
"673 474 OFFCURVE",
"678 502 CURVE",
"705 505 LINE SMOOTH",
"742 509 OFFCURVE",
"771 518 OFFCURVE",
"771 553 CURVE SMOOTH",
"771 560 LINE",
"768 585 OFFCURVE",
"752 597 OFFCURVE",
"721 597 CURVE SMOOTH",
"710 597 LINE",
"697 595 LINE",
"701 610 OFFCURVE",
"705 625 OFFCURVE",
"712 643 CURVE",
"707 655 OFFCURVE",
"699 659 OFFCURVE",
"648 668 CURVE",
"608 660 OFFCURVE",
"584 633 OFFCURVE",
"570 577 CURVE",
"292 548 LINE",
"306 606 OFFCURVE",
"316 640 OFFCURVE",
"316 644 CURVE",
"314 661 OFFCURVE",
"275 668 OFFCURVE",
"243 668 CURVE SMOOTH",
"197 668 OFFCURVE",
"188 651 OFFCURVE",
"174 595 CURVE SMOOTH",
"158 532 LINE"
);
},
{
closed = 1;
nodes = (
"269 453 LINE",
"549 486 LINE",
"527 397 LINE",
"457 391 OFFCURVE",
"351 377 OFFCURVE",
"246 356 CURVE"
);
}
);
width = 724;
}
);
leftKerningGroup = H;
rightKerningGroup = H;
unicode = 0126;
},
{
glyphname = Hbrevebelow;
lastChange = "2015-06-22 12:16:25 +0000";
layers = (
{
layerId = "647881E3-02F2-4150-93BB-7ED190F14AA3";
name = Regular;
paths = (
{
closed = 1;
nodes = (
"467 159 OFFCURVE",
"434 30 OFFCURVE",
"434 21 CURVE SMOOTH",
"434 -6 OFFCURVE",
"462 -22 OFFCURVE",
"526 -22 CURVE SMOOTH",
"552 -22 OFFCURVE",
"564 9 OFFCURVE",
"570 33 CURVE SMOOTH",
"591 125 OFFCURVE",
"610 225 OFFCURVE",
"631 299 CURVE",
"659 308 OFFCURVE",
"693 323 OFFCURVE",
"693 348 CURVE SMOOTH",
"693 370 OFFCURVE",
"675 385 OFFCURVE",
"654 394 CURVE",
"691 540 OFFCURVE",
"685 566 OFFCURVE",
"712 643 CURVE",
"707 655 OFFCURVE",
"699 659 OFFCURVE",
"648 668 CURVE",
"608 660 OFFCURVE",
"586 637 OFFCURVE",
"573 583 CURVE SMOOTH",
"527 397 LINE",
"457 391 OFFCURVE",
"351 377 OFFCURVE",
"246 356 CURVE",
"285 526 OFFCURVE",
"316 637 OFFCURVE",
"316 644 CURVE",
"314 661 OFFCURVE",
"275 668 OFFCURVE",
"243 668 CURVE SMOOTH",
"197 668 OFFCURVE",
"188 651 OFFCURVE",
"174 595 CURVE SMOOTH",
"37 54 LINE SMOOTH",
"35 47 OFFCURVE",
"34 40 OFFCURVE",
"34 33 CURVE SMOOTH",
"34 -2 OFFCURVE",
"55 -13 OFFCURVE",
"94 -13 CURVE SMOOTH",
"149 -13 OFFCURVE",
"159 -1 OFFCURVE",
"168 36 CURVE SMOOTH",
"222 250 LINE",
"305 268 OFFCURVE",
"436 284 OFFCURVE",
"501 292 CURVE"
);
},
{
closed = 1;
nodes = (
"344 -226 OFFCURVE",
"430 -183 OFFCURVE",
"444 -84 CURVE",
"435 -70 OFFCURVE",
"412 -70 OFFCURVE",
"400 -70 CURVE SMOOTH",
"390 -70 OFFCURVE",
"375 -76 OFFCURVE",
"366 -84 CURVE",
"344 -128 OFFCURVE",
"328 -151 OFFCURVE",
"262 -151 CURVE SMOOTH",
"211 -151 OFFCURVE",
"203 -138 OFFCURVE",
"202 -115 CURVE SMOOTH",
"201 -84 OFFCURVE",
"185 -79 OFFCURVE",
"174 -79 CURVE SMOOTH",
"128 -79 OFFCURVE",
"121 -110 OFFCURVE",
"121 -134 CURVE SMOOTH",
"121 -196 OFFCURVE",
"177 -228 OFFCURVE",
"256 -228 CURVE SMOOTH"
);
}
);
width = 724;
}
);
leftKerningGroup = H;
rightKerningGroup = H;
unicode = 1E2A;
},
{
glyphname = Hcircumflex;
lastChange = "2015-06-22 12:16:25 +0000";
layers = (
{
layerId = "647881E3-02F2-4150-93BB-7ED190F14AA3";
name = Regular;
paths = (
{
closed = 1;
nodes = (
"467 159 OFFCURVE",
"434 30 OFFCURVE",
"434 21 CURVE SMOOTH",
"434 -6 OFFCURVE",
"462 -22 OFFCURVE",
"526 -22 CURVE SMOOTH",
"552 -22 OFFCURVE",
"564 9 OFFCURVE",
"570 33 CURVE SMOOTH",
"591 125 OFFCURVE",
"610 225 OFFCURVE",
"631 299 CURVE",
"659 308 OFFCURVE",
"693 323 OFFCURVE",
"693 348 CURVE SMOOTH",
"693 370 OFFCURVE",
"675 385 OFFCURVE",
"654 394 CURVE",
"691 540 OFFCURVE",
"685 566 OFFCURVE",
"712 643 CURVE",
"707 655 OFFCURVE",
"699 659 OFFCURVE",
"648 668 CURVE",
"608 660 OFFCURVE",
"586 637 OFFCURVE",
"573 583 CURVE SMOOTH",
"527 397 LINE",
"457 391 OFFCURVE",
"351 377 OFFCURVE",
"246 356 CURVE",
"285 526 OFFCURVE",
"316 637 OFFCURVE",
"316 644 CURVE",
"314 661 OFFCURVE",
"275 668 OFFCURVE",
"243 668 CURVE SMOOTH",
"197 668 OFFCURVE",
"188 651 OFFCURVE",
"174 595 CURVE SMOOTH",
"37 54 LINE SMOOTH",
"35 47 OFFCURVE",
"34 40 OFFCURVE",
"34 33 CURVE SMOOTH",
"34 -2 OFFCURVE",
"55 -13 OFFCURVE",
"94 -13 CURVE SMOOTH",
"149 -13 OFFCURVE",
"159 -1 OFFCURVE",
"168 36 CURVE SMOOTH",
"222 250 LINE",
"305 268 OFFCURVE",
"436 284 OFFCURVE",
"501 292 CURVE"
);
},
{
closed = 1;
nodes = (
"480 893 OFFCURVE",
"468 888 OFFCURVE",
"459 881 CURVE SMOOTH",
"410 843 OFFCURVE",
"361 802 OFFCURVE",
"334 780 CURVE SMOOTH",
"314 763 OFFCURVE",
"313 752 OFFCURVE",
"313 740 CURVE SMOOTH",
"313 719 OFFCURVE",
"340 707 OFFCURVE",
"364 707 CURVE SMOOTH",
"383 707 OFFCURVE",
"423 740 OFFCURVE",
"494 801 CURVE",
"549 735 LINE SMOOTH",
"560 722 OFFCURVE",
"574 714 OFFCURVE",
"587 714 CURVE SMOOTH",
"614 714 OFFCURVE",
"639 731 OFFCURVE",
"639 753 CURVE SMOOTH",
"639 761 OFFCURVE",
"636 769 OFFCURVE",
"629 778 CURVE SMOOTH",
"578 844 LINE SMOOTH",
"545 887 OFFCURVE",
"529 893 OFFCURVE",
"504 893 CURVE SMOOTH"
);
}
);
width = 724;
}
);
leftKerningGroup = H;
rightKerningGroup = H;
unicode = 0124;
},
{
glyphname = Hdotbelow;
lastChange = "2015-06-22 12:16:25 +0000";
layers = (
{
layerId = "647881E3-02F2-4150-93BB-7ED190F14AA3";
name = Regular;
paths = (
{
closed = 1;
nodes = (
"467 159 OFFCURVE",
"434 30 OFFCURVE",
"434 21 CURVE SMOOTH",
"434 -6 OFFCURVE",
"462 -22 OFFCURVE",
"526 -22 CURVE SMOOTH",
"552 -22 OFFCURVE",
"564 9 OFFCURVE",
"570 33 CURVE SMOOTH",
"591 125 OFFCURVE",
"610 225 OFFCURVE",
"631 299 CURVE",
"659 308 OFFCURVE",
"693 323 OFFCURVE",
"693 348 CURVE SMOOTH",
"693 370 OFFCURVE",
"675 385 OFFCURVE",
"654 394 CURVE",
"691 540 OFFCURVE",
"685 566 OFFCURVE",
"712 643 CURVE",
"707 655 OFFCURVE",
"699 659 OFFCURVE",
"648 668 CURVE",
"608 660 OFFCURVE",
"586 637 OFFCURVE",
"573 583 CURVE SMOOTH",
"527 397 LINE",
"457 391 OFFCURVE",
"351 377 OFFCURVE",
"246 356 CURVE",
"285 526 OFFCURVE",
"316 637 OFFCURVE",
"316 644 CURVE",
"314 661 OFFCURVE",
"275 668 OFFCURVE",
"243 668 CURVE SMOOTH",
"197 668 OFFCURVE",
"188 651 OFFCURVE",
"174 595 CURVE SMOOTH",
"37 54 LINE SMOOTH",
"35 47 OFFCURVE",
"34 40 OFFCURVE",
"34 33 CURVE SMOOTH",
"34 -2 OFFCURVE",
"55 -13 OFFCURVE",
"94 -13 CURVE SMOOTH",
"149 -13 OFFCURVE",
"159 -1 OFFCURVE",
"168 36 CURVE SMOOTH",
"222 250 LINE",
"305 268 OFFCURVE",
"436 284 OFFCURVE",
"501 292 CURVE"
);
},
{
closed = 1;
nodes = (
"317 -215 OFFCURVE",
"360 -182 OFFCURVE",
"360 -139 CURVE SMOOTH",
"360 -107 OFFCURVE",
"329 -71 OFFCURVE",
"295 -71 CURVE SMOOTH",
"252 -71 OFFCURVE",
"205 -108 OFFCURVE",
"205 -155 CURVE SMOOTH",
"205 -186 OFFCURVE",
"240 -215 OFFCURVE",
"270 -215 CURVE SMOOTH"
);
}
);
width = 724;
}
);
leftKerningGroup = H;
rightKerningGroup = H;
unicode = 1E24;
},
{
glyphname = I;
lastChange = "2015-06-22 12:53:23 +0000";
layers = (
{
layerId = "647881E3-02F2-4150-93BB-7ED190F14AA3";
name = Regular;
paths = (
{
closed = 1;
nodes = (
"145 523 OFFCURVE",
"173 528 OFFCURVE",
"201 532 CURVE",
"91 95 LINE",
"65 91 OFFCURVE",
"40 86 OFFCURVE",
"15 81 CURVE",
"-6 72 OFFCURVE",
"-24 57 OFFCURVE",
"-24 35 CURVE SMOOTH",
"-24 10 OFFCURVE",
"-11 -12 OFFCURVE",
"17 -21 CURVE",
"100 -3 OFFCURVE",
"218 9 OFFCURVE",
"283 17 CURVE",
"311 26 OFFCURVE",
"342 51 OFFCURVE",
"342 76 CURVE SMOOTH",
"342 98 OFFCURVE",
"324 113 OFFCURVE",
"303 122 CURVE",
"226 114 LINE",
"255 232 OFFCURVE",
"306 430 OFFCURVE",
"332 549 CURVE",
"387 556 LINE",
"415 565 OFFCURVE",
"446 590 OFFCURVE",
"446 615 CURVE SMOOTH",
"446 637 OFFCURVE",
"428 652 OFFCURVE",
"407 661 CURVE",
"337 655 OFFCURVE",
"224 641 OFFCURVE",
"119 620 CURVE",
"98 611 OFFCURVE",
"80 596 OFFCURVE",
"80 574 CURVE SMOOTH",
"80 549 OFFCURVE",
"93 527 OFFCURVE",
"121 518 CURVE"
);
}
);
width = 396;
}
);
leftKerningGroup = I;
rightKerningGroup = I;
unicode = 0049;
},
{
glyphname = IJ;
layers = (
{
layerId = "647881E3-02F2-4150-93BB-7ED190F14AA3";
name = Regular;
paths = (
{
closed = 1;
nodes = (
"145 523 OFFCURVE",
"173 528 OFFCURVE",
"201 532 CURVE",
"91 95 LINE",
"65 91 OFFCURVE",
"40 86 OFFCURVE",
"15 81 CURVE",
"-6 72 OFFCURVE",
"-24 57 OFFCURVE",
"-24 35 CURVE SMOOTH",
"-24 10 OFFCURVE",
"-11 -12 OFFCURVE",
"17 -21 CURVE",
"100 -3 OFFCURVE",
"218 9 OFFCURVE",
"283 17 CURVE",
"311 26 OFFCURVE",
"342 51 OFFCURVE",
"342 76 CURVE SMOOTH",
"342 98 OFFCURVE",
"324 113 OFFCURVE",
"303 122 CURVE",
"226 114 LINE",
"255 232 OFFCURVE",
"306 430 OFFCURVE",
"332 549 CURVE",
"387 556 LINE",
"415 565 OFFCURVE",
"446 590 OFFCURVE",
"446 615 CURVE SMOOTH",
"446 637 OFFCURVE",
"428 652 OFFCURVE",
"407 661 CURVE",
"337 655 OFFCURVE",
"224 641 OFFCURVE",
"119 620 CURVE",
"98 611 OFFCURVE",
"80 596 OFFCURVE",
"80 574 CURVE SMOOTH",
"80 549 OFFCURVE",
"93 527 OFFCURVE",
"121 518 CURVE"
);
},
{
closed = 1;
nodes = (
"770 666 OFFCURVE",
"737 661 OFFCURVE",
"632 640 CURVE",
"611 631 OFFCURVE",
"593 616 OFFCURVE",
"593 594 CURVE SMOOTH",
"593 569 OFFCURVE",
"606 547 OFFCURVE",
"634 538 CURVE",
"653 542 OFFCURVE",
"706 552 OFFCURVE",
"741 558 CURVE",
"644 183 LINE SMOOTH",
"622 99 OFFCURVE",
"580 85 OFFCURVE",
"554 85 CURVE SMOOTH",
"510 85 OFFCURVE",
"476 100 OFFCURVE",
"475 168 CURVE",
"475 188 OFFCURVE",
"508 213 OFFCURVE",
"508 233 CURVE SMOOTH",
"508 253 OFFCURVE",
"481 267 OFFCURVE",
"433 267 CURVE SMOOTH",
"383 267 OFFCURVE",
"368 230 OFFCURVE",
"368 156 CURVE SMOOTH",
"368 97 OFFCURVE",
"400 -12 OFFCURVE",
"559 -12 CURVE SMOOTH",
"685 -12 OFFCURVE",
"753 65 OFFCURVE",
"776 153 CURVE SMOOTH",
"803 258 OFFCURVE",
"890 606 OFFCURVE",
"890 644 CURVE",
"887 661 OFFCURVE",
"852 668 OFFCURVE",
"820 668 CURVE"
);
}
);
width = 865;
}
);
unicode = 0132;
},
{
glyphname = Iacute;
lastChange = "2015-06-22 12:17:46 +0000";
layers = (
{
layerId = "647881E3-02F2-4150-93BB-7ED190F14AA3";
name = Regular;
paths = (
{
closed = 1;
nodes = (
"145 523 OFFCURVE",
"173 528 OFFCURVE",
"201 532 CURVE",
"91 95 LINE",
"65 91 OFFCURVE",
"40 86 OFFCURVE",
"15 81 CURVE",
"-6 72 OFFCURVE",
"-24 57 OFFCURVE",
"-24 35 CURVE SMOOTH",
"-24 10 OFFCURVE",
"-11 -12 OFFCURVE",
"17 -21 CURVE",
"100 -3 OFFCURVE",
"218 9 OFFCURVE",
"283 17 CURVE",
"311 26 OFFCURVE",
"342 51 OFFCURVE",
"342 76 CURVE SMOOTH",
"342 98 OFFCURVE",
"324 113 OFFCURVE",
"303 122 CURVE",
"226 114 LINE",
"255 232 OFFCURVE",
"306 430 OFFCURVE",
"332 549 CURVE",
"387 556 LINE",
"415 565 OFFCURVE",
"446 590 OFFCURVE",
"446 615 CURVE SMOOTH",
"446 637 OFFCURVE",
"428 652 OFFCURVE",
"407 661 CURVE",
"337 655 OFFCURVE",
"224 641 OFFCURVE",
"119 620 CURVE",
"98 611 OFFCURVE",
"80 596 OFFCURVE",
"80 574 CURVE SMOOTH",
"80 549 OFFCURVE",
"93 527 OFFCURVE",
"121 518 CURVE"
);
},
{
closed = 1;
nodes = (
"167 743 OFFCURVE",
"166 739 OFFCURVE",
"166 734 CURVE SMOOTH",
"166 711 OFFCURVE",
"178 703 OFFCURVE",
"203 703 CURVE SMOOTH",
"240 703 OFFCURVE",
"278 726 OFFCURVE",
"354 779 CURVE SMOOTH",
"406 815 OFFCURVE",
"425 829 OFFCURVE",
"425 848 CURVE SMOOTH",
"425 869 OFFCURVE",
"377 902 OFFCURVE",
"350 902 CURVE SMOOTH",
"326 902 OFFCURVE",
"197 789 OFFCURVE",
"169 746 CURVE SMOOTH"
);
}
);
width = 396;
}
);
leftKerningGroup = I;
rightKerningGroup = I;
unicode = 00CD;
},
{
glyphname = Ibreve;
lastChange = "2015-06-22 12:17:46 +0000";
layers = (
{
layerId = "647881E3-02F2-4150-93BB-7ED190F14AA3";
name = Regular;
paths = (
{
closed = 1;
nodes = (
"145 523 OFFCURVE",
"173 528 OFFCURVE",
"201 532 CURVE",
"91 95 LINE",
"65 91 OFFCURVE",
"40 86 OFFCURVE",
"15 81 CURVE",
"-6 72 OFFCURVE",
"-24 57 OFFCURVE",
"-24 35 CURVE SMOOTH",
"-24 10 OFFCURVE",
"-11 -12 OFFCURVE",
"17 -21 CURVE",
"100 -3 OFFCURVE",
"218 9 OFFCURVE",
"283 17 CURVE",
"311 26 OFFCURVE",
"342 51 OFFCURVE",
"342 76 CURVE SMOOTH",
"342 98 OFFCURVE",
"324 113 OFFCURVE",
"303 122 CURVE",
"226 114 LINE",
"255 232 OFFCURVE",
"306 430 OFFCURVE",
"332 549 CURVE",
"387 556 LINE",
"415 565 OFFCURVE",
"446 590 OFFCURVE",
"446 615 CURVE SMOOTH",
"446 637 OFFCURVE",
"428 652 OFFCURVE",
"407 661 CURVE",
"337 655 OFFCURVE",
"224 641 OFFCURVE",
"119 620 CURVE",
"98 611 OFFCURVE",
"80 596 OFFCURVE",
"80 574 CURVE SMOOTH",
"80 549 OFFCURVE",
"93 527 OFFCURVE",
"121 518 CURVE"
);
},
{
closed = 1;
nodes = (
"375 710 OFFCURVE",
"461 753 OFFCURVE",
"475 852 CURVE",
"466 866 OFFCURVE",
"443 866 OFFCURVE",
"431 866 CURVE SMOOTH",
"421 866 OFFCURVE",
"406 860 OFFCURVE",
"397 852 CURVE",
"375 808 OFFCURVE",
"361 789 OFFCURVE",
"295 789 CURVE SMOOTH",
"244 789 OFFCURVE",
"240 802 OFFCURVE",
"239 825 CURVE SMOOTH",
"238 856 OFFCURVE",
"216 857 OFFCURVE",
"205 857 CURVE SMOOTH",
"159 857 OFFCURVE",
"152 826 OFFCURVE",
"152 802 CURVE SMOOTH",
"152 740 OFFCURVE",
"208 708 OFFCURVE",
"287 708 CURVE SMOOTH"
);
}
);
width = 396;
}
);
leftKerningGroup = I;
rightKerningGroup = I;
unicode = 012C;
},
{
glyphname = Icaron;
lastChange = "2015-06-22 12:17:46 +0000";
layers = (
{
layerId = "647881E3-02F2-4150-93BB-7ED190F14AA3";
name = Regular;
paths = (
{
closed = 1;
nodes = (
"145 523 OFFCURVE",
"173 528 OFFCURVE",
"201 532 CURVE",
"91 95 LINE",
"65 91 OFFCURVE",
"40 86 OFFCURVE",
"15 81 CURVE",
"-6 72 OFFCURVE",
"-24 57 OFFCURVE",
"-24 35 CURVE SMOOTH",
"-24 10 OFFCURVE",
"-11 -12 OFFCURVE",
"17 -21 CURVE",
"100 -3 OFFCURVE",
"218 9 OFFCURVE",
"283 17 CURVE",
"311 26 OFFCURVE",
"342 51 OFFCURVE",
"342 76 CURVE SMOOTH",
"342 98 OFFCURVE",
"324 113 OFFCURVE",
"303 122 CURVE",
"226 114 LINE",
"255 232 OFFCURVE",
"306 430 OFFCURVE",
"332 549 CURVE",
"387 556 LINE",
"415 565 OFFCURVE",
"446 590 OFFCURVE",
"446 615 CURVE SMOOTH",
"446 637 OFFCURVE",
"428 652 OFFCURVE",
"407 661 CURVE",
"337 655 OFFCURVE",
"224 641 OFFCURVE",
"119 620 CURVE",
"98 611 OFFCURVE",
"80 596 OFFCURVE",
"80 574 CURVE SMOOTH",
"80 549 OFFCURVE",
"93 527 OFFCURVE",
"121 518 CURVE"
);
},
{
closed = 1;
nodes = (
"313 713 OFFCURVE",
"325 718 OFFCURVE",
"334 725 CURVE SMOOTH",
"383 763 OFFCURVE",
"432 804 OFFCURVE",
"459 826 CURVE SMOOTH",
"479 843 OFFCURVE",
"480 854 OFFCURVE",
"480 866 CURVE SMOOTH",
"480 887 OFFCURVE",
"453 899 OFFCURVE",
"429 899 CURVE SMOOTH",
"410 899 OFFCURVE",
"370 866 OFFCURVE",
"299 805 CURVE",
"244 871 LINE SMOOTH",
"233 884 OFFCURVE",
"219 892 OFFCURVE",
"206 892 CURVE SMOOTH",
"179 892 OFFCURVE",
"154 875 OFFCURVE",
"154 853 CURVE SMOOTH",
"154 845 OFFCURVE",
"157 837 OFFCURVE",
"164 828 CURVE SMOOTH",
"215 762 LINE SMOOTH",
"248 719 OFFCURVE",
"264 713 OFFCURVE",
"289 713 CURVE SMOOTH"
);
}
);
width = 396;
}
);
leftKerningGroup = I;
rightKerningGroup = I;
unicode = 01CF;
},
{
glyphname = Icircumflex;
lastChange = "2015-06-22 12:17:46 +0000";
layers = (
{
layerId = "647881E3-02F2-4150-93BB-7ED190F14AA3";
name = Regular;
paths = (
{
closed = 1;
nodes = (
"145 523 OFFCURVE",
"173 528 OFFCURVE",
"201 532 CURVE",
"91 95 LINE",
"65 91 OFFCURVE",
"40 86 OFFCURVE",
"15 81 CURVE",
"-6 72 OFFCURVE",
"-24 57 OFFCURVE",
"-24 35 CURVE SMOOTH",
"-24 10 OFFCURVE",
"-11 -12 OFFCURVE",
"17 -21 CURVE",
"100 -3 OFFCURVE",
"218 9 OFFCURVE",
"283 17 CURVE",
"311 26 OFFCURVE",
"342 51 OFFCURVE",
"342 76 CURVE SMOOTH",
"342 98 OFFCURVE",
"324 113 OFFCURVE",
"303 122 CURVE",
"226 114 LINE",
"255 232 OFFCURVE",
"306 430 OFFCURVE",
"332 549 CURVE",
"387 556 LINE",
"415 565 OFFCURVE",
"446 590 OFFCURVE",
"446 615 CURVE SMOOTH",
"446 637 OFFCURVE",
"428 652 OFFCURVE",
"407 661 CURVE",
"337 655 OFFCURVE",
"224 641 OFFCURVE",
"119 620 CURVE",
"98 611 OFFCURVE",
"80 596 OFFCURVE",
"80 574 CURVE SMOOTH",
"80 549 OFFCURVE",
"93 527 OFFCURVE",
"121 518 CURVE"
);
},
{
closed = 1;
nodes = (
"286 892 OFFCURVE",
"274 887 OFFCURVE",
"265 880 CURVE SMOOTH",
"216 842 OFFCURVE",
"167 801 OFFCURVE",
"140 779 CURVE SMOOTH",
"120 762 OFFCURVE",
"119 751 OFFCURVE",
"119 739 CURVE SMOOTH",
"119 718 OFFCURVE",
"146 706 OFFCURVE",
"170 706 CURVE SMOOTH",
"189 706 OFFCURVE",
"229 739 OFFCURVE",
"300 800 CURVE",
"355 734 LINE SMOOTH",
"366 721 OFFCURVE",
"380 713 OFFCURVE",
"393 713 CURVE SMOOTH",
"420 713 OFFCURVE",
"445 730 OFFCURVE",
"445 752 CURVE SMOOTH",
"445 760 OFFCURVE",
"442 768 OFFCURVE",
"435 777 CURVE SMOOTH",
"384 843 LINE SMOOTH",
"351 886 OFFCURVE",
"335 892 OFFCURVE",
"310 892 CURVE SMOOTH"
);
}
);
width = 396;
}
);
leftKerningGroup = I;
rightKerningGroup = I;
unicode = 00CE;
},
{
glyphname = Idblgrave;
lastChange = "2015-06-22 12:17:46 +0000";
layers = (
{
layerId = "647881E3-02F2-4150-93BB-7ED190F14AA3";
name = Regular;
paths = (
{
closed = 1;
nodes = (
"145 523 OFFCURVE",
"173 528 OFFCURVE",
"201 532 CURVE",
"91 95 LINE",
"65 91 OFFCURVE",
"40 86 OFFCURVE",
"15 81 CURVE",
"-6 72 OFFCURVE",
"-24 57 OFFCURVE",
"-24 35 CURVE SMOOTH",
"-24 10 OFFCURVE",
"-11 -12 OFFCURVE",
"17 -21 CURVE",
"100 -3 OFFCURVE",
"218 9 OFFCURVE",
"283 17 CURVE",
"311 26 OFFCURVE",
"342 51 OFFCURVE",
"342 76 CURVE SMOOTH",
"342 98 OFFCURVE",
"324 113 OFFCURVE",
"303 122 CURVE",
"226 114 LINE",
"255 232 OFFCURVE",
"306 430 OFFCURVE",
"332 549 CURVE",
"387 556 LINE",
"415 565 OFFCURVE",
"446 590 OFFCURVE",
"446 615 CURVE SMOOTH",
"446 637 OFFCURVE",
"428 652 OFFCURVE",
"407 661 CURVE",
"337 655 OFFCURVE",
"224 641 OFFCURVE",
"119 620 CURVE",
"98 611 OFFCURVE",
"80 596 OFFCURVE",
"80 574 CURVE SMOOTH",
"80 549 OFFCURVE",
"93 527 OFFCURVE",
"121 518 CURVE"
);
},
{
closed = 1;
nodes = (
"258 757 OFFCURVE",
"256 765 OFFCURVE",
"252 774 CURVE SMOOTH",
"234 815 OFFCURVE",
"191 906 OFFCURVE",
"141 906 CURVE SMOOTH",
"110 906 OFFCURVE",
"95 864 OFFCURVE",
"95 839 CURVE SMOOTH",
"95 820 OFFCURVE",
"107 815 OFFCURVE",
"118 811 CURVE SMOOTH",
"167 795 OFFCURVE",
"201 719 OFFCURVE",
"234 708 CURVE",
"235 708 OFFCURVE",
"237 707 OFFCURVE",
"238 707 CURVE SMOOTH",
"253 707 OFFCURVE",
"258 738 OFFCURVE",
"258 748 CURVE SMOOTH"
);
},
{
closed = 1;
nodes = (
"433 757 OFFCURVE",
"431 765 OFFCURVE",
"427 774 CURVE SMOOTH",
"409 815 OFFCURVE",
"366 906 OFFCURVE",
"316 906 CURVE SMOOTH",
"285 906 OFFCURVE",
"270 864 OFFCURVE",
"270 839 CURVE SMOOTH",
"270 820 OFFCURVE",
"282 815 OFFCURVE",
"293 811 CURVE SMOOTH",
"342 795 OFFCURVE",
"376 719 OFFCURVE",
"409 708 CURVE",
"410 708 OFFCURVE",
"412 707 OFFCURVE",
"413 707 CURVE SMOOTH",
"428 707 OFFCURVE",
"433 738 OFFCURVE",
"433 748 CURVE SMOOTH"
);
}
);
width = 396;
}
);
leftKerningGroup = I;
rightKerningGroup = I;
unicode = 0208;
},
{
glyphname = Idieresis;
lastChange = "2015-06-22 12:17:46 +0000";
layers = (
{
layerId = "647881E3-02F2-4150-93BB-7ED190F14AA3";
name = Regular;
paths = (
{
closed = 1;
nodes = (
"145 523 OFFCURVE",
"173 528 OFFCURVE",
"201 532 CURVE",
"91 95 LINE",
"65 91 OFFCURVE",
"40 86 OFFCURVE",
"15 81 CURVE",
"-6 72 OFFCURVE",
"-24 57 OFFCURVE",
"-24 35 CURVE SMOOTH",
"-24 10 OFFCURVE",
"-11 -12 OFFCURVE",
"17 -21 CURVE",
"100 -3 OFFCURVE",
"218 9 OFFCURVE",
"283 17 CURVE",
"311 26 OFFCURVE",
"342 51 OFFCURVE",
"342 76 CURVE SMOOTH",
"342 98 OFFCURVE",
"324 113 OFFCURVE",
"303 122 CURVE",
"226 114 LINE",
"255 232 OFFCURVE",
"306 430 OFFCURVE",
"332 549 CURVE",
"387 556 LINE",
"415 565 OFFCURVE",
"446 590 OFFCURVE",
"446 615 CURVE SMOOTH",
"446 637 OFFCURVE",
"428 652 OFFCURVE",
"407 661 CURVE",
"337 655 OFFCURVE",
"224 641 OFFCURVE",
"119 620 CURVE",
"98 611 OFFCURVE",
"80 596 OFFCURVE",
"80 574 CURVE SMOOTH",
"80 549 OFFCURVE",
"93 527 OFFCURVE",
"121 518 CURVE"
);
},
{
closed = 1;
nodes = (
"212 695 OFFCURVE",
"255 728 OFFCURVE",
"255 771 CURVE SMOOTH",
"255 803 OFFCURVE",
"224 839 OFFCURVE",
"190 839 CURVE SMOOTH",
"147 839 OFFCURVE",
"100 802 OFFCURVE",
"100 755 CURVE SMOOTH",
"100 724 OFFCURVE",
"135 695 OFFCURVE",
"165 695 CURVE SMOOTH"
);
},
{
closed = 1;
nodes = (
"440 699 OFFCURVE",
"482 734 OFFCURVE",
"482 777 CURVE SMOOTH",
"482 809 OFFCURVE",
"444 841 OFFCURVE",
"410 841 CURVE SMOOTH",
"367 841 OFFCURVE",
"324 809 OFFCURVE",
"324 761 CURVE SMOOTH",
"324 731 OFFCURVE",
"363 699 OFFCURVE",
"393 699 CURVE SMOOTH"
);
}
);
width = 396;
}
);
leftKerningGroup = I;
rightKerningGroup = I;
unicode = 00CF;
},
{
glyphname = Idotaccent;
lastChange = "2015-06-22 12:17:46 +0000";
layers = (
{
layerId = "647881E3-02F2-4150-93BB-7ED190F14AA3";
name = Regular;
paths = (
{
closed = 1;
nodes = (
"145 523 OFFCURVE",
"173 528 OFFCURVE",
"201 532 CURVE",
"91 95 LINE",
"65 91 OFFCURVE",
"40 86 OFFCURVE",
"15 81 CURVE",
"-6 72 OFFCURVE",
"-24 57 OFFCURVE",
"-24 35 CURVE SMOOTH",
"-24 10 OFFCURVE",
"-11 -12 OFFCURVE",
"17 -21 CURVE",
"100 -3 OFFCURVE",
"218 9 OFFCURVE",
"283 17 CURVE",
"311 26 OFFCURVE",
"342 51 OFFCURVE",
"342 76 CURVE SMOOTH",
"342 98 OFFCURVE",
"324 113 OFFCURVE",
"303 122 CURVE",
"226 114 LINE",
"255 232 OFFCURVE",
"306 430 OFFCURVE",
"332 549 CURVE",
"387 556 LINE",
"415 565 OFFCURVE",
"446 590 OFFCURVE",
"446 615 CURVE SMOOTH",
"446 637 OFFCURVE",
"428 652 OFFCURVE",
"407 661 CURVE",
"337 655 OFFCURVE",
"224 641 OFFCURVE",
"119 620 CURVE",
"98 611 OFFCURVE",
"80 596 OFFCURVE",
"80 574 CURVE SMOOTH",
"80 549 OFFCURVE",
"93 527 OFFCURVE",
"121 518 CURVE"
);
},
{
closed = 1;
nodes = (
"332 709 OFFCURVE",
"375 742 OFFCURVE",
"375 785 CURVE SMOOTH",
"375 817 OFFCURVE",
"344 853 OFFCURVE",
"310 853 CURVE SMOOTH",
"267 853 OFFCURVE",
"220 816 OFFCURVE",
"220 769 CURVE SMOOTH",
"220 738 OFFCURVE",
"255 709 OFFCURVE",
"285 709 CURVE SMOOTH"
);
}
);
width = 396;
}
);
leftKerningGroup = I;
rightKerningGroup = I;
unicode = 0130;
},
{
glyphname = Idotbelow;
lastChange = "2015-06-22 12:17:46 +0000";
layers = (
{
layerId = "647881E3-02F2-4150-93BB-7ED190F14AA3";
name = Regular;
paths = (
{
closed = 1;
nodes = (
"145 523 OFFCURVE",
"173 528 OFFCURVE",
"201 532 CURVE",
"91 95 LINE",
"65 91 OFFCURVE",
"40 86 OFFCURVE",
"15 81 CURVE",
"-6 72 OFFCURVE",
"-24 57 OFFCURVE",
"-24 35 CURVE SMOOTH",
"-24 10 OFFCURVE",
"-11 -12 OFFCURVE",
"17 -21 CURVE",
"100 -3 OFFCURVE",
"218 9 OFFCURVE",
"283 17 CURVE",
"311 26 OFFCURVE",
"342 51 OFFCURVE",
"342 76 CURVE SMOOTH",
"342 98 OFFCURVE",
"324 113 OFFCURVE",
"303 122 CURVE",
"226 114 LINE",
"255 232 OFFCURVE",
"306 430 OFFCURVE",
"332 549 CURVE",
"387 556 LINE",
"415 565 OFFCURVE",
"446 590 OFFCURVE",
"446 615 CURVE SMOOTH",
"446 637 OFFCURVE",
"428 652 OFFCURVE",
"407 661 CURVE",
"337 655 OFFCURVE",
"224 641 OFFCURVE",
"119 620 CURVE",
"98 611 OFFCURVE",
"80 596 OFFCURVE",
"80 574 CURVE SMOOTH",
"80 549 OFFCURVE",
"93 527 OFFCURVE",
"121 518 CURVE"
);
},
{
closed = 1;
nodes = (
"149 -215 OFFCURVE",
"192 -182 OFFCURVE",
"192 -139 CURVE SMOOTH",
"192 -107 OFFCURVE",
"161 -71 OFFCURVE",
"127 -71 CURVE SMOOTH",
"84 -71 OFFCURVE",
"37 -108 OFFCURVE",
"37 -155 CURVE SMOOTH",
"37 -186 OFFCURVE",
"72 -215 OFFCURVE",
"102 -215 CURVE SMOOTH"
);
}
);
width = 396;
}
);
leftKerningGroup = I;
rightKerningGroup = I;
unicode = 1ECA;
},
{
glyphname = Igrave;
lastChange = "2015-06-22 12:17:46 +0000";
layers = (
{
layerId = "647881E3-02F2-4150-93BB-7ED190F14AA3";
name = Regular;
paths = (
{
closed = 1;
nodes = (
"145 523 OFFCURVE",
"173 528 OFFCURVE",
"201 532 CURVE",
"91 95 LINE",
"65 91 OFFCURVE",
"40 86 OFFCURVE",
"15 81 CURVE",
"-6 72 OFFCURVE",
"-24 57 OFFCURVE",
"-24 35 CURVE SMOOTH",
"-24 10 OFFCURVE",
"-11 -12 OFFCURVE",
"17 -21 CURVE",
"100 -3 OFFCURVE",
"218 9 OFFCURVE",
"283 17 CURVE",
"311 26 OFFCURVE",
"342 51 OFFCURVE",
"342 76 CURVE SMOOTH",
"342 98 OFFCURVE",
"324 113 OFFCURVE",
"303 122 CURVE",
"226 114 LINE",
"255 232 OFFCURVE",
"306 430 OFFCURVE",
"332 549 CURVE",
"387 556 LINE",
"415 565 OFFCURVE",
"446 590 OFFCURVE",
"446 615 CURVE SMOOTH",
"446 637 OFFCURVE",
"428 652 OFFCURVE",
"407 661 CURVE",
"337 655 OFFCURVE",
"224 641 OFFCURVE",
"119 620 CURVE",
"98 611 OFFCURVE",
"80 596 OFFCURVE",
"80 574 CURVE SMOOTH",
"80 549 OFFCURVE",
"93 527 OFFCURVE",
"121 518 CURVE"
);
},
{
closed = 1;
nodes = (
"333 791 OFFCURVE",
"204 904 OFFCURVE",
"180 904 CURVE SMOOTH",
"153 904 OFFCURVE",
"105 871 OFFCURVE",
"105 850 CURVE SMOOTH",
"105 831 OFFCURVE",
"124 817 OFFCURVE",
"176 781 CURVE SMOOTH",
"252 728 OFFCURVE",
"290 705 OFFCURVE",
"327 705 CURVE SMOOTH",
"352 705 OFFCURVE",
"364 713 OFFCURVE",
"364 736 CURVE SMOOTH",
"364 741 OFFCURVE",
"363 745 OFFCURVE",
"361 748 CURVE SMOOTH"
);
}
);
width = 396;
}
);
leftKerningGroup = I;
rightKerningGroup = I;
unicode = 00CC;
},
{
glyphname = Ihookabove;
lastChange = "2015-06-22 12:17:46 +0000";
layers = (
{
layerId = "647881E3-02F2-4150-93BB-7ED190F14AA3";
name = Regular;
paths = (
{
closed = 1;
nodes = (
"145 523 OFFCURVE",
"173 528 OFFCURVE",
"201 532 CURVE",
"91 95 LINE",
"65 91 OFFCURVE",
"40 86 OFFCURVE",
"15 81 CURVE",
"-6 72 OFFCURVE",
"-24 57 OFFCURVE",
"-24 35 CURVE SMOOTH",
"-24 10 OFFCURVE",
"-11 -12 OFFCURVE",
"17 -21 CURVE",
"100 -3 OFFCURVE",
"218 9 OFFCURVE",
"283 17 CURVE",
"311 26 OFFCURVE",
"342 51 OFFCURVE",
"342 76 CURVE SMOOTH",
"342 98 OFFCURVE",
"324 113 OFFCURVE",
"303 122 CURVE",
"226 114 LINE",
"255 232 OFFCURVE",
"306 430 OFFCURVE",
"332 549 CURVE",
"387 556 LINE",
"415 565 OFFCURVE",
"446 590 OFFCURVE",
"446 615 CURVE SMOOTH",
"446 637 OFFCURVE",
"428 652 OFFCURVE",
"407 661 CURVE",
"337 655 OFFCURVE",
"224 641 OFFCURVE",
"119 620 CURVE",
"98 611 OFFCURVE",
"80 596 OFFCURVE",
"80 574 CURVE SMOOTH",
"80 549 OFFCURVE",
"93 527 OFFCURVE",
"121 518 CURVE"
);
},
{
closed = 1;
nodes = (
"334 744 OFFCURVE",
"331 769 OFFCURVE",
"367 783 CURVE SMOOTH",
"408 799 OFFCURVE",
"453 825 OFFCURVE",
"453 881 CURVE SMOOTH",
"453 934 OFFCURVE",
"395 956 OFFCURVE",
"344 956 CURVE SMOOTH",
"299 956 OFFCURVE",
"235 948 OFFCURVE",
"235 905 CURVE SMOOTH",
"235 890 OFFCURVE",
"247 874 OFFCURVE",
"260 874 CURVE SMOOTH",
"288 874 OFFCURVE",
"287 892 OFFCURVE",
"330 892 CURVE SMOOTH",
"360 892 OFFCURVE",
"367 878 OFFCURVE",
"367 870 CURVE SMOOTH",
"367 818 OFFCURVE",
"276 837 OFFCURVE",
"263 787 CURVE SMOOTH",
"248 732 OFFCURVE",
"247 723 OFFCURVE",
"247 721 CURVE SMOOTH",
"247 709 OFFCURVE",
"260 702 OFFCURVE",
"281 702 CURVE SMOOTH",
"307 702 OFFCURVE",
"320 716 OFFCURVE",
"327 729 CURVE"
);
}
);
width = 396;
}
);
leftKerningGroup = I;
rightKerningGroup = I;
unicode = 1EC8;
},
{
glyphname = Iinvertedbreve;
lastChange = "2015-06-22 12:17:46 +0000";
layers = (
{
layerId = "647881E3-02F2-4150-93BB-7ED190F14AA3";
name = Regular;
paths = (
{
closed = 1;
nodes = (
"145 523 OFFCURVE",
"173 528 OFFCURVE",
"201 532 CURVE",
"91 95 LINE",
"65 91 OFFCURVE",
"40 86 OFFCURVE",
"15 81 CURVE",
"-6 72 OFFCURVE",
"-24 57 OFFCURVE",
"-24 35 CURVE SMOOTH",
"-24 10 OFFCURVE",
"-11 -12 OFFCURVE",
"17 -21 CURVE",
"100 -3 OFFCURVE",
"218 9 OFFCURVE",
"283 17 CURVE",
"311 26 OFFCURVE",
"342 51 OFFCURVE",
"342 76 CURVE SMOOTH",
"342 98 OFFCURVE",
"324 113 OFFCURVE",
"303 122 CURVE",
"226 114 LINE",
"255 232 OFFCURVE",
"306 430 OFFCURVE",
"332 549 CURVE",
"387 556 LINE",
"415 565 OFFCURVE",
"446 590 OFFCURVE",
"446 615 CURVE SMOOTH",
"446 637 OFFCURVE",
"428 652 OFFCURVE",
"407 661 CURVE",
"337 655 OFFCURVE",
"224 641 OFFCURVE",
"119 620 CURVE",
"98 611 OFFCURVE",
"80 596 OFFCURVE",
"80 574 CURVE SMOOTH",
"80 549 OFFCURVE",
"93 527 OFFCURVE",
"121 518 CURVE"
);
},
{
closed = 1;
nodes = (
"234 851 OFFCURVE",
"141 821 OFFCURVE",
"141 724 CURVE SMOOTH",
"141 703 OFFCURVE",
"164 700 OFFCURVE",
"192 700 CURVE SMOOTH",
"202 700 OFFCURVE",
"225 707 OFFCURVE",
"228 719 CURVE",
"242 766 OFFCURVE",
"292 775 OFFCURVE",
"332 775 CURVE SMOOTH",
"359 775 OFFCURVE",
"386 769 OFFCURVE",
"388 741 CURVE SMOOTH",
"390 717 OFFCURVE",
"412 713 OFFCURVE",
"431 713 CURVE SMOOTH",
"467 713 OFFCURVE",
"480 737 OFFCURVE",
"480 769 CURVE SMOOTH",
"480 831 OFFCURVE",
"409 856 OFFCURVE",
"338 856 CURVE"
);
}
);
width = 396;
}
);
leftKerningGroup = I;
rightKerningGroup = I;
unicode = 020A;
},
{
glyphname = Imacron;
lastChange = "2015-06-22 12:17:46 +0000";
layers = (
{
layerId = "647881E3-02F2-4150-93BB-7ED190F14AA3";
name = Regular;
paths = (
{
closed = 1;
nodes = (
"145 523 OFFCURVE",
"173 528 OFFCURVE",
"201 532 CURVE",
"91 95 LINE",
"65 91 OFFCURVE",
"40 86 OFFCURVE",
"15 81 CURVE",
"-6 72 OFFCURVE",
"-24 57 OFFCURVE",
"-24 35 CURVE SMOOTH",
"-24 10 OFFCURVE",
"-11 -12 OFFCURVE",
"17 -21 CURVE",
"100 -3 OFFCURVE",
"218 9 OFFCURVE",
"283 17 CURVE",
"311 26 OFFCURVE",
"342 51 OFFCURVE",
"342 76 CURVE SMOOTH",
"342 98 OFFCURVE",
"324 113 OFFCURVE",
"303 122 CURVE",
"226 114 LINE",
"255 232 OFFCURVE",
"306 430 OFFCURVE",
"332 549 CURVE",
"387 556 LINE",
"415 565 OFFCURVE",
"446 590 OFFCURVE",
"446 615 CURVE SMOOTH",
"446 637 OFFCURVE",
"428 652 OFFCURVE",
"407 661 CURVE",
"337 655 OFFCURVE",
"224 641 OFFCURVE",
"119 620 CURVE",
"98 611 OFFCURVE",
"80 596 OFFCURVE",
"80 574 CURVE SMOOTH",
"80 549 OFFCURVE",
"93 527 OFFCURVE",
"121 518 CURVE"
);
},
{
closed = 1;
nodes = (
"477 807 LINE",
"476 832 OFFCURVE",
"460 845 OFFCURVE",
"429 847 CURVE",
"240 827 LINE SMOOTH",
"144 817 OFFCURVE",
"112 811 OFFCURVE",
"109 768 CURVE",
"109 760 LINE",
"111 738 OFFCURVE",
"125 722 OFFCURVE",
"156 720 CURVE",
"171 720 OFFCURVE",
"185 722 OFFCURVE",
"199 724 CURVE",
"408 747 LINE SMOOTH",
"445 751 OFFCURVE",
"475 765 OFFCURVE",
"477 800 CURVE"
);
}
);
width = 396;
}
);
leftKerningGroup = I;
rightKerningGroup = I;
unicode = 012A;
},
{
glyphname = Iogonek;
lastChange = "2015-06-22 12:17:46 +0000";
layers = (
{
layerId = "647881E3-02F2-4150-93BB-7ED190F14AA3";
name = Regular;
paths = (
{
closed = 1;
nodes = (
"145 523 OFFCURVE",
"173 528 OFFCURVE",
"201 532 CURVE",
"91 95 LINE",
"65 91 OFFCURVE",
"40 86 OFFCURVE",
"15 81 CURVE",
"-6 72 OFFCURVE",
"-24 57 OFFCURVE",
"-24 35 CURVE SMOOTH",
"-24 10 OFFCURVE",
"-11 -12 OFFCURVE",
"17 -21 CURVE",
"100 -3 OFFCURVE",
"218 9 OFFCURVE",
"283 17 CURVE",
"311 26 OFFCURVE",
"342 51 OFFCURVE",
"342 76 CURVE SMOOTH",
"342 98 OFFCURVE",
"324 113 OFFCURVE",
"303 122 CURVE",
"226 114 LINE",
"255 232 OFFCURVE",
"306 430 OFFCURVE",
"332 549 CURVE",
"387 556 LINE",
"415 565 OFFCURVE",
"446 590 OFFCURVE",
"446 615 CURVE SMOOTH",
"446 637 OFFCURVE",
"428 652 OFFCURVE",
"407 661 CURVE",
"337 655 OFFCURVE",
"224 641 OFFCURVE",
"119 620 CURVE",
"98 611 OFFCURVE",
"80 596 OFFCURVE",
"80 574 CURVE SMOOTH",
"80 549 OFFCURVE",
"93 527 OFFCURVE",
"121 518 CURVE"
);
},
{
closed = 1;
nodes = (
"257 -30 OFFCURVE",
"281 2 OFFCURVE",
"328 45 CURVE",
"262 45 LINE",
"193 16 OFFCURVE",
"149 -33 OFFCURVE",
"149 -71 CURVE SMOOTH",
"149 -149 OFFCURVE",
"208 -175 OFFCURVE",
"264 -175 CURVE SMOOTH",
"294 -175 OFFCURVE",
"364 -168 OFFCURVE",
"364 -130 CURVE SMOOTH",
"364 -123 OFFCURVE",
"360 -117 OFFCURVE",
"350 -110 CURVE",
"333 -114 OFFCURVE",
"317 -116 OFFCURVE",
"302 -116 CURVE SMOOTH",
"274 -116 OFFCURVE",
"257 -102 OFFCURVE",
"257 -71 CURVE SMOOTH"
);
}
);
width = 396;
}
);
leftKerningGroup = I;
rightKerningGroup = I;
unicode = 012E;
},
{
glyphname = Itilde;
lastChange = "2015-06-22 12:17:46 +0000";
layers = (
{
layerId = "647881E3-02F2-4150-93BB-7ED190F14AA3";
name = Regular;
paths = (
{
closed = 1;
nodes = (
"145 523 OFFCURVE",
"173 528 OFFCURVE",
"201 532 CURVE",
"91 95 LINE",
"65 91 OFFCURVE",
"40 86 OFFCURVE",
"15 81 CURVE",
"-6 72 OFFCURVE",
"-24 57 OFFCURVE",
"-24 35 CURVE SMOOTH",
"-24 10 OFFCURVE",
"-11 -12 OFFCURVE",
"17 -21 CURVE",
"100 -3 OFFCURVE",
"218 9 OFFCURVE",
"283 17 CURVE",
"311 26 OFFCURVE",
"342 51 OFFCURVE",
"342 76 CURVE SMOOTH",
"342 98 OFFCURVE",
"324 113 OFFCURVE",
"303 122 CURVE",
"226 114 LINE",
"255 232 OFFCURVE",
"306 430 OFFCURVE",
"332 549 CURVE",
"387 556 LINE",
"415 565 OFFCURVE",
"446 590 OFFCURVE",
"446 615 CURVE SMOOTH",
"446 637 OFFCURVE",
"428 652 OFFCURVE",
"407 661 CURVE",
"337 655 OFFCURVE",
"224 641 OFFCURVE",
"119 620 CURVE",
"98 611 OFFCURVE",
"80 596 OFFCURVE",
"80 574 CURVE SMOOTH",
"80 549 OFFCURVE",
"93 527 OFFCURVE",
"121 518 CURVE"
);
},
{
closed = 1;
nodes = (
"260 769 OFFCURVE",
"278 763 OFFCURVE",
"304 742 CURVE",
"335 722 OFFCURVE",
"357 710 OFFCURVE",
"390 710 CURVE SMOOTH",
"418 710 OFFCURVE",
"493 756 OFFCURVE",
"493 817 CURVE SMOOTH",
"493 824 OFFCURVE",
"492 826 OFFCURVE",
"491 826 CURVE SMOOTH",
"488 826 OFFCURVE",
"485 836 OFFCURVE",
"478 836 CURVE SMOOTH",
"476 836 OFFCURVE",
"472 835 OFFCURVE",
"469 832 CURVE",
"451 816 OFFCURVE",
"435 795 OFFCURVE",
"412 795 CURVE SMOOTH",
"390 795 OFFCURVE",
"372 802 OFFCURVE",
"346 822 CURVE SMOOTH",
"316 845 OFFCURVE",
"285 857 OFFCURVE",
"256 857 CURVE SMOOTH",
"208 857 OFFCURVE",
"131 806 OFFCURVE",
"131 764 CURVE SMOOTH",
"131 726 OFFCURVE",
"139 718 OFFCURVE",
"153 710 CURVE",
"185 745 OFFCURVE",
"216 769 OFFCURVE",
"240 769 CURVE SMOOTH"
);
}
);
width = 396;
}
);
leftKerningGroup = I;
rightKerningGroup = I;
unicode = 0128;
},
{
glyphname = J;
lastChange = "2015-06-22 16:25:12 +0000";
layers = (
{
layerId = "647881E3-02F2-4150-93BB-7ED190F14AA3";
name = Regular;
paths = (
{
closed = 1;
nodes = (
"374 666 OFFCURVE",
"341 661 OFFCURVE",
"236 640 CURVE",
"215 631 OFFCURVE",
"197 616 OFFCURVE",
"197 594 CURVE SMOOTH",
"197 569 OFFCURVE",
"210 547 OFFCURVE",
"238 538 CURVE",
"257 542 OFFCURVE",
"310 552 OFFCURVE",
"345 558 CURVE",
"248 183 LINE SMOOTH",
"226 99 OFFCURVE",
"184 85 OFFCURVE",
"158 85 CURVE SMOOTH",
"114 85 OFFCURVE",
"80 100 OFFCURVE",
"79 168 CURVE",
"79 188 OFFCURVE",
"112 213 OFFCURVE",
"112 233 CURVE SMOOTH",
"112 253 OFFCURVE",
"85 267 OFFCURVE",
"37 267 CURVE SMOOTH",
"-13 267 OFFCURVE",
"-28 230 OFFCURVE",
"-28 156 CURVE SMOOTH",
"-28 97 OFFCURVE",
"4 -12 OFFCURVE",
"163 -12 CURVE SMOOTH",
"289 -12 OFFCURVE",
"357 65 OFFCURVE",
"380 153 CURVE SMOOTH",
"407 258 OFFCURVE",
"494 606 OFFCURVE",
"494 644 CURVE",
"491 661 OFFCURVE",
"456 668 OFFCURVE",
"424 668 CURVE"
);
}
);
width = 469;
}
);
leftKerningGroup = J;
rightKerningGroup = J;
unicode = 004A;
},
{
glyphname = Jcircumflex;
lastChange = "2015-06-22 12:19:24 +0000";
layers = (
{
layerId = "647881E3-02F2-4150-93BB-7ED190F14AA3";
name = Regular;
paths = (
{
closed = 1;
nodes = (
"374 666 OFFCURVE",
"341 661 OFFCURVE",
"236 640 CURVE",
"215 631 OFFCURVE",
"197 616 OFFCURVE",
"197 594 CURVE SMOOTH",
"197 569 OFFCURVE",
"210 547 OFFCURVE",
"238 538 CURVE",
"257 542 OFFCURVE",
"310 552 OFFCURVE",
"345 558 CURVE",
"248 183 LINE SMOOTH",
"226 99 OFFCURVE",
"184 85 OFFCURVE",
"158 85 CURVE SMOOTH",
"114 85 OFFCURVE",
"80 100 OFFCURVE",
"79 168 CURVE",
"79 188 OFFCURVE",
"112 213 OFFCURVE",
"112 233 CURVE SMOOTH",
"112 253 OFFCURVE",
"85 267 OFFCURVE",
"37 267 CURVE SMOOTH",
"-13 267 OFFCURVE",
"-28 230 OFFCURVE",
"-28 156 CURVE SMOOTH",
"-28 97 OFFCURVE",
"4 -12 OFFCURVE",
"163 -12 CURVE SMOOTH",
"289 -12 OFFCURVE",
"357 65 OFFCURVE",
"380 153 CURVE SMOOTH",
"407 258 OFFCURVE",
"494 606 OFFCURVE",
"494 644 CURVE",
"491 661 OFFCURVE",
"456 668 OFFCURVE",
"424 668 CURVE"
);
},
{
closed = 1;
nodes = (
"401 889 OFFCURVE",
"389 884 OFFCURVE",
"380 877 CURVE SMOOTH",
"331 839 OFFCURVE",
"282 798 OFFCURVE",
"255 776 CURVE SMOOTH",
"235 759 OFFCURVE",
"234 748 OFFCURVE",
"234 736 CURVE SMOOTH",
"234 715 OFFCURVE",
"261 703 OFFCURVE",
"285 703 CURVE SMOOTH",
"304 703 OFFCURVE",
"344 736 OFFCURVE",
"415 797 CURVE",
"470 731 LINE SMOOTH",
"481 718 OFFCURVE",
"495 710 OFFCURVE",
"508 710 CURVE SMOOTH",
"535 710 OFFCURVE",
"560 727 OFFCURVE",
"560 749 CURVE SMOOTH",
"560 757 OFFCURVE",
"557 765 OFFCURVE",
"550 774 CURVE SMOOTH",
"499 840 LINE SMOOTH",
"466 883 OFFCURVE",
"450 889 OFFCURVE",
"425 889 CURVE SMOOTH"
);
}
);
width = 469;
}
);
leftKerningGroup = J;
rightKerningGroup = J;
unicode = 0134;
},
{
glyphname = K;
lastChange = "2015-06-22 12:21:46 +0000";
layers = (
{
layerId = "647881E3-02F2-4150-93BB-7ED190F14AA3";
name = Regular;
paths = (
{
closed = 1;
nodes = (
"206 219 OFFCURVE",
"371 28 OFFCURVE",
"439 -1 CURVE SMOOTH",
"448 -5 OFFCURVE",
"459 -6 OFFCURVE",
"471 -6 CURVE SMOOTH",
"501 -6 OFFCURVE",
"505 4 OFFCURVE",
"540 11 CURVE SMOOTH",
"552 13 OFFCURVE",
"557 20 OFFCURVE",
"557 28 CURVE SMOOTH",
"557 51 OFFCURVE",
"529 85 OFFCURVE",
"513 87 CURVE SMOOTH",
"503 88 LINE",
"479 87 OFFCURVE",
"343 247 OFFCURVE",
"323 312 CURVE",
"343 351 OFFCURVE",
"516 505 OFFCURVE",
"578 532 CURVE",
"578 532 OFFCURVE",
"637 557 OFFCURVE",
"647 569 CURVE",
"650 572 OFFCURVE",
"651 577 OFFCURVE",
"651 583 CURVE SMOOTH",
"651 598 OFFCURVE",
"642 619 OFFCURVE",
"634 635 CURVE",
"624 657 OFFCURVE",
"581 658 OFFCURVE",
"580 658 CURVE",
"476 639 OFFCURVE",
"202 364 OFFCURVE",
"203 317 CURVE SMOOTH"
);
},
{
closed = 1;
nodes = (
"274 633 OFFCURVE",
"228 663 OFFCURVE",
"195 663 CURVE SMOOTH",
"176 663 OFFCURVE",
"136 652 OFFCURVE",
"130 626 CURVE",
"130 617 OFFCURVE",
"133 530 OFFCURVE",
"133 520 CURVE",
"12 54 LINE SMOOTH",
"10 47 OFFCURVE",
"9 40 OFFCURVE",
"9 33 CURVE SMOOTH",
"9 -2 OFFCURVE",
"30 -13 OFFCURVE",
"69 -13 CURVE SMOOTH",
"124 -13 OFFCURVE",
"136 -1 OFFCURVE",
"145 36 CURVE SMOOTH",
"171 141 OFFCURVE",
"276 551 OFFCURVE",
"276 589 CURVE"
);
}
);
width = 608;
}
);
leftKerningGroup = K;
rightKerningGroup = K;
unicode = 004B;
},
{
glyphname = Kcommaaccent;
lastChange = "2015-06-22 11:46:23 +0000";
layers = (
{
layerId = "647881E3-02F2-4150-93BB-7ED190F14AA3";
name = Regular;
paths = (
{
closed = 1;
nodes = (
"206 219 OFFCURVE",
"371 28 OFFCURVE",
"439 -1 CURVE SMOOTH",
"448 -5 OFFCURVE",
"459 -6 OFFCURVE",
"471 -6 CURVE SMOOTH",
"501 -6 OFFCURVE",
"505 4 OFFCURVE",
"540 11 CURVE SMOOTH",
"552 13 OFFCURVE",
"557 20 OFFCURVE",
"557 28 CURVE SMOOTH",
"557 51 OFFCURVE",
"529 85 OFFCURVE",
"513 87 CURVE SMOOTH",
"503 88 LINE",
"479 87 OFFCURVE",
"343 247 OFFCURVE",
"323 312 CURVE",
"343 351 OFFCURVE",
"516 505 OFFCURVE",
"578 532 CURVE",
"578 532 OFFCURVE",
"637 557 OFFCURVE",
"647 569 CURVE",
"650 572 OFFCURVE",
"651 577 OFFCURVE",
"651 583 CURVE SMOOTH",
"651 598 OFFCURVE",
"642 619 OFFCURVE",
"634 635 CURVE",
"624 657 OFFCURVE",
"581 658 OFFCURVE",
"580 658 CURVE",
"476 639 OFFCURVE",
"202 364 OFFCURVE",
"203 317 CURVE SMOOTH"
);
},
{
closed = 1;
nodes = (
"274 633 OFFCURVE",
"228 663 OFFCURVE",
"195 663 CURVE SMOOTH",
"176 663 OFFCURVE",
"136 652 OFFCURVE",
"130 626 CURVE",
"130 617 OFFCURVE",
"133 530 OFFCURVE",
"133 520 CURVE",
"12 54 LINE SMOOTH",
"10 47 OFFCURVE",
"9 40 OFFCURVE",
"9 33 CURVE SMOOTH",
"9 -2 OFFCURVE",
"30 -13 OFFCURVE",
"69 -13 CURVE SMOOTH",
"124 -13 OFFCURVE",
"136 -1 OFFCURVE",
"145 36 CURVE SMOOTH",
"171 141 OFFCURVE",
"276 551 OFFCURVE",
"276 589 CURVE"
);
},
{
closed = 1;
nodes = (
"202 -302 OFFCURVE",
"219 -289 OFFCURVE",
"234 -274 CURVE",
"283 -218 OFFCURVE",
"335 -157 OFFCURVE",
"335 -104 CURVE SMOOTH",
"335 -87 OFFCURVE",
"314 -56 OFFCURVE",
"276 -56 CURVE SMOOTH",
"221 -56 OFFCURVE",
"215 -75 OFFCURVE",
"215 -95 CURVE SMOOTH",
"215 -105 OFFCURVE",
"219 -119 OFFCURVE",
"219 -132 CURVE SMOOTH",
"219 -189 OFFCURVE",
"150 -227 OFFCURVE",
"150 -283 CURVE SMOOTH",
"150 -292 OFFCURVE",
"154 -302 OFFCURVE",
"178 -302 CURVE SMOOTH"
);
}
);
width = 608;
}
);
leftKerningGroup = K;
rightKerningGroup = K;
unicode = 0136;
},
{
glyphname = L;
lastChange = "2015-06-22 12:40:03 +0000";
layers = (
{
layerId = "647881E3-02F2-4150-93BB-7ED190F14AA3";
name = Regular;
paths = (
{
closed = 1;
nodes = (
"288 661 OFFCURVE",
"255 668 OFFCURVE",
"223 668 CURVE SMOOTH",
"177 668 OFFCURVE",
"168 651 OFFCURVE",
"154 595 CURVE SMOOTH",
"26 89 LINE SMOOTH",
"24 82 OFFCURVE",
"23 75 OFFCURVE",
"23 68 CURVE SMOOTH",
"23 33 OFFCURVE",
"55 -12 OFFCURVE",
"94 -12 CURVE SMOOTH",
"149 -12 OFFCURVE",
"136 -1 OFFCURVE",
"145 36 CURVE SMOOTH",
"161 99 LINE SMOOTH",
"202 262 OFFCURVE",
"290 615 OFFCURVE",
"290 644 CURVE"
);
},
{
closed = 1;
nodes = (
"114 -10 LINE",
"197 8 OFFCURVE",
"334 14 OFFCURVE",
"399 22 CURVE",
"427 31 OFFCURVE",
"458 56 OFFCURVE",
"458 81 CURVE SMOOTH",
"458 103 OFFCURVE",
"440 118 OFFCURVE",
"419 127 CURVE",
"349 121 OFFCURVE",
"238 116 OFFCURVE",
"133 95 CURVE"
);
}
);
width = 462;
}
);
leftKerningGroup = L;
unicode = 004C;
},
{
glyphname = LJ;
lastChange = "2015-06-22 05:54:19 +0000";
layers = (
{
layerId = "647881E3-02F2-4150-93BB-7ED190F14AA3";
name = Regular;
paths = (
{
closed = 1;
nodes = (
"288 661 OFFCURVE",
"255 668 OFFCURVE",
"223 668 CURVE SMOOTH",
"177 668 OFFCURVE",
"168 651 OFFCURVE",
"154 595 CURVE SMOOTH",
"26 89 LINE SMOOTH",
"24 82 OFFCURVE",
"23 75 OFFCURVE",
"23 68 CURVE SMOOTH",
"23 33 OFFCURVE",
"55 -12 OFFCURVE",
"94 -12 CURVE SMOOTH",
"149 -12 OFFCURVE",
"136 -1 OFFCURVE",
"145 36 CURVE SMOOTH",
"161 99 LINE SMOOTH",
"202 262 OFFCURVE",
"290 615 OFFCURVE",
"290 644 CURVE"
);
},
{
closed = 1;
nodes = (
"114 -10 LINE",
"197 8 OFFCURVE",
"334 14 OFFCURVE",
"399 22 CURVE",
"427 31 OFFCURVE",
"458 56 OFFCURVE",
"458 81 CURVE SMOOTH",
"458 103 OFFCURVE",
"440 118 OFFCURVE",
"419 127 CURVE",
"349 121 OFFCURVE",
"238 116 OFFCURVE",
"133 95 CURVE"
);
},
{
closed = 1;
nodes = (
"836 666 OFFCURVE",
"803 661 OFFCURVE",
"698 640 CURVE",
"677 631 OFFCURVE",
"659 616 OFFCURVE",
"659 594 CURVE SMOOTH",
"659 569 OFFCURVE",
"672 547 OFFCURVE",
"700 538 CURVE",
"719 542 OFFCURVE",
"772 552 OFFCURVE",
"807 558 CURVE",
"710 183 LINE SMOOTH",
"688 99 OFFCURVE",
"646 85 OFFCURVE",
"620 85 CURVE SMOOTH",
"576 85 OFFCURVE",
"542 100 OFFCURVE",
"541 168 CURVE",
"541 188 OFFCURVE",
"574 213 OFFCURVE",
"574 233 CURVE SMOOTH",
"574 253 OFFCURVE",
"547 267 OFFCURVE",
"499 267 CURVE SMOOTH",
"449 267 OFFCURVE",
"434 230 OFFCURVE",
"434 156 CURVE SMOOTH",
"434 97 OFFCURVE",
"466 -12 OFFCURVE",
"625 -12 CURVE SMOOTH",
"751 -12 OFFCURVE",
"819 65 OFFCURVE",
"842 153 CURVE SMOOTH",
"869 258 OFFCURVE",
"956 606 OFFCURVE",
"956 644 CURVE",
"953 661 OFFCURVE",
"918 668 OFFCURVE",
"886 668 CURVE"
);
}
);
width = 931;
}
);
unicode = 01C7;
},
